<?xml version="1.0" standalone="no"?>
<!DOCTYPE svg PUBLIC "-//W3C//DTD SVG 20010904//EN"
 "http://www.w3.org/TR/2001/REC-SVG-20010904/DTD/svg10.dtd">
<svg version="1.0" xmlns="http://www.w3.org/2000/svg"
 width="700.000000pt" height="700.000000pt" viewBox="0 0 700.000000 700.000000"
 preserveAspectRatio="xMidYMid meet">
<metadata>
Created by potrace 1.14, written by Peter Selinger 2001-2017
</metadata>
<g transform="translate(0.000000,700.000000) scale(0.100000,-0.100000)"
fill="#000000" stroke="none">
<path d="M3430 6989 c-44 -18 -90 -59 -112 -102 -22 -42 -22 -45 -22 -627 -1
-509 -3 -587 -16 -598 -62 -52 -728 -482 -746 -482 -3 0 -21 -11 -42 -23 -20
-13 -100 -59 -177 -101 -77 -43 -156 -86 -175 -97 -85 -48 -530 -264 -685
-332 -302 -133 -663 -272 -965 -372 -80 -26 -155 -52 -166 -59 -20 -10 -94
-72 -94 -78 0 -2 1469 -3 3264 -3 2821 0 3263 2 3253 14 -16 20 -143 101 -157
101 -20 0 -371 121 -565 195 -243 93 -357 141 -665 281 -353 161 -832 426
-1225 677 -108 69 -401 265 -424 283 -5 5 -9 78 -4 92 4 9 160 12 732 12 468
0 739 4 763 10 117 33 176 178 118 289 -10 20 -82 99 -159 176 l-141 140 144
145 c79 80 152 160 161 178 42 85 10 198 -73 257 l-44 30 -876 2 c-565 1 -886
-2 -902 -8z"/>
<path d="M3 3480 c2 -124 8 -241 11 -260 31 -165 157 -300 315 -336 30 -7 88
-12 130 -11 64 2 87 7 144 36 147 73 229 197 241 364 8 106 54 170 144 201 43
14 84 14 132 -3 79 -27 128 -100 135 -205 9 -119 46 -199 127 -278 161 -158
412 -155 574 8 69 69 108 160 118 276 8 95 47 157 121 195 37 20 119 20 165 1
78 -33 118 -98 126 -204 7 -89 25 -141 69 -209 119 -179 345 -233 543 -131 52
27 136 118 164 176 29 63 37 95 44 174 5 72 22 113 64 153 76 74 196 76 278 4
40 -36 59 -81 67 -157 11 -116 35 -178 97 -256 73 -92 219 -155 338 -145 215
18 367 174 385 395 6 78 23 118 65 159 77 75 199 76 278 2 46 -44 62 -80 69
-162 10 -136 65 -239 164 -312 83 -61 144 -80 254 -79 76 0 99 5 149 27 152
70 238 194 251 366 6 76 23 117 65 158 78 76 200 76 278 0 42 -40 62 -86 68
-157 15 -167 98 -292 241 -360 157 -74 349 -36 470 94 102 109 113 153 113
460 l0 241 -3501 0 -3501 0 5 -225z"/>
<path d="M1020 2709 c-36 -41 -135 -112 -205 -147 -64 -32 -178 -70 -235 -78
-19 -3 -42 -7 -50 -9 -8 -2 -39 -5 -67 -6 l-53 -3 -1 -335 c-1 -185 -2 -354
-4 -376 -3 -59 -16 -196 -20 -225 -2 -14 -7 -45 -10 -70 -53 -387 -166 -770
-322 -1098 -57 -120 -64 -177 -27 -249 25 -51 69 -87 125 -103 19 -6 112 -10
208 -10 l174 0 206 208 c326 327 429 450 543 646 97 166 206 438 243 606 50
225 71 349 90 530 4 36 9 79 11 95 2 17 6 84 9 150 4 66 8 144 10 173 3 36 1
52 -8 53 -114 8 -222 33 -305 71 -73 33 -179 104 -236 157 l-51 48 -25 -28z"/>
<path d="M2225 2687 c-27 -27 -75 -64 -107 -84 -53 -33 -58 -39 -59 -72 -3
-116 -18 -400 -23 -461 -2 -19 -7 -71 -11 -115 -4 -44 -8 -87 -10 -95 -1 -8
-6 -40 -9 -71 -4 -31 -9 -67 -11 -80 -3 -13 -7 -41 -10 -64 -27 -186 -122
-522 -200 -705 -120 -282 -331 -594 -574 -850 l-80 -85 322 -3 322 -2 215 215
c461 463 704 783 914 1202 120 239 236 567 287 808 7 33 14 65 15 70 1 6 5 23
8 39 3 16 10 52 16 80 11 59 20 126 16 126 -1 0 -29 -11 -62 -24 -101 -40
-185 -55 -307 -51 -62 1 -122 5 -134 8 -184 46 -288 101 -428 226 l-40 36 -50
-48z"/>
<path d="M4698 2695 c-169 -161 -364 -236 -598 -230 -110 2 -173 16 -279 59
-35 14 -66 24 -69 21 -3 -2 0 -30 6 -62 7 -32 14 -76 17 -98 4 -22 8 -48 11
-57 3 -10 7 -28 10 -40 81 -432 293 -927 563 -1318 48 -70 189 -256 231 -304
123 -144 216 -243 410 -439 l225 -228 322 3 322 3 -62 65 c-34 36 -91 99 -127
140 -36 41 -67 77 -70 80 -3 3 -32 41 -65 85 -33 44 -62 82 -65 85 -14 14 -67
97 -138 218 -115 197 -227 480 -277 702 -21 92 -38 181 -51 260 -20 124 -21
135 -28 200 -3 30 -8 75 -11 100 -14 127 -32 437 -35 611 0 20 -13 35 -57 65
-31 21 -76 57 -99 80 l-42 40 -44 -41z"/>
<path d="M5949 2713 c-33 -39 -166 -135 -232 -167 -104 -50 -233 -83 -333 -85
l-31 -1 3 -62 c3 -98 14 -278 19 -328 3 -25 8 -67 11 -95 29 -274 82 -532 151
-735 32 -96 109 -271 145 -333 15 -26 28 -50 28 -53 0 -10 123 -190 174 -254
80 -101 97 -119 340 -367 l230 -233 179 0 c201 0 238 7 296 56 84 73 89 159
17 309 -109 227 -208 506 -272 770 -4 20 -45 221 -49 245 -2 14 -7 45 -10 70
-3 25 -8 59 -11 75 -5 30 -7 47 -20 205 -3 47 -7 228 -8 402 -1 174 -4 320 -8
323 -4 4 -24 9 -45 11 -193 16 -359 89 -497 218 -28 25 -53 46 -57 46 -3 0
-13 -8 -20 -17z"/>
<path d="M3485 1758 c-8 -32 -33 -100 -113 -298 -104 -259 -314 -632 -464
-825 -4 -5 -34 -44 -65 -85 -80 -105 -262 -316 -381 -440 l-101 -105 569 -3
c314 -1 826 -1 1139 0 l569 3 -91 96 c-313 327 -520 597 -708 924 -111 194
-257 522 -315 708 -10 31 -21 57 -25 57 -4 0 -11 -14 -14 -32z"/>
</g>
</svg>
