<svg width="154" height="62" viewBox="0 0 154 62" fill="none" xmlns="http://www.w3.org/2000/svg">
<path d="M153.987 48.498C151.873 38.4556 143.322 31.7395 134.23 27.9577C119.522 21.8479 121.994 19.5869 121.994 19.5869C119.458 28.0515 118.189 32.2855 115.657 40.7501C115.657 40.7501 113.194 43.2892 125.963 48.4443C138.729 53.5961 140.937 62.0005 140.937 62.0005C142.491 55.3547 142.24 49.1713 140.082 43.6208C144.678 43.7381 149.425 45.5 153.987 48.498Z" fill="#DD5828"/>
<path d="M137.933 40.3745C137.933 40.3745 136.406 45.2482 125.817 41.2253C117.52 38.0766 115.654 40.7496 115.654 40.7496C117.349 35.0786 118.2 32.2448 119.898 26.5771C119.898 26.5771 142.06 31.6084 137.933 40.3745Z" fill="#4B0934"/>
<path d="M0 48.498C1.71504 38.9648 11.2717 31.1064 19.7631 27.9577C34.418 22.5279 31.9928 19.5869 31.9928 19.5869C34.5285 28.0515 35.7981 32.2855 38.3338 40.7501C38.3338 40.7501 40.7925 43.2892 28.0235 48.4443C15.2579 53.5961 13.0504 62.0005 13.0504 62.0005C11.4962 55.3547 11.7473 49.1713 13.9079 43.6208C9.31212 43.7381 4.56562 45.5 0 48.498Z" fill="#DD5828"/>
<path d="M16.0523 40.3745C16.0523 40.3745 17.5798 45.2482 28.1681 41.2253C36.4653 38.0766 38.3344 40.7496 38.3344 40.7496C36.6361 35.0786 35.7853 32.2448 34.087 26.5771C34.087 26.5771 11.9255 31.6084 16.0523 40.3745Z" fill="#4B0934"/>
<path d="M148.227 18.5116C144.111 27.2576 142.051 31.6323 137.934 40.375C137.127 37.6484 135.134 35.4241 132.531 34.3589C94.7129 20.7994 59.2599 20.8061 21.4587 34.3589C20.1557 34.8915 19.0001 35.7122 18.0756 36.7439C17.1544 37.7723 16.4577 39.0117 16.0524 40.375C11.9356 31.6323 9.87555 27.2576 5.75879 18.5116C6.30814 17.0713 7.17899 15.7548 8.29109 14.6427C9.40653 13.5239 10.7699 12.6128 12.2873 11.9897C55.8834 -3.99495 98.0893 -3.9983 141.699 11.9897C144.734 13.2358 147.132 15.6409 148.227 18.5116Z" fill="#DD5828"/>
</svg>
