<svg width="24" height="24" viewBox="0 0 24 24" fill="none" xmlns="http://www.w3.org/2000/svg">
<path d="M23.6991 9.8515C23.5105 9.71998 23.2695 9.68904 23.0538 9.76844L21.5603 10.3185C20.5508 9.60083 19.2859 9.2095 17.9531 9.2095C16.1115 9.2095 14.3964 9.97538 13.3521 11.2365C12.5394 10.7094 11.5653 10.52 10.582 10.715C9.89414 10.8514 9.26616 11.167 8.76966 11.6057C8.45541 9.77346 9.49823 8.05324 10.8909 6.0855C11.5171 5.75398 12.3122 5.77395 13.1508 5.79518C13.6613 5.80802 14.1893 5.82138 14.6997 5.75215C15.5014 5.64346 16.1445 5.15483 16.4643 4.41164C16.784 3.66841 16.6964 2.8655 16.224 2.20879L15.2673 0.878875C14.7597 0.173184 13.8867 -0.146711 13.0434 0.0638804C10.5378 0.68975 8.30503 1.83509 6.40706 3.46817C4.85208 4.80611 3.52036 6.47036 2.44884 8.41467C0.522328 11.9105 0.0231556 15.2208 0.000233752 16.1048C-0.000938123 16.1503 0.00229625 16.1958 0.00993688 16.2407C0.279796 17.8296 1.45256 19.272 3.31219 20.3023C5.08359 21.2837 7.36083 21.8242 9.72436 21.8242C12.0338 21.8242 14.2325 21.3165 15.981 20.3869L19.7788 23.8156C19.9078 23.932 20.0754 23.9966 20.2493 23.9968L23.2961 24H23.2969C23.4833 24 23.6619 23.926 23.7938 23.7943C23.9258 23.6625 24 23.4835 24 23.2969V10.4282C24 10.1983 23.8876 9.98297 23.6991 9.8515Z" fill="white"/>
</svg>
