<svg width="24" height="24" viewBox="0 0 24 24" fill="none" xmlns="http://www.w3.org/2000/svg">
<path d="M22.9227 17.7255L21.0838 15.8863C19.8662 14.6687 18.0276 14.4942 16.6345 15.3088L16.0951 14.7694C16.914 13.3626 16.7221 11.5246 15.5181 10.3209L13.6792 8.48174C12.4616 7.26409 10.623 7.08959 9.22995 7.90441L8.69108 7.36535C9.50406 5.97521 9.33341 4.13592 8.11356 2.91625L6.27464 1.07714C4.83837 -0.358955 2.51366 -0.359138 1.07721 1.07714C-0.359069 2.5136 -0.359069 4.83813 1.07721 6.27459L2.91631 8.1137C4.13396 9.33135 5.97233 9.50585 7.3654 8.69122L7.90501 9.23064C7.08598 10.6373 7.27806 12.4753 8.48179 13.6792L10.3209 15.5181C11.5385 16.7358 13.3769 16.9105 14.77 16.0956L15.3089 16.6345C14.4959 18.0248 14.6667 19.8639 15.8864 21.0838L17.7255 22.9227C19.1616 24.359 21.4863 24.3592 22.9227 22.9227C24.359 21.4864 24.3592 19.1619 22.9227 17.7255ZM7.26487 5.93914L6.80949 5.48376C6.44346 5.11773 5.84984 5.11773 5.48381 5.48376C5.1176 5.84978 5.11778 6.44341 5.48381 6.80944L5.93919 7.26501C5.34831 7.4071 4.7036 7.24963 4.24218 6.78802L2.40307 4.94891C1.69958 4.24541 1.6994 3.10668 2.40307 2.40301C3.10656 1.69952 4.24529 1.69933 4.94896 2.40301L6.78807 4.24212C7.24913 4.70318 7.40714 5.34789 7.26487 5.93914ZM14.6687 13.343L14.2141 12.8884C13.8479 12.5221 13.2544 12.5221 12.8882 12.8884C12.5222 13.2544 12.5222 13.848 12.8882 14.214L13.3438 14.6696C12.7529 14.8117 12.1082 14.654 11.6466 14.1926L9.80765 12.3535C9.34842 11.8943 9.18967 11.2466 9.33139 10.6572L9.78604 11.1119C10.1521 11.4779 10.7457 11.4779 11.1119 11.1119C11.4779 10.7457 11.4779 10.1522 11.1119 9.786L10.6563 9.33062C11.2472 9.18853 11.8919 9.346 12.3535 9.80761L14.1925 11.6465C14.6517 12.1058 14.8104 12.7534 14.6687 13.343ZM21.597 21.597C20.8936 22.3005 19.7548 22.3007 19.0512 21.597L17.212 19.7579C16.751 19.2969 16.593 18.6522 16.7351 18.0609L17.1906 18.5163C17.5567 18.8825 18.1503 18.8825 18.5163 18.5163C18.8823 18.1503 18.8823 17.5566 18.5163 17.1906L18.0607 16.735C18.6518 16.5929 19.2963 16.7506 19.7579 17.212L21.597 19.0511C22.3005 19.7546 22.3007 20.8934 21.597 21.597Z" fill="white"/>
</svg>
