<?xml version="1.0" encoding="iso-8859-1"?>
<!-- Generator: Adobe Illustrator 19.0.0, SVG Export Plug-In . SVG Version: 6.00 Build 0)  -->
<svg version="1.1" id="Capa_1" xmlns="http://www.w3.org/2000/svg" xmlns:xlink="http://www.w3.org/1999/xlink" x="0px" y="0px"
	 viewBox="0 0 512 512" style="enable-background:new 0 0 512 512;" xml:space="preserve">
<g>
	<g>
		<path d="M256,380.175c-18.938,58.464-48.161,96.194-83.788,131.821h167.575C304.073,476.281,275.016,438.881,256,380.175z"/>
	</g>
</g>
<g>
	<g>
		<path d="M361.333,323.392c-5.407-3.218-10.449-6.99-14.588-11.685c-11.001,12.48-27.1,20.361-44.999,20.361
			c-10.031,0-19.365-2.679-27.684-7.05c14.196,100.217,71.513,150.343,108.146,186.977h47.577
			C377.743,459.951,363.138,414.054,361.333,323.392z"/>
	</g>
</g>
<g>
	<g>
		<path d="M510.413,490.287c-18.589-37.177-29.417-79.808-29.417-121.364v-36.937c-17.591-0.221-33.408-7.978-44.252-20.279
			c-11.001,12.48-27.1,20.361-44.999,20.361c-0.071,0-0.134-0.022-0.205-0.022c3.525,112.211,35.921,135.203,80.668,179.95h23.789
			c5.2,0,11.02-2.695,13.759-7.119C512.493,500.453,512.742,494.931,510.413,490.287z"/>
	</g>
</g>
<g>
	<g>
		<path d="M76.75,311.707c-11.09,12.6-29.246,19.935-46.746,19.924v37.292c0,41.557-9.829,84.187-28.417,121.364
			c-2.329,4.644-2.08,10.166,0.659,14.59c2.739,4.424,7.559,7.119,12.759,7.119h23.789c44.809-44.809,78.183-67.713,81.664-180.069
			C103.09,331.547,87.478,323.878,76.75,311.707z"/>
	</g>
</g>
<g>
	<g>
		<path d="M211.748,332.068c-17.9,0-33.998-7.881-44.999-20.362c-4.528,5.138-10.087,9.245-16.113,12.596
			c-1.859,87.172-16.36,135.632-68.422,187.693h47.577c35.653-35.653,93.422-85.655,108.003-185.999
			C229.897,329.828,221.097,332.068,211.748,332.068z"/>
	</g>
</g>
<g>
	<g>
		<path d="M483.852,203.384c-76.198-23.622-147.77-60.072-212.852-106.227v-7.154h104.998c6.064,0,11.543-3.647,13.857-9.258
			c2.329-5.61,1.04-12.056-3.252-16.348l-19.395-19.395l19.396-19.393c4.292-4.292,5.581-10.737,3.252-16.348
			c-2.314-5.61-7.793-9.258-13.857-9.258H256.001c-8.292,0-15.001,6.709-15.001,15c0,28.835,0,49.893,0,82.162
			c-65.089,46.138-137.684,82.607-216.123,107.126c-3.329,1.666-5.762,4.305-8.416,6.709c54.317,0,428.698,0,478.31,0
			C491.572,208.137,488.111,205.46,483.852,203.384z"/>
	</g>
</g>
<g>
	<g>
		<path d="M0.004,241.001v27.363c0.355,1.362,1.031,8.159,1.373,9.8c2.763,13.251,14.447,23.384,28.627,23.754v0.137
			c15.419,1.542,31.746-11.911,31.746-29.984c0-8.291,6.709-15,15-15c8.291,0,15,6.709,15,15c0,16.538,13.462,29.999,29.999,29.999
			c16.538,0,30-13.462,30-29.999c0-8.291,6.709-15,15-15c8.291,0,15,6.709,15,15c0,16.538,13.462,29.999,30,29.999
			c16.538,0,29.999-13.462,29.999-29.999c0-8.291,6.709-15,15-15c8.291,0,15,6.709,15,15c0,16.538,13.462,29.999,30,29.999
			s29.999-13.462,29.999-29.999c0-8.291,6.709-15,15-15s15,6.709,15,15c0,16.538,13.462,29.999,29.999,29.999
			s29.999-13.462,29.999-29.999c0-8.291,6.709-15,15-15c8.925,0,15,7.939,15,15c0,16.899,14.075,29.618,29.252,29.984v-0.137
			c16.241,0.45,29.122-11.622,31-26.158v-34.758C319.594,241.001,192.813,241.001,0.004,241.001z"/>
	</g>
</g>
<g>
</g>
<g>
</g>
<g>
</g>
<g>
</g>
<g>
</g>
<g>
</g>
<g>
</g>
<g>
</g>
<g>
</g>
<g>
</g>
<g>
</g>
<g>
</g>
<g>
</g>
<g>
</g>
<g>
</g>
</svg>
