<svg viewBox="0 0 44 61" fill="none" xmlns="http://www.w3.org/2000/svg">
<path d="M35.6859 41.0526C35.6859 44.3333 33.0257 46.9927 29.7459 46.9927C26.4661 46.9927 23.8066 44.3333 23.8066 41.0526C23.8066 37.772 26.4661 35.1142 29.7459 35.1142C33.0257 35.1142 35.6859 37.772 35.6859 41.0526Z" fill="#DD5828"/>
<path d="M43.2022 15.2107C43.2022 18.2737 40.719 20.7568 37.6561 20.7568C34.5924 20.7568 32.1084 18.2737 32.1084 15.2107C32.1084 12.1462 34.5924 9.66302 37.6561 9.66302C40.719 9.66302 43.2022 12.1462 43.2022 15.2107Z" fill="#DD5828"/>
<path d="M42.7073 31.4879C42.7073 36.1944 38.8916 40.0093 34.1852 40.0093C29.4788 40.0093 25.6631 36.1944 25.6631 31.4879C25.6631 26.7823 29.4788 22.9658 34.1852 22.9658C38.8916 22.9658 42.7073 26.7823 42.7073 31.4879Z" fill="#DD5828"/>
<path d="M43.9998 21.752C43.9998 26.2431 40.3579 29.8857 35.8652 29.8857C31.3725 29.8857 27.7314 26.2431 27.7314 21.752C27.7314 17.2593 31.3725 13.6158 35.8652 13.6158C40.3579 13.6158 43.9998 17.2593 43.9998 21.752Z" fill="#DD5828"/>
<path d="M9.28223 40.0094C9.28223 43.2908 11.9409 45.9502 15.2215 45.9502C18.5013 45.9502 21.1607 43.2908 21.1607 40.0094C21.1607 36.7295 18.5013 34.0709 15.2215 34.0709C11.9409 34.0709 9.28223 36.7295 9.28223 40.0094Z" fill="#DD5828"/>
<path d="M1.98438 15.2107C1.98438 18.2737 4.46836 20.7568 7.53128 20.7568C10.5942 20.7568 13.0782 18.2737 13.0782 15.2107C13.0782 12.1462 10.5942 9.66302 7.53128 9.66302C4.46836 9.66302 1.98438 12.1462 1.98438 15.2107Z" fill="#DD5828"/>
<path d="M1.29102 32.0983C1.29102 36.8039 5.10671 40.6196 9.81313 40.6196C14.5196 40.6196 18.3352 36.8039 18.3352 32.0983C18.3352 27.3919 14.5196 23.5754 9.81313 23.5754C5.10671 23.5754 1.29102 27.3919 1.29102 32.0983Z" fill="#DD5828"/>
<path d="M0 22.3626C0 26.8538 3.64186 30.4956 8.13457 30.4956C12.6273 30.4956 16.2683 26.8538 16.2683 22.3626C16.2683 17.8683 12.6273 14.2257 8.13457 14.2257C3.64186 14.2257 0 17.8683 0 22.3626Z" fill="#DD5828"/>
<path d="M32.4196 46.9067V53.834H12.7119V46.9067C14.8418 45.9363 15.8019 44.4961 16.2397 43.0384C16.3865 42.548 16.4742 42.0615 16.5268 41.5879C16.5858 41.1493 16.6026 40.7107 16.5858 40.3064C16.6209 39.5409 16.6026 38.8782 16.6783 38.4165C16.9893 36.6845 22.5777 38.4165 22.5777 38.4165C22.5777 38.4165 28.1653 36.6845 28.4524 38.4165C28.5281 38.8782 28.5106 39.5409 28.5106 40.3064C28.5281 40.7283 28.5456 41.1668 28.6039 41.6054C28.6573 42.0799 28.7442 42.5655 28.8909 43.0512C29.3359 44.5017 30.3064 45.9363 32.4196 46.9067" fill="#FBCAA4"/>
<path d="M32.4266 27.8333C34.1155 26.1236 34.5645 23.9897 36.0852 26.0814C37.3571 27.8333 34.9975 33.3459 33.1028 34.2997C31.9505 34.8786 32.4266 31.6498 32.4266 31.6498V27.8333Z" fill="#FBCAA4"/>
<path d="M12.7142 27.8333C11.0261 26.1236 10.5779 23.9897 9.05642 26.0814C7.78452 27.8333 10.1449 33.3459 12.0388 34.2997C13.1903 34.8786 12.7142 31.6498 12.7142 31.6498V27.8333" fill="#FBCAA4"/>
<path d="M22.5708 46.0117C21.1849 46.0117 18.3229 44.4097 16.2393 43.0389C16.3413 42.6984 16.4147 42.3603 16.4673 42.0262C18.5239 43.3547 21.2344 44.8427 22.5708 44.8427C23.9033 44.8427 26.6058 43.3611 28.6608 42.0349C28.7142 42.3714 28.7876 42.712 28.8905 43.0517C26.8132 44.4153 23.952 46.0117 22.5708 46.0117Z" fill="#CDA17D"/>
<path d="M33.672 17.3395C31.6027 12.0892 27.3405 10.8221 22.571 10.8221C17.8008 10.8221 13.5386 12.0892 11.47 17.3395C9.22048 23.0507 13.3488 39.437 13.828 40.0726C14.3049 40.7121 20.3446 44.8428 22.571 44.8428C24.7967 44.8428 30.8388 40.7121 31.314 40.0726C31.7917 39.437 35.9208 23.0507 33.672 17.3395Z" fill="#FCD0AF"/>
<path d="M25.9547 29.2295C25.9547 31.0994 24.4403 32.6138 22.572 32.6138C20.7028 32.6138 19.1885 31.0994 19.1885 29.2295C19.1885 27.3611 20.7028 25.8468 22.572 25.8468C24.4403 25.8468 25.9547 27.3611 25.9547 29.2295Z" fill="#ED1E2F"/>
<path d="M21.7857 29.9829C21.0521 29.9829 20.458 29.3896 20.458 28.656C20.458 27.9223 21.0521 27.3283 21.7857 27.3283C22.5194 27.3283 23.1134 27.9223 23.1134 28.656C23.1134 29.3896 22.5194 29.9829 21.7857 29.9829Z" fill="#F9AAB3"/>
<path d="M27.5978 32.9413C26.4631 34.0226 23.932 35.0378 22.5708 35.0378C21.2088 35.0378 18.6778 34.0226 17.5422 32.9413C15.386 30.8879 14.9267 35.883 17.0008 39.0504C18.3707 41.1413 19.9672 42.457 22.5708 42.457C25.1736 42.457 26.7693 41.1413 28.1393 39.0504C30.2142 35.883 29.7548 30.8879 27.5978 32.9413Z" fill="white"/>
<path d="M16.6305 32.7534C16.5723 32.7534 16.3993 32.7534 16.2286 33.0692C15.7255 34.0006 15.8746 36.7972 17.2462 38.8905C18.7493 41.1855 20.3418 42.1647 22.5706 42.1647C24.7986 42.1647 26.3911 41.1855 27.8942 38.8905C29.265 36.7972 29.4149 34.0006 28.9117 33.0692C28.7411 32.7534 28.5672 32.7534 28.5098 32.7534C28.3775 32.7534 28.147 32.8228 27.7993 33.1538C26.6462 34.2526 24.0554 35.3307 22.5706 35.3307C21.085 35.3307 18.4933 34.2526 17.3402 33.1538C16.9934 32.8228 16.7629 32.7534 16.6305 32.7534ZM22.5706 42.75C20.1201 42.75 18.3809 41.691 16.7565 39.211C15.3411 37.0508 15.0381 34.0397 15.7135 32.7917C15.9918 32.2766 16.3658 32.1681 16.6305 32.1681C16.9782 32.1681 17.353 32.3571 17.7438 32.7303C18.7924 33.7279 21.2277 34.7454 22.5706 34.7454C23.9119 34.7454 26.348 33.7279 27.3966 32.7295C27.7874 32.3571 28.1622 32.1681 28.5098 32.1681C28.7746 32.1681 29.1486 32.2766 29.4261 32.7909C30.1015 34.0397 29.7985 37.0508 28.3838 39.211C26.7587 41.6918 25.0203 42.75 22.5706 42.75Z" fill="#222020"/>
<path d="M18.4481 38.1022C18.0717 37.5281 17.8126 36.8925 17.6451 36.2857C17.4545 35.5943 17.8987 35.3288 18.5422 35.6438C19.897 36.308 21.4433 36.7665 22.57 36.7665C23.696 36.7665 25.2414 36.308 26.597 35.6438C27.2398 35.3288 27.6847 35.5943 27.4941 36.2857C27.3267 36.8925 27.0667 37.5281 26.6911 38.1022C25.4535 39.9905 24.2988 40.7266 22.57 40.7266C20.8404 40.7266 19.6857 39.9905 18.4481 38.1022Z" fill="#ED1E2F"/>
<path d="M31.7712 24.0876C30.4284 24.783 28.9348 26.57 28.3543 28.176C28.1158 28.8339 28.0919 28.8339 27.8535 28.176C27.2721 26.57 25.7786 24.783 24.4365 24.0876C23.8871 23.8029 23.8871 23.775 24.4365 23.4903C25.7786 22.7942 27.2729 21.0063 27.8535 19.4011C28.0919 18.744 28.1158 18.744 28.3543 19.4011C28.9348 21.0063 30.4292 22.7942 31.7712 23.4903C32.3207 23.775 32.3207 23.8029 31.7712 24.0876Z" fill="white"/>
<path d="M28.1054 20.5447C28.2872 21.0861 28.3821 21.626 28.4467 22.1666C28.5161 22.7073 28.5424 23.2479 28.544 23.7886C28.544 24.3284 28.5177 24.8699 28.4475 25.4106C28.3837 25.9512 28.288 26.4911 28.1054 27.0317C27.9228 26.4911 27.8271 25.9512 27.7633 25.4106C27.6931 24.8699 27.6668 24.3284 27.666 23.7886C27.6676 23.2479 27.6947 22.7073 27.7641 22.1666C27.8295 21.626 27.9236 21.0861 28.1054 20.5447Z" fill="#222020"/>
<path d="M29.2092 23.8211C29.2092 24.3984 28.7411 24.8657 28.1638 24.8657C27.5872 24.8657 27.1191 24.3984 27.1191 23.8211C27.1191 23.2462 27.5872 22.7773 28.1638 22.7773C28.7411 22.7773 29.2092 23.2462 29.2092 23.8211Z" fill="#069ECA"/>
<path d="M28.1638 22.7773C27.5872 22.7773 27.1191 23.2462 27.1191 23.8211C27.1191 24.3984 27.5872 24.8657 28.1638 24.8657C28.7411 24.8657 29.2092 24.3984 29.2092 23.8211C29.2092 23.2462 28.7411 22.7773 28.1638 22.7773ZM28.1638 22.8546C28.6981 22.8546 29.1326 23.2892 29.1326 23.8211C29.1326 24.3554 28.6981 24.7908 28.1638 24.7908C27.6303 24.7908 27.1965 24.3554 27.1965 23.8211C27.1965 23.2892 27.6303 22.8546 28.1638 22.8546Z" fill="#126780"/>
<path d="M28.1064 23.4253L28.1639 23.0537L28.2221 23.4253H28.1064Z" fill="#126780"/>
<path d="M27.9166 23.5078L27.7803 23.1562L28.0155 23.4488L27.9166 23.5078Z" fill="#126780"/>
<path d="M27.7915 23.6748L27.498 23.438L27.8489 23.5743L27.7915 23.6748" fill="#126780"/>
<path d="M27.7663 23.8804L27.3955 23.8214L27.7663 23.7632V23.8804Z" fill="#126780"/>
<path d="M27.8489 24.071L27.498 24.2065L27.7915 23.9705L27.8489 24.071Z" fill="#126780"/>
<path d="M28.0155 24.1945L27.7803 24.4863L27.9166 24.1371L28.0155 24.1945" fill="#126780"/>
<path d="M28.2221 24.2189L28.1639 24.5913L28.1064 24.2189H28.2221Z" fill="#126780"/>
<path d="M28.4122 24.1371L28.5485 24.4863L28.3125 24.1945L28.4122 24.1371" fill="#126780"/>
<path d="M28.5357 23.9705L28.8276 24.2065L28.4775 24.071L28.5357 23.9705Z" fill="#126780"/>
<path d="M28.5615 23.7632L28.9323 23.8214L28.5615 23.8804V23.7632Z" fill="#126780"/>
<path d="M28.4775 23.5743L28.8276 23.438L28.5357 23.6748L28.4775 23.5743" fill="#126780"/>
<path d="M28.3125 23.4488L28.5485 23.1562L28.4122 23.5078L28.3125 23.4488Z" fill="#126780"/>
<path d="M28.6447 23.8217C28.6447 24.088 28.4294 24.3018 28.1638 24.3018C27.8983 24.3018 27.6846 24.088 27.6846 23.8217C27.6846 23.5586 27.8983 23.3424 28.1638 23.3424C28.4294 23.3424 28.6447 23.5586 28.6447 23.8217Z" fill="#363333"/>
<path d="M27.6338 23.7002H28.0356V23.2959H27.6338V23.7002Z" fill="#1CB5D4"/>
<path d="M27.886 23.4312L27.835 23.2988C27.8469 23.2964 27.8597 23.2956 27.8724 23.2956C27.8788 23.2956 27.8852 23.2956 27.8916 23.2964L27.9641 23.3857C27.9362 23.3985 27.9107 23.4136 27.886 23.4312" fill="#0E8CA6"/>
<path d="M27.7269 23.6226L27.6336 23.5468C27.6336 23.542 27.6328 23.538 27.6328 23.5332C27.6328 23.5189 27.6344 23.5053 27.6368 23.4918L27.7724 23.5436C27.7548 23.5683 27.7397 23.5946 27.7269 23.6226Z" fill="#0E8CA6"/>
<path d="M27.8734 23.7734C27.8056 23.7734 27.7442 23.7455 27.7012 23.7001C27.7076 23.673 27.7171 23.6475 27.7283 23.6227C27.741 23.5948 27.7562 23.5685 27.7737 23.5438C27.8048 23.4999 27.8431 23.4616 27.887 23.4305C27.9117 23.413 27.9372 23.3979 27.9651 23.3851C27.9883 23.3747 28.0122 23.366 28.0369 23.3588C28.0839 23.4026 28.1134 23.4648 28.1134 23.5334C28.1134 23.6666 28.0058 23.7734 27.8734 23.7734" fill="#6D6D6C"/>
<path d="M24.4504 20.3594C24.2606 19.4009 24.5803 18.3172 25.2821 17.5405C25.9711 16.7478 27.0348 16.2813 28.1042 16.2797C29.1735 16.2797 30.2373 16.7462 30.9263 17.5397C31.6288 18.3156 31.9494 19.4009 31.7572 20.3594C31.5754 19.4049 31.1049 18.5915 30.4438 18.0253C29.7828 17.4639 28.9479 17.1481 28.1042 17.1569C27.2605 17.1465 26.4248 17.4623 25.7637 18.0245C25.1026 18.5907 24.6314 19.4049 24.4504 20.3594" fill="#222020"/>
<path d="M20.7036 24.0876C19.3616 24.783 17.8672 26.57 17.2867 28.176C17.049 28.8339 17.0251 28.8339 16.7867 28.176C16.2054 26.57 14.7118 24.783 13.3697 24.0876C12.8195 23.8029 12.8195 23.775 13.3697 23.4903C14.7118 22.7942 16.2054 21.0063 16.7867 19.4011C17.0251 18.744 17.049 18.744 17.2867 19.4011C17.868 21.0063 19.3616 22.7942 20.7044 23.4903C21.2539 23.775 21.2531 23.8029 20.7036 24.0876Z" fill="white"/>
<path d="M17.0353 20.5447C17.2171 21.0861 17.312 21.626 17.3766 22.1666C17.4467 22.7073 17.4723 23.2479 17.4746 23.7886C17.4739 24.3284 17.4475 24.8699 17.3782 25.4106C17.3144 25.9512 17.2187 26.4911 17.0353 27.0317C16.8535 26.4911 16.7578 25.9512 16.6932 25.4106C16.6238 24.8699 16.5975 24.3284 16.5967 23.7886C16.5991 23.2479 16.6246 22.7073 16.6948 22.1666C16.7594 21.626 16.8542 21.0861 17.0353 20.5447Z" fill="#222020"/>
<path d="M18.1416 23.8211C18.1416 24.3984 17.6735 24.8657 17.0962 24.8657C16.5197 24.8657 16.0508 24.3984 16.0508 23.8211C16.0508 23.2462 16.5197 22.7773 17.0962 22.7773C17.6735 22.7773 18.1416 23.2462 18.1416 23.8211Z" fill="#069ECA"/>
<path d="M17.0962 22.7773C16.5197 22.7773 16.0508 23.2462 16.0508 23.8211C16.0508 24.3984 16.5197 24.8657 17.0962 24.8657C17.6735 24.8657 18.1416 24.3984 18.1416 23.8211C18.1416 23.2462 17.6735 22.7773 17.0962 22.7773ZM17.0962 22.8546C17.6313 22.8546 18.0643 23.2892 18.0643 23.8211C18.0643 24.3554 17.6313 24.7908 17.0962 24.7908C16.5627 24.7908 16.1281 24.3554 16.1281 23.8211C16.1281 23.2892 16.5627 22.8546 17.0962 22.8546Z" fill="#126780"/>
<path d="M17.0381 23.4253L17.0955 23.0537L17.1537 23.4253H17.0381Z" fill="#126780"/>
<path d="M16.8494 23.5078L16.7139 23.1562L16.9491 23.4488L16.8494 23.5078Z" fill="#126780"/>
<path d="M16.7233 23.6748L16.4307 23.438L16.7807 23.5743L16.7233 23.6748" fill="#126780"/>
<path d="M16.6997 23.8804L16.3281 23.8214L16.6997 23.7632V23.8804Z" fill="#126780"/>
<path d="M16.7807 24.071L16.4307 24.2065L16.7233 23.9705L16.7807 24.071Z" fill="#126780"/>
<path d="M16.9491 24.1945L16.7139 24.4863L16.8494 24.1371L16.9491 24.1945" fill="#126780"/>
<path d="M17.1537 24.2189L17.0955 24.5913L17.0381 24.2189H17.1537Z" fill="#126780"/>
<path d="M17.3438 24.1371L17.4802 24.4863L17.2441 24.1945L17.3438 24.1371" fill="#126780"/>
<path d="M17.4684 23.9705L17.7618 24.2065L17.4102 24.071L17.4684 23.9705Z" fill="#126780"/>
<path d="M17.4932 23.7632L17.864 23.8214L17.4932 23.8804V23.7632Z" fill="#126780"/>
<path d="M17.4102 23.5743L17.7618 23.438L17.4684 23.6748L17.4102 23.5743Z" fill="#126780"/>
<path d="M17.2441 23.4488L17.4802 23.1562L17.3438 23.5078L17.2441 23.4488Z" fill="#126780"/>
<path d="M17.5763 23.8217C17.5763 24.088 17.3618 24.3018 17.0963 24.3018C16.8315 24.3018 16.6162 24.088 16.6162 23.8217C16.6162 23.5586 16.8315 23.3424 17.0963 23.3424C17.3618 23.3424 17.5763 23.5586 17.5763 23.8217Z" fill="#363333"/>
<path d="M16.6326 23.6997C16.5943 23.6598 16.5696 23.6064 16.5664 23.5474L16.6597 23.6232C16.6485 23.6479 16.6398 23.6734 16.6326 23.6997V23.6997ZM16.7052 23.5442L16.5696 23.4924C16.5879 23.3927 16.6677 23.3145 16.7682 23.2986L16.8192 23.431C16.7753 23.4621 16.7363 23.5004 16.7052 23.5442ZM16.8973 23.3855L16.8256 23.2962C16.8806 23.3002 16.9308 23.3241 16.9691 23.3592C16.9444 23.3664 16.9197 23.3752 16.8973 23.3855" fill="#1CB5D4"/>
<path d="M16.8186 23.4312L16.7676 23.2988C16.7795 23.2964 16.7923 23.2956 16.8051 23.2956C16.8114 23.2956 16.8186 23.2956 16.825 23.2964L16.8968 23.3857C16.8689 23.3985 16.8425 23.4136 16.8186 23.4312" fill="#0E8CA6"/>
<path d="M16.6597 23.6226L16.5664 23.5468C16.5664 23.5428 16.5664 23.538 16.5664 23.5332C16.5664 23.5189 16.5672 23.5053 16.5696 23.4918L16.7052 23.5436C16.6876 23.5683 16.6725 23.5946 16.6597 23.6226Z" fill="#0E8CA6"/>
<path d="M16.8049 23.7734C16.7371 23.7734 16.6757 23.7447 16.6318 23.6993C16.639 23.673 16.6478 23.6475 16.659 23.6227C16.6717 23.5948 16.6869 23.5685 16.7044 23.5438C16.7355 23.4999 16.7746 23.4616 16.8184 23.4305C16.8424 23.413 16.8687 23.3979 16.8966 23.3851C16.9189 23.3747 16.9436 23.366 16.9684 23.3588C17.0146 23.4026 17.0441 23.4648 17.0441 23.5334C17.0441 23.6666 16.9373 23.7734 16.8049 23.7734" fill="#6D6D6C"/>
<path d="M13.3819 20.3594C13.1921 19.4009 13.5127 18.3172 14.2136 17.5405C14.9034 16.7478 15.9672 16.2813 17.0357 16.2797C18.1051 16.2797 19.1697 16.7462 19.8586 17.5397C20.5604 18.3156 20.8817 19.4009 20.6896 20.3594C20.5077 19.4049 20.0365 18.5915 19.3762 18.0253C18.7151 17.4639 17.8794 17.1481 17.0357 17.1569C16.1929 17.1465 15.3572 17.4623 14.6953 18.0245C14.035 18.5907 13.5637 19.4049 13.3819 20.3594" fill="#222020"/>
<path d="M39.8846 10.3493C39.8846 14.0589 36.8775 17.0645 33.1694 17.0645C29.4606 17.0645 26.4551 14.0589 26.4551 10.3493C26.4551 6.64045 29.4606 3.63495 33.1694 3.63495C36.8775 3.63495 39.8846 6.64045 39.8846 10.3493Z" fill="#DD5828"/>
<path d="M30.4734 7.73042C30.4734 11.4847 27.4288 14.5293 23.6737 14.5293C19.9186 14.5293 16.874 11.4847 16.874 7.73042C16.874 3.97533 19.9186 0.930749 23.6737 0.930749C27.4288 0.930749 30.4734 3.97533 30.4734 7.73042Z" fill="#DD5828"/>
<path d="M33.554 5.5957C33.554 7.66263 31.3634 9.33643 28.6618 9.33643C25.9601 9.33643 23.7695 7.66263 23.7695 5.5957C23.7695 3.53036 25.9601 1.85575 28.6618 1.85575C31.3634 1.85575 33.554 3.53036 33.554 5.5957Z" fill="#DD5828"/>
<path d="M6.92578 9.6615C6.92578 13.3711 9.93208 16.3774 13.6409 16.3774C17.349 16.3774 20.3545 13.3711 20.3545 9.6615C20.3545 5.95426 17.349 2.94796 13.6409 2.94796C9.93208 2.94796 6.92578 5.95426 6.92578 9.6615Z" fill="#DD5828"/>
<path d="M13.1123 5.5957C13.1123 7.66263 15.302 9.33643 18.0037 9.33643C20.7062 9.33643 22.8959 7.66263 22.8959 5.5957C22.8959 3.53036 20.7062 1.85575 18.0037 1.85575C15.302 1.85575 13.1123 3.53036 13.1123 5.5957Z" fill="#DD5828"/>
<path d="M33.4368 29.792C33.4368 30.9834 32.4703 31.9507 31.2789 31.9507C30.0868 31.9507 29.1211 30.9834 29.1211 29.792C29.1211 28.6007 30.0868 27.6334 31.2789 27.6334C32.4703 27.6334 33.4368 28.6007 33.4368 29.792Z" fill="#ED1E2F"/>
<path d="M16.0216 29.792C16.0216 30.9834 15.0551 31.9507 13.8637 31.9507C12.6716 31.9507 11.7051 30.9834 11.7051 29.792C11.7051 28.6007 12.6716 27.6334 13.8637 27.6334C15.0551 27.6334 16.0216 28.6007 16.0216 29.792Z" fill="#ED1E2F"/>
<path d="M40.4122 58.3053C40.1546 59.5748 38.8317 60.8276 37.563 60.5987C34.6245 60.0732 31.1724 57.7671 27.5385 55.4785C27.0656 55.181 26.5848 54.8828 26.1047 54.5901C26.0059 53.6707 25.9349 52.7465 25.9062 51.827C25.895 51.6173 25.8886 51.4068 25.8886 51.1955C25.8655 50.1429 25.8886 49.0895 25.9532 48.0369C25.9652 47.8255 25.9764 47.6206 26.0003 47.4165C26.0409 46.8423 26.0992 46.2753 26.1701 45.702C26.1813 45.5672 26.1996 45.4317 26.2164 45.2985C30.3295 42.7874 34.2329 40.289 37.5678 40.0195C38.8556 39.9142 40.1546 41.2603 40.4122 42.5242C41.4831 47.7849 41.4831 53.0447 40.4122 58.3053Z" fill="#F2D15E"/>
<path d="M36.4758 42.8873C36.4758 43.3235 36.1218 43.6768 35.6856 43.6768C35.2486 43.6768 34.8945 43.3235 34.8945 42.8873C34.8945 42.4495 35.2486 42.0962 35.6856 42.0962C36.1218 42.0962 36.4758 42.4495 36.4758 42.8873Z" fill="#03A2AD"/>
<path d="M33.1395 55.6256C33.1395 56.0235 32.8166 56.3457 32.4195 56.3457C32.0224 56.3457 31.7002 56.0235 31.7002 55.6256C31.7002 55.2293 32.0224 54.9071 32.4195 54.9071C32.8166 54.9071 33.1395 55.2293 33.1395 55.6256Z" fill="#03A2AD"/>
<path d="M29.7509 51.5367C29.7509 51.9338 29.4279 52.2544 29.0308 52.2544C28.6337 52.2544 28.3115 51.9338 28.3115 51.5367C28.3115 51.1388 28.6337 50.8159 29.0308 50.8159C29.4279 50.8159 29.7509 51.1388 29.7509 51.5367Z" fill="#03A2AD"/>
<path d="M34.8947 49.9453C34.8947 50.549 34.4059 51.0386 33.8015 51.0386C33.1978 51.0386 32.709 50.549 32.709 49.9453C32.709 49.3409 33.1978 48.852 33.8015 48.852C34.4059 48.852 34.8947 49.3409 34.8947 49.9453Z" fill="#03A2AD"/>
<path d="M38.5315 52.414C38.5315 52.8989 38.1392 53.292 37.6551 53.292C37.1695 53.292 36.7764 52.8989 36.7764 52.414C36.7764 51.9292 37.1695 51.5369 37.6551 51.5369C38.1392 51.5369 38.5315 51.9292 38.5315 52.414Z" fill="#03A2AD"/>
<path d="M38.5067 57.6366C38.5067 58.1071 38.1255 58.4883 37.655 58.4883C37.1837 58.4883 36.8018 58.1071 36.8018 57.6366C36.8018 57.1661 37.1837 56.7842 37.655 56.7842C38.1255 56.7842 38.5067 57.1661 38.5067 57.6366Z" fill="#03A2AD"/>
<path d="M39.6222 46.2726C39.6222 46.889 39.1238 47.3882 38.5074 47.3882C37.8926 47.3882 37.3926 46.889 37.3926 46.2726C37.3926 45.6578 37.8926 45.1586 38.5074 45.1586C39.1238 45.1586 39.6222 45.6578 39.6222 46.2726Z" fill="#03A2AD"/>
<path d="M31.6957 46.2732C31.6957 46.8107 31.2603 47.2461 30.7229 47.2461C30.1862 47.2461 29.75 46.8107 29.75 46.2732C29.75 45.7365 30.1862 45.3012 30.7229 45.3012C31.2603 45.3012 31.6957 45.7365 31.6957 46.2732Z" fill="#03A2AD"/>
<path d="M27.9018 47.8672V47.6918C27.9018 47.439 27.8548 47.2006 27.7734 46.9837L29.7742 46.4972L29.7766 46.4964C29.822 46.6886 29.9241 46.8585 30.0636 46.9876L30.0613 46.9884L27.9018 47.8672ZM31.6952 46.3274C31.6968 46.3098 31.6968 46.2915 31.6968 46.2731C31.6968 46.191 31.6864 46.1121 31.6681 46.0363L31.6705 46.0355L33.5484 45.573L31.6952 46.3274Z" fill="#DB8318"/>
<path d="M30.0625 46.9878C29.9229 46.8586 29.8208 46.6887 29.7754 46.4966L31.6669 46.0364C31.6852 46.1122 31.6956 46.1911 31.6956 46.2733C31.6956 46.2916 31.6956 46.31 31.694 46.3275L31.6924 46.3283L30.0625 46.9878Z" fill="#0D848C"/>
<path d="M32.1844 53.2734L27.9014 52.2902V51.4537L28.3168 51.6284L28.3184 51.6292C28.3639 51.9824 28.6661 52.2543 29.0313 52.2543C29.1916 52.2543 29.3391 52.2025 29.4587 52.1148L32.1844 53.2734" fill="#DB8318"/>
<path d="M29.0322 52.2544C28.667 52.2544 28.3648 51.9825 28.3193 51.6292L29.4597 52.1148C29.34 52.2026 29.1925 52.2544 29.0322 52.2544Z" fill="#0D848C"/>
<path d="M19.2758 51.1955C19.2702 51.4068 19.2639 51.6173 19.2583 51.827C19.2232 52.7521 19.1586 53.6707 19.0589 54.5901C18.5733 54.8884 18.0884 55.1922 17.602 55.4968C13.9801 57.7782 10.5344 60.0732 7.60225 60.5987C6.32717 60.8276 5.00503 59.5748 4.74667 58.3053C3.6821 53.0447 3.6821 47.7849 4.74667 42.5242C5.00503 41.2603 6.30324 39.9142 7.59109 40.0195C10.9315 40.289 14.8294 42.7874 18.9489 45.2985C18.9656 45.4317 18.9839 45.5616 18.9951 45.6956C19.0645 46.2689 19.1243 46.8479 19.165 47.422C19.1825 47.6262 19.1937 47.8255 19.2056 48.0313C19.2758 49.0895 19.2989 50.1429 19.2758 51.1955Z" fill="#F2D15E"/>
<path d="M8.6875 42.8873C8.6875 43.3235 9.04155 43.6768 9.47774 43.6768C9.91474 43.6768 10.268 43.3235 10.268 42.8873C10.268 42.4495 9.91474 42.0962 9.47774 42.0962C9.04155 42.0962 8.6875 42.4495 8.6875 42.8873Z" fill="#03A2AD"/>
<path d="M12.0225 55.6256C12.0225 56.0235 12.3454 56.3457 12.7425 56.3457C13.1397 56.3457 13.4618 56.0235 13.4618 55.6256C13.4618 55.2293 13.1397 54.9071 12.7425 54.9071C12.3454 54.9071 12.0225 55.2293 12.0225 55.6256Z" fill="#03A2AD"/>
<path d="M15.4121 51.5367C15.4121 51.9338 15.7343 52.2544 16.1322 52.2544C16.5293 52.2544 16.8507 51.9338 16.8507 51.5367C16.8507 51.1388 16.5293 50.8159 16.1322 50.8159C15.7343 50.8159 15.4121 51.1388 15.4121 51.5367Z" fill="#03A2AD"/>
<path d="M10.2666 49.9453C10.2666 50.549 10.7562 51.0386 11.3599 51.0386C11.9643 51.0386 12.4532 50.549 12.4532 49.9453C12.4532 49.3409 11.9643 48.852 11.3599 48.852C10.7562 48.852 10.2666 49.3409 10.2666 49.9453Z" fill="#03A2AD"/>
<path d="M6.62988 52.414C6.62988 52.8989 7.02301 53.292 7.50705 53.292C7.99269 53.292 8.38502 52.8989 8.38502 52.414C8.38502 51.9292 7.99269 51.5369 7.50705 51.5369C7.02301 51.5369 6.62988 51.9292 6.62988 52.414Z" fill="#03A2AD"/>
<path d="M6.65527 57.6366C6.65527 58.1071 7.03645 58.4883 7.50693 58.4883C7.97821 58.4883 8.35938 58.1071 8.35938 57.6366C8.35938 57.1661 7.97821 56.7842 7.50693 56.7842C7.03645 56.7842 6.65527 57.1661 6.65527 57.6366Z" fill="#03A2AD"/>
<path d="M5.54102 46.2726C5.54102 46.889 6.0402 47.3882 6.65582 47.3882C7.27143 47.3882 7.77063 46.889 7.77063 46.2726C7.77063 45.6578 7.27143 45.1586 6.65582 45.1586C6.0402 45.1586 5.54102 45.6578 5.54102 46.2726Z" fill="#03A2AD"/>
<path d="M13.4658 46.2732C13.4658 46.8107 13.902 47.2461 14.4395 47.2461C14.9761 47.2461 15.4115 46.8107 15.4115 46.2732C15.4115 45.7365 14.9761 45.3012 14.4395 45.3012C13.902 45.3012 13.4658 45.7365 13.4658 46.2732Z" fill="#03A2AD"/>
<path d="M17.2284 47.855L15.0985 46.9882H15.0977C15.238 46.859 15.3409 46.6883 15.3855 46.4962L15.3911 46.497L17.3624 46.977C17.2754 47.2003 17.2284 47.4387 17.2284 47.6915V47.855" fill="#DB8318"/>
<path d="M13.4662 46.3267L11.6162 45.5731L13.4941 46.0356C13.475 46.1113 13.4646 46.1911 13.4646 46.2732C13.4646 46.2908 13.4646 46.3091 13.4662 46.3267" fill="#DB8318"/>
<path d="M15.0982 46.9883L13.4722 46.328L13.4674 46.3264C13.4658 46.3089 13.4658 46.2905 13.4658 46.273C13.4658 46.1908 13.4762 46.1111 13.4953 46.0353H13.4961L15.386 46.4963C15.3414 46.6884 15.2385 46.8591 15.0982 46.9883Z" fill="#0D848C"/>
<path d="M12.9795 53.2734L15.7011 52.1148L15.7019 52.114C15.8215 52.2025 15.9699 52.2543 16.1309 52.2543C16.497 52.2543 16.7984 51.9816 16.8438 51.6284L17.2282 51.4649V52.2958L12.9795 53.2734" fill="#DB8318"/>
<path d="M16.1302 52.2544C15.9691 52.2544 15.8208 52.2026 15.7012 52.114L16.8415 51.6284H16.8431C16.7976 51.9817 16.4962 52.2544 16.1302 52.2544" fill="#0D848C"/>
<path d="M17.6015 55.4971C17.3671 55.1693 17.2275 54.7658 17.2275 54.3272V52.2962L19.2578 51.8273C19.2323 52.4995 19.1916 53.167 19.1326 53.8344C19.1111 54.0864 19.0863 54.3384 19.0584 54.5904C18.5728 54.8886 18.088 55.1925 17.6015 55.4971Z" fill="#DB8318"/>
<path d="M17.2275 51.4653V47.8554L19.0297 48.5866L19.2052 48.0316C19.2578 48.825 19.2841 49.6161 19.2841 50.4063C19.2841 50.6695 19.2809 50.9327 19.2753 51.1958L19.0999 50.6703L17.2275 51.4653ZM19.1645 47.4224L17.3615 46.9774C17.6199 46.2932 18.2458 45.79 18.9946 45.6959C19.064 46.2693 19.1238 46.8482 19.1645 47.4224" fill="#DB8318"/>
<path d="M19.2067 48.0312C19.1947 47.8255 19.1836 47.6262 19.166 47.422L19.3885 47.4746L19.2067 48.0312Z" fill="#A87E5F"/>
<path d="M19.0297 48.5864L17.2275 47.8552V47.6917C17.2275 47.4389 17.2746 47.2005 17.3615 46.9772L19.1645 47.4222C19.182 47.6263 19.1932 47.8257 19.2052 48.0314L19.0297 48.5864" fill="#B5641E"/>
<path d="M19.2588 51.8271C19.2644 51.6174 19.2707 51.4069 19.2763 51.1956L19.4637 51.7809L19.2588 51.8271Z" fill="#A87E5F"/>
<path d="M17.2275 52.2959V51.465L19.0999 50.67L19.2753 51.1955C19.2697 51.4068 19.2634 51.6173 19.2578 51.827L17.2275 52.2959" fill="#B5641E"/>
<path d="M27.5385 55.4785C27.0657 55.1811 26.5848 54.8828 26.1048 54.5902C26.0059 53.6707 25.9349 52.7465 25.9062 51.8271L27.9014 52.2904V54.327C27.9014 54.76 27.7666 55.1579 27.5385 55.4785ZM27.9014 51.4539L26.0585 50.67L25.8887 51.1955C25.8831 50.9324 25.8799 50.6692 25.8799 50.4061C25.8799 49.6158 25.9046 48.8264 25.9532 48.0369L26.1343 48.5863L27.9014 47.867V51.4539V51.4539ZM26.0003 47.4165C26.041 46.8424 26.0992 46.2754 26.1701 45.702C26.907 45.8065 27.5154 46.3041 27.773 46.9835L26.0003 47.4165Z" fill="#DB8318"/>
<path d="M25.9523 48.0371L25.7705 47.4749L25.9994 47.4167C25.9754 47.6208 25.9643 47.8258 25.9523 48.0371Z" fill="#A87E5F"/>
<path d="M26.1341 48.5864L25.9531 48.037C25.9651 47.8257 25.9763 47.6207 26.0002 47.4166L27.7729 46.9836C27.8542 47.2005 27.9012 47.4389 27.9012 47.6917V47.8671L26.1341 48.5864" fill="#B5641E"/>
<path d="M25.9058 51.8271L25.6953 51.7809L25.8883 51.1956C25.8883 51.4069 25.8947 51.6174 25.9058 51.8271Z" fill="#A87E5F"/>
<path d="M27.9024 52.29L25.9072 51.8267C25.896 51.617 25.8896 51.4065 25.8896 51.1952L26.0595 50.6697L27.9024 51.4535V52.29" fill="#B5641E"/>
<path d="M25.4542 54.9644H19.6768C18.7072 54.9644 17.9209 54.1789 17.9209 53.2092V47.4311C17.9209 46.4606 18.7072 45.6759 19.6768 45.6759H25.4542C26.4239 45.6759 27.2093 46.4606 27.2093 47.4311V53.2092C27.2093 54.1789 26.4239 54.9644 25.4542 54.9644Z" fill="#FBC34C"/>
<path d="M25.3744 47.9581C25.3744 48.4948 24.9398 48.9302 24.4016 48.9302C23.8649 48.9302 23.4287 48.4948 23.4287 47.9581C23.4287 47.4191 23.8649 46.9845 24.4016 46.9845C24.9398 46.9845 25.3744 47.4191 25.3744 47.9581Z" fill="#03A2AD"/>
<path d="M24.4026 52.6941C24.4026 53.2316 23.9664 53.667 23.4289 53.667C22.8915 53.667 22.4561 53.2316 22.4561 52.6941C22.4561 52.1558 22.8915 51.7205 23.4289 51.7205C23.9664 51.7205 24.4026 52.1558 24.4026 52.6941Z" fill="#03A2AD"/>
<path d="M21.1606 49.698C21.1606 50.2355 20.7252 50.6709 20.1877 50.6709C19.6502 50.6709 19.2148 50.2355 19.2148 49.698C19.2148 49.1614 19.6502 48.726 20.1877 48.726C20.7252 48.726 21.1606 49.1614 21.1606 49.698Z" fill="#03A2AD"/>
</svg>
