<svg viewBox="0 0 103 114" fill="none" xmlns="http://www.w3.org/2000/svg">
<path d="M101.874 92.7025C101.874 104.146 92.5936 113.427 81.1469 113.427H21.7312C10.2806 113.427 1 104.146 1 92.7025V33.2788C1 21.8353 10.2806 12.5547 21.7312 12.5547H81.1469C92.5936 12.5547 101.874 21.8353 101.874 33.2788V92.7025Z" fill="#EFE7D5"/>
<path d="M101.874 92.7025C101.874 104.146 92.5936 113.427 81.147 113.427H21.7312C10.2806 113.427 1 104.146 1 92.7025V33.2788C1 21.8353 10.2806 12.5547 21.7312 12.5547H81.147C92.5936 12.5547 101.874 21.8353 101.874 33.2788V92.7025Z" stroke="#52423B" stroke-width="1.03738" stroke-miterlimit="10" stroke-linecap="round" stroke-linejoin="round"/>
<path d="M101.874 51.7166V33.2788C101.874 21.8354 92.5936 12.5548 81.1469 12.5548H21.7312C10.2806 12.5548 1 21.8354 1 33.2788V51.7166H101.874Z" fill="#EF3451"/>
<path d="M101.874 51.7166V33.2788C101.874 21.8354 92.5936 12.5548 81.147 12.5548H21.7312C10.2806 12.5548 1 21.8354 1 33.2788V51.7166H101.874Z" stroke="#52423B" stroke-width="1.03738" stroke-miterlimit="10" stroke-linecap="round" stroke-linejoin="round"/>
<path d="M48.3615 95.5065C47.3478 94.7218 45.9322 94.3235 44.1601 94.3235H31.9671C33.0266 93.1166 34.8488 91.4557 37.402 89.3725C40.2455 87.0504 42.3111 85.3058 43.5646 84.1905C44.8683 83.0115 46.1524 81.3904 47.3828 79.363C48.671 77.232 49.3246 74.8422 49.3246 72.2492C49.3246 70.5883 49.0115 68.9592 48.3925 67.4137C47.7696 65.8683 46.8913 64.4862 45.7693 63.3111C44.6552 62.1282 43.3404 61.1842 41.8471 60.5031C39.6381 59.5192 36.9535 59.0214 33.8742 59.0214C31.3095 59.0214 29.0192 59.4117 27.0734 60.1844C25.1237 60.9571 23.4795 62.0007 22.1914 63.2793C20.9032 64.5579 19.9166 66.0037 19.263 67.589C18.6094 69.1703 18.2804 70.7197 18.2804 72.1934C18.2804 73.6353 18.7249 74.8103 19.6071 75.6906C20.4894 76.5708 21.5995 77.021 22.9071 77.021C24.764 77.021 25.8275 76.2004 26.3923 75.5074C27.0579 74.6948 27.6267 73.6035 28.1254 72.1775C28.6981 70.5445 28.9029 70.19 28.9379 70.1262C30.1137 68.3259 31.6731 67.4496 33.7037 67.4496C34.6708 67.4496 35.5335 67.6567 36.3421 68.0869C37.1351 68.5091 37.7386 69.0866 38.199 69.8434C38.6555 70.6002 38.8761 71.4446 38.8761 72.4205C38.8761 73.3446 38.6439 74.3124 38.1835 75.3003C37.7075 76.3359 36.9842 77.3715 36.0557 78.3752C35.085 79.4148 33.8471 80.4703 32.3964 81.498C31.46 82.1313 29.9787 83.378 27.8816 85.3097C25.8355 87.1898 23.5141 89.4761 20.9765 92.1169C20.2647 92.8657 19.6227 93.8854 19.0499 95.136C18.4544 96.4544 18.1641 97.5219 18.1641 98.4022C18.1641 99.8281 18.6982 101.083 19.7541 102.122C20.8025 103.162 22.2336 103.688 24.0172 103.688H44.9802C46.6049 103.688 47.87 103.222 48.7442 102.31C49.6034 101.409 50.0364 100.306 50.0364 99.0315C50.0364 97.5856 49.46 96.3708 48.3615 95.5065Z" fill="#52423B"/>
<path d="M83.5872 82.3466C82.8368 80.5383 81.796 78.953 80.4808 77.6306C79.1695 76.3122 77.6297 75.2647 75.8927 74.5119C72.5855 73.0859 68.7789 72.8907 64.5313 74.5955L65.5255 68.9594H77.9507C79.6686 68.9594 81.0265 68.5452 81.9896 67.7366C83.0069 66.8803 83.541 65.7013 83.541 64.3311C83.541 62.5706 82.7981 59.6191 77.7767 59.6191H62.7325C60.7402 59.6191 59.2278 60.1289 58.2563 61.1287C57.3283 62.0766 56.7284 63.4747 56.4149 65.3866L54.0243 79.0366C53.6917 80.9405 53.6917 81.0481 53.6917 81.1995C53.6917 82.4303 54.1948 83.5296 55.1929 84.4536C56.1596 85.3618 57.3012 85.8238 58.5738 85.8238C59.7345 85.8238 61.0652 85.2463 62.6317 84.0633C63.9008 83.1034 64.8718 82.4302 65.5215 82.0638C65.8039 81.9045 66.5428 81.6376 68.3726 81.6376C69.4711 81.6376 70.4422 81.8885 71.3205 82.4063C72.1868 82.9162 72.8679 83.6809 73.4056 84.7524C73.9549 85.8517 74.2333 87.2259 74.2333 88.835C74.2333 90.3287 73.97 91.671 73.4518 92.8181C72.9531 93.9334 72.2645 94.7818 71.3551 95.4071C70.4733 96.0165 69.4556 96.3113 68.2603 96.3113C66.9415 96.3113 65.7768 95.9329 64.7053 95.1562C63.6144 94.3596 62.7206 93.2125 62.0709 91.7666C60.8214 88.8112 58.7829 88.1938 57.2932 88.1938C56.0015 88.1938 54.8679 88.6837 54.0012 89.6157C53.154 90.5319 52.7246 91.5436 52.7246 92.623C52.7246 94.0728 53.2082 95.67 54.2063 97.5102C55.2005 99.3385 56.8794 100.96 59.1967 102.334C61.5101 103.704 64.5193 104.397 68.1483 104.397C71.4053 104.397 74.3301 103.672 76.8522 102.226C79.3862 100.78 81.3515 98.8007 82.6974 96.3312C84.0321 93.8856 84.7092 91.1412 84.7092 88.1778C84.7092 86.1106 84.3336 84.1509 83.5872 82.3466Z" fill="#52423B"/>
<path d="M24.0241 19.8518C24.0241 22.5165 21.8656 24.6714 19.2041 24.6714C16.5426 24.6714 14.3838 22.5165 14.3838 19.8518V5.81943C14.3838 3.15872 16.5426 0.999887 19.2041 0.999887C21.8656 0.999887 24.0241 3.15872 24.0241 5.81943V19.8518Z" fill="#EFE7D5"/>
<path d="M24.0241 19.8518C24.0241 22.5165 21.8656 24.6714 19.2041 24.6714C16.5426 24.6714 14.3838 22.5165 14.3838 19.8518V5.81943C14.3838 3.15872 16.5426 0.999888 19.2041 0.999888C21.8656 0.999888 24.0241 3.15872 24.0241 5.81943V19.8518Z" stroke="#52423B" stroke-width="1.03738" stroke-miterlimit="10" stroke-linecap="round" stroke-linejoin="round"/>
<path d="M40.1409 19.8518C40.1409 22.5165 37.9864 24.6714 35.3209 24.6714C32.6594 24.6714 30.501 22.5165 30.501 19.8518V5.81943C30.501 3.15872 32.6594 0.999887 35.3209 0.999887C37.9864 0.999887 40.1409 3.15872 40.1409 5.81943V19.8518Z" fill="#EFE7D5"/>
<path d="M40.1409 19.8518C40.1409 22.5165 37.9864 24.6714 35.3209 24.6714C32.6594 24.6714 30.501 22.5165 30.501 19.8518V5.81943C30.501 3.15872 32.6594 0.999888 35.3209 0.999888C37.9864 0.999888 40.1409 3.15872 40.1409 5.81943V19.8518Z" stroke="#52423B" stroke-width="1.03738" stroke-miterlimit="10" stroke-linecap="round" stroke-linejoin="round"/>
<path d="M56.2565 19.8518C56.2565 22.5165 54.0976 24.6714 51.4401 24.6714C48.7786 24.6714 46.6162 22.5165 46.6162 19.8518V5.81943C46.6162 3.15872 48.7786 0.999887 51.4401 0.999887C54.0976 0.999887 56.2565 3.15872 56.2565 5.81943V19.8518Z" fill="#EFE7D5"/>
<path d="M56.2565 19.8518C56.2565 22.5165 54.0976 24.6714 51.4401 24.6714C48.7786 24.6714 46.6162 22.5165 46.6162 19.8518V5.81943C46.6162 3.15872 48.7786 0.999888 51.4401 0.999888C54.0976 0.999888 56.2565 3.15872 56.2565 5.81943V19.8518Z" stroke="#52423B" stroke-width="1.03738" stroke-miterlimit="10" stroke-linecap="round" stroke-linejoin="round"/>
<path d="M72.3727 19.8518C72.3727 22.5165 70.2178 24.6714 67.5563 24.6714C64.8909 24.6714 62.7324 22.5165 62.7324 19.8518V5.81943C62.7324 3.15872 64.8909 0.999887 67.5563 0.999887C70.2178 0.999887 72.3727 3.15872 72.3727 5.81943V19.8518Z" fill="#EFE7D5"/>
<path d="M72.3727 19.8518C72.3727 22.5165 70.2178 24.6714 67.5563 24.6714C64.8909 24.6714 62.7324 22.5165 62.7324 19.8518V5.81943C62.7324 3.15872 64.8909 0.999888 67.5563 0.999888C70.2178 0.999888 72.3727 3.15872 72.3727 5.81943V19.8518Z" stroke="#52423B" stroke-width="1.03738" stroke-miterlimit="10" stroke-linecap="round" stroke-linejoin="round"/>
<path d="M88.4885 19.8518C88.4885 22.5165 86.3341 24.6714 83.6686 24.6714C81.0071 24.6714 78.8486 22.5165 78.8486 19.8518V5.81943C78.8486 3.15872 81.0071 0.999887 83.6686 0.999887C86.3341 0.999887 88.4885 3.15872 88.4885 5.81943V19.8518Z" fill="#EFE7D5"/>
<path d="M88.4885 19.8518C88.4885 22.5165 86.3341 24.6714 83.6686 24.6714C81.0071 24.6714 78.8486 22.5165 78.8486 19.8518V5.81943C78.8486 3.15872 81.0071 0.999888 83.6686 0.999888C86.3341 0.999888 88.4885 3.15872 88.4885 5.81943V19.8518Z" stroke="#52423B" stroke-width="1.03738" stroke-miterlimit="10" stroke-linecap="round" stroke-linejoin="round"/>
<path d="M11.2939 43.5552H58.7712" stroke="#52423B" stroke-width="1.03738" stroke-miterlimit="10" stroke-linecap="round" stroke-linejoin="round"/>
</svg>
