<svg width="12" height="15" viewBox="0 0 12 15" fill="none" xmlns="http://www.w3.org/2000/svg">
<path d="M10.8462 1.84615H8.30769V1.38462C8.30769 0.621144 7.68655 0 6.92308 0H5.07692C4.31345 0 3.69231 0.621144 3.69231 1.38462V1.84615H1.15385C0.517615 1.84615 0 2.36377 0 3V4.61538C0 4.87027 0.206654 5.07692 0.461538 5.07692H0.713769L1.11251 13.4505C1.14773 14.19 1.75523 14.7692 2.49554 14.7692H9.50446C10.2448 14.7692 10.8523 14.19 10.8875 13.4505L11.2862 5.07692H11.5385C11.7933 5.07692 12 4.87027 12 4.61538V3C12 2.36377 11.4824 1.84615 10.8462 1.84615ZM4.61538 1.38462C4.61538 1.13013 4.82244 0.923077 5.07692 0.923077H6.92308C7.17756 0.923077 7.38462 1.13013 7.38462 1.38462V1.84615H4.61538V1.38462ZM0.923077 3C0.923077 2.87276 1.02661 2.76923 1.15385 2.76923H10.8462C10.9734 2.76923 11.0769 2.87276 11.0769 3V4.15385C10.9347 4.15385 1.51249 4.15385 0.923077 4.15385V3ZM9.96545 13.4066C9.95371 13.6531 9.75121 13.8462 9.50446 13.8462H2.49554C2.24876 13.8462 2.04626 13.6531 2.03455 13.4066L1.63788 5.07692H10.3621L9.96545 13.4066Z" fill="white"/>
<path d="M5.99987 12.9231C6.25475 12.9231 6.46141 12.7164 6.46141 12.4615V6.46154C6.46141 6.20665 6.25475 6 5.99987 6C5.74498 6 5.53833 6.20665 5.53833 6.46154V12.4615C5.53833 12.7164 5.74496 12.9231 5.99987 12.9231Z" fill="white"/>
<path d="M8.30773 12.9231C8.56261 12.9231 8.76927 12.7164 8.76927 12.4615V6.46154C8.76927 6.20665 8.56261 6 8.30773 6C8.05285 6 7.84619 6.20665 7.84619 6.46154V12.4615C7.84619 12.7164 8.05282 12.9231 8.30773 12.9231Z" fill="white"/>
<path d="M3.69225 12.9231C3.94714 12.9231 4.15379 12.7164 4.15379 12.4615V6.46154C4.15379 6.20665 3.94714 6 3.69225 6C3.43737 6 3.23071 6.20665 3.23071 6.46154V12.4615C3.23071 12.7164 3.43734 12.9231 3.69225 12.9231Z" fill="white"/>
</svg>
