<svg width="24" height="24" viewBox="0 0 24 24" fill="none" xmlns="http://www.w3.org/2000/svg">
<path d="M0.332849 7.89692L0.0121126 10.5764C-0.0952118 11.4727 0.5226 12.2889 1.39225 12.3996L6.25015 13.0174C7.06777 11.7102 8.27432 10.6891 9.7017 10.1235L9.82341 9.10441C9.93073 8.20788 9.31292 7.39185 8.44327 7.28097L2.10154 6.47468C1.23188 6.36388 0.440096 7.00094 0.332849 7.89692Z" fill="white"/>
<path d="M16.5942 1.41213L16.3552 0.507545L14.9173 0.954017L15.1536 1.84704C11.2372 3.07749 8.27334 4.39403 8.39567 4.87303C8.5248 5.37928 12.0584 4.75848 16.3124 3.4861L16.4641 3.77004C16.099 3.94589 15.8431 4.34214 15.8431 4.80407C15.8431 5.29893 16.1375 5.71527 16.545 5.8692V6.24106L14.6656 6.48028C13.7959 6.59108 13.1782 7.40734 13.2854 8.30363L13.4576 9.74213C14.6031 9.94373 15.6537 10.4259 16.545 11.1195V11.3791V11.6482C15.6865 10.9146 14.648 10.3996 13.5097 10.1774C13.1029 10.0979 12.6836 10.0519 12.2545 10.0519C11.33 10.0519 10.4485 10.2454 9.64575 10.5947C8.44902 11.1154 7.42882 11.9834 6.70191 13.0745C5.95852 14.1911 5.52111 15.54 5.52111 16.9933C5.52111 18.1515 5.80156 19.2425 6.28985 20.2034L6.14155 20.3772L5.99966 20.5431L4.5466 22.2454C4.17267 22.6833 4.21365 23.3511 4.63931 23.7366C4.83409 23.9134 5.07518 24 5.31581 24C5.5999 24 5.88313 23.8787 6.0858 23.6409L7.2683 22.2561L7.40145 22.1L7.53877 21.939C8.75499 23.1715 10.4195 23.9343 12.2554 23.9343C14.0595 23.9343 15.6963 23.1951 16.9066 21.9997L17.0439 22.1607L17.1773 22.3167L18.3076 23.6408C18.5102 23.8785 18.7937 23.9999 19.0775 23.9999C19.3182 23.9999 19.56 23.9133 19.7542 23.7365C20.1794 23.3511 20.2206 22.6832 19.8467 22.2453L18.4626 20.6239L18.3228 20.46L18.1791 20.2912C18.6956 19.3093 18.9891 18.1861 18.9891 16.9928C18.9891 15.3776 18.4466 13.8933 17.5461 12.7125V12.3699V12.1281V12.0612C17.5638 12.0811 17.5813 12.1011 17.599 12.1212L21.7181 11.5971C22.5878 11.4864 23.2056 10.6702 23.0983 9.7737L22.7777 7.09447C22.6703 6.19794 21.8783 5.56103 21.0088 5.67167L17.5462 6.11209V5.67271C17.7784 5.46513 17.9294 5.15449 17.9294 4.8024C17.9294 4.39148 17.7255 4.03484 17.4241 3.83652L17.107 3.2417C21.0876 1.99969 24.1206 0.659637 23.9968 0.175301C23.8713 -0.308636 20.6146 0.243456 16.5942 1.41213Z" fill="white"/>
</svg>
