<svg viewBox="0 0 92 34" fill="none" xmlns="http://www.w3.org/2000/svg">
<path d="M26.084 17.2957C26.0862 17.2925 26.0885 17.2893 26.0912 17.2857C26.0885 17.2893 26.0862 17.2925 26.084 17.2957Z" fill="#FDE0CF"/>
<path d="M6.34571 32.6785C6.34571 32.6785 1.55113 28.9295 0.275474 16.7298C-0.998422 4.52952 2.55923 2.13134 2.55923 2.13134L20.4701 0.00604248L22.8893 31.7637L6.34571 32.6785Z" fill="#830030"/>
<path d="M5.85264 10.3898C6.08677 8.18583 6.44177 5.94199 7.09193 3.81844C7.35304 2.96702 7.72212 2.19601 8.15575 1.46781L7.04322 1.59924C5.77108 4.29959 5.4554 7.57852 5.68366 10.3898C5.69304 10.4995 5.84091 10.4972 5.85264 10.3898Z" fill="#DD5828"/>
<path d="M13.3766 0.847231C9.21459 7.12283 9.56842 17.5992 12.541 23.5626C12.5856 23.6506 12.7194 23.589 12.6954 23.4981C10.5712 15.5689 10.4703 7.45788 14.7684 0.682343L13.3766 0.847231Z" fill="#DD5828"/>
<path d="M15.8213 31.1738C14.9916 30.0119 14.3138 28.7422 13.6214 27.4976C13.5405 27.3515 13.3386 27.4794 13.4032 27.6249C14.0445 29.0678 14.69 30.5043 15.4903 31.8685C15.5461 31.9642 15.6065 32.0633 15.6669 32.1631L16.5923 32.112C16.3171 31.8069 16.0519 31.4983 15.8213 31.1738Z" fill="#DD5828"/>
<path d="M12.5681 32.3344C9.1096 28.0815 6.84875 23.3514 6.21033 17.5723C6.19566 17.4408 5.99498 17.4338 5.99909 17.5723C6.15517 22.2976 7.50241 28.44 10.8242 32.4307L12.5681 32.3344Z" fill="#DD5828"/>
<path d="M6.3452 32.6785C6.3452 32.6785 4.75209 31.428 3.15723 28.0347C3.80738 28.0893 4.45225 28.1145 5.09477 28.1145C6.12574 28.1145 7.14674 28.0482 8.1601 27.9256C8.85309 29.5756 9.73149 31.1194 10.8235 32.4308L6.3452 32.6785ZM12.5674 32.3346C11.3756 30.8682 10.3253 29.3456 9.43517 27.7425C13.7908 27.0196 18.0156 25.3449 22.2686 23.6256L22.8888 31.7637L16.5915 32.1122C16.3163 31.8071 16.0511 31.4984 15.8205 31.174C14.9908 30.0121 14.3131 28.7424 13.6207 27.4978C13.5954 27.452 13.5585 27.4332 13.5209 27.4332C13.4393 27.4332 13.3578 27.5248 13.4024 27.6251C14.0437 29.068 14.6892 30.5044 15.4895 31.8687C15.5453 31.9644 15.6057 32.0635 15.6662 32.1633L12.5674 32.334" fill="#6B0024"/>
<path d="M15.6671 32.1631C15.6066 32.0633 15.5462 31.9642 15.4904 31.8685C14.6901 30.5043 14.0446 29.0678 13.4033 27.6249C13.3587 27.5246 13.4402 27.4331 13.5218 27.4331C13.5593 27.4331 13.5963 27.4518 13.6216 27.4976C14.314 28.7422 14.9917 30.0119 15.8214 31.1738C16.052 31.4983 16.3172 31.8069 16.5924 32.112L15.6671 32.1631Z" fill="#DD5828"/>
<path d="M10.8245 32.4307C9.73252 31.1192 8.85412 29.5754 8.16113 27.9254C8.58772 27.8738 9.01255 27.8127 9.4362 27.7423C10.3263 29.3454 11.3767 30.8681 12.5684 32.3344L10.8245 32.4307Z" fill="#DD5828"/>
<path d="M20.9163 5.86963L20.4697 0.00595331L20.9163 5.86963Z" fill="#E1B2C0"/>
<path d="M0.0107422 10.9966C0.180321 3.77744 2.5339 2.14853 2.55913 2.13151L7.0427 1.59931C5.97359 3.8678 5.57986 6.54527 5.61742 9.01092C3.72447 9.6241 1.8544 10.2954 0.0107422 10.9966ZM6.03345 8.87713C6.26346 7.16784 6.58971 5.45739 7.09141 3.81851C7.35253 2.9671 7.7216 2.19608 8.15523 1.46789L7.45638 1.5506L13.3764 0.848248C12.1072 2.76173 11.2575 5.06718 10.7746 7.51522C9.18152 7.91775 7.59956 8.37719 6.03345 8.87713ZM11.9939 7.21831C12.5537 4.94454 13.4562 2.75115 14.7682 0.682757L20.47 0.00621414L20.9165 5.86989C17.9163 6.05003 14.936 6.53236 11.9939 7.21831Z" fill="#A80033"/>
<path d="M5.61767 9.01074C5.58011 6.5451 5.97384 3.86762 7.04295 1.59914L7.45664 1.55043L8.15548 1.46771C7.72186 2.19591 7.35278 2.96692 7.09166 3.81834C6.58997 5.45721 6.26372 7.16767 6.0337 8.87695C5.89463 8.92096 5.75615 8.96556 5.61767 9.01074Z" fill="#DD5828"/>
<path d="M10.7754 7.51489C11.2583 5.06685 12.108 2.76139 13.3772 0.84732L14.769 0.682431C13.457 2.75083 12.5545 4.94421 11.9947 7.21798C11.5875 7.31304 11.1814 7.41221 10.7754 7.51489Z" fill="#DD5828"/>
<path d="M27.3188 15.4557C27.9877 24.2251 26.0014 31.5269 22.8892 31.7634C19.7757 31.9999 16.7086 25.0835 16.042 16.3141C15.3725 7.54352 17.3564 0.242823 20.4699 0.00576401C23.5845 -0.231297 26.6504 6.68566 27.3188 15.4557Z" fill="#45001E"/>
<path d="M21.1724 13.9844C21.1724 13.9844 20.5006 17.4879 21.8094 17.0755C24.4879 16.2322 32.4921 12.6864 41.5295 12.6857C50.567 12.685 67.5572 19 67.5572 19L68 16.0591C68 16.0591 49.8489 9.69733 41.4481 10.0112C30.7219 10.4121 21.1724 13.9844 21.1724 13.9844Z" fill="#45001E"/>
<path d="M64.4439 30.4965C64.4439 30.4965 61.3564 23.9814 64.211 12.8044C67.0656 1.62743 72.3594 -2.67029e-05 72.3594 -2.67029e-05L88.5653 4.68808L80.3391 33.4897L64.4439 30.4965Z" fill="#830030"/>
<path d="M69.64 14.9199C69.6511 15.0429 69.8474 15.0906 69.8696 14.9513C70.7468 9.53121 73.6125 4.82939 77.8257 1.58167L76.1793 1.10546C72.0321 4.28843 69.2436 10.3999 69.64 14.9199Z" fill="#DD5828"/>
<path d="M69.7807 29.9096C69.2679 28.0185 69.088 25.7088 69.5407 23.7837C69.5819 23.6078 69.3314 23.4887 69.2411 23.6575C68.2527 25.506 68.2121 27.6653 68.4875 29.7068C68.5516 30.1817 68.6373 30.7416 68.7675 31.3107L70.4008 31.6182C70.166 31.0648 69.941 30.5048 69.7807 29.9096Z" fill="#DD5828"/>
<path d="M74.8414 29.123C73.6136 24.8849 74.4142 19.3707 75.1697 15.1516C75.2064 14.9468 74.9074 14.8566 74.8531 15.0646C73.3375 20.7548 72.287 27.1966 74.7446 32.4361L76.5087 32.769C75.8572 31.6139 75.2253 30.4449 74.8414 29.123Z" fill="#DD5828"/>
<path d="M81.2928 2.58514C79.163 4.23614 77.4963 6.67079 77.1732 9.07796C77.1561 9.19505 77.3138 9.24476 77.353 9.12702C78.3401 6.24692 80.517 4.62927 82.7738 3.01294L81.2928 2.58514Z" fill="#DD5828"/>
<path d="M80.3388 33.4897L70.1895 31.5791L80.3388 33.4897L82.0389 27.5392C82.0389 27.5392 82.0396 27.5385 82.0402 27.5385L80.3388 33.4897Z" fill="#D1B2C0"/>
<path d="M80.34 33.4897L70.1907 31.5791L70.4013 31.6183C70.1665 31.0649 69.9414 30.505 69.7812 29.9097C69.5051 28.8913 69.3253 27.7511 69.2893 26.6149C70.6191 27.0663 72 27.3737 73.4122 27.5641C73.6065 29.2589 74.0251 30.8988 74.746 32.436L76.5101 32.7689C75.8586 31.6137 75.2268 30.4448 74.8428 29.1228C74.708 28.659 74.5981 28.1802 74.5098 27.689C75.4544 27.7773 76.4101 27.8172 77.3723 27.8172C78.9219 27.8172 80.4859 27.7132 82.0401 27.5392L80.34 33.4897ZM68.7673 31.3109L64.4449 30.4965C64.4449 30.4965 63.1778 27.7956 63.0234 22.9093C64.6574 24.4321 66.4798 25.5317 68.4258 26.299C68.2806 27.4228 68.3362 28.5825 68.488 29.707C68.5521 30.1819 68.6378 30.7411 68.7673 31.3109Z" fill="#6B0024"/>
<path d="M70.4008 31.6182L70.1902 31.5789L68.7668 31.3107C68.6373 30.741 68.5516 30.1817 68.4875 29.7068C68.3358 28.5824 68.2802 27.4226 68.4254 26.2988C68.7106 26.4113 68.9984 26.5167 69.2888 26.6148C69.3248 27.751 69.5047 28.8911 69.7807 29.9096C69.941 30.5048 70.166 31.0648 70.4008 31.6182Z" fill="#DD5828"/>
<path d="M76.5091 32.769L74.7449 32.4361C74.0241 30.8989 73.6054 29.259 73.4111 27.5642C73.7748 27.6133 74.1411 27.6551 74.5088 27.6891C74.5971 28.1804 74.707 28.6592 74.8417 29.123C75.2257 30.4449 75.8576 31.6139 76.5091 32.769Z" fill="#DD5828"/>
<path d="M86.495 11.9417C86.495 11.9417 86.495 11.9417 86.4943 11.9417L88.5659 4.68809L86.495 11.9417ZM72.3594 -1.81198e-05C72.3594 -1.81198e-05 72.3594 -1.81198e-05 72.36 -1.81198e-05C72.3594 -1.81198e-05 72.3594 -1.81198e-05 72.3594 -1.81198e-05Z" fill="#E1B2C0"/>
<path d="M86.4939 11.9417C83.7263 10.256 80.7213 9.18911 77.6404 8.39958C78.7229 5.96428 80.7154 4.48792 82.7745 3.01287L88.5655 4.68809L86.4939 11.9417ZM77.3205 8.31847C75.7839 7.9345 74.2291 7.61529 72.6769 7.31962C74.0191 5.11589 75.7604 3.1738 77.8261 1.58166L76.1797 1.10546C74.2252 2.60536 72.5729 4.75546 71.4131 7.08282C69.8079 6.78651 68.2105 6.50262 66.6426 6.18341C69.3323 0.960236 72.3236 0.0111017 72.359 -1.81198e-05C72.359 -1.81198e-05 72.359 -1.81198e-05 72.3596 -1.81198e-05L81.8254 2.73815L81.2943 2.58508C79.3888 4.06274 77.8536 6.16706 77.3205 8.31847Z" fill="#A80033"/>
<path d="M72.6769 7.31958C72.2549 7.23978 71.8343 7.16127 71.4131 7.08278C72.5728 4.75541 74.2252 2.60532 76.1797 1.10541L77.8261 1.58162C75.7604 3.17375 74.0191 5.11584 72.6769 7.31958Z" fill="#DD5828"/>
<path d="M77.6402 8.39966C77.5336 8.37219 77.4269 8.34471 77.3203 8.31855C77.8534 6.16714 79.3886 4.06282 81.2941 2.58515L81.8253 2.73822L82.7744 3.01295C80.7152 4.488 78.7228 5.96436 77.6402 8.39966Z" fill="#DD5828"/>
<path d="M89.5658 20.5501C87.2954 28.5043 83.1632 34.2965 80.3381 33.49C77.5155 32.6834 77.0675 25.5823 79.3379 17.6288C81.6097 9.67466 85.7405 3.88176 88.5644 4.6883C91.3889 5.49548 91.8363 12.596 89.5658 20.5501Z" fill="#45001E"/>
<path d="M83.8967 21.5517C83.376 20.4024 83.5186 17.4223 85.8977 16.9219C88.2741 16.4221 85.2449 24.5358 83.8967 21.5517Z" fill="#830030"/>
</svg>
