<svg width="60" height="42" viewBox="0 0 60 42" fill="none" xmlns="http://www.w3.org/2000/svg">
<path d="M39.8984 19.9698C39.0512 19.9698 38.2039 20.0649 37.3787 20.2552C35.3911 20.7139 33.8005 21.5432 32.4869 23.1319C31.4355 24.4041 30.1868 26.351 29.8917 27.9774C30.5937 24.1088 31.6297 21.0007 31.6342 17.0207C32.0306 18.4772 32.0715 20.0119 32.2942 21.5204C32.4305 21.4843 32.5618 21.4347 32.6906 21.3708C33.4475 17.5038 30.9587 12.4928 30.9212 9.70328C32.0745 9.5185 33.1479 10.4166 33.9802 10.2725C35.2867 10.0471 35.2698 9.33818 36.3637 8.94137C37.822 8.41179 38.6997 8.63076 40.1241 6.83793C39.5425 5.57863 38.2199 5.74806 37.1355 6.19738C36.2299 6.57388 35.4795 6.42279 35.3322 5.23037C35.2728 4.74192 35.434 3.96612 36.125 4.11227C36.7051 4.23661 36.7566 5.12287 36.8365 5.57566C37.3567 5.26901 38.518 4.76669 39.1725 4.97178C39.2339 4.99209 39.2918 5.01735 39.3452 5.04856C39.4661 4.93016 39.5834 4.82019 39.6902 4.733C38.0277 3.54306 36.9383 1.26226 34.1569 -5.31265e-07C31.429 1.25037 27.3016 2.75687 25.9855 4.97673C25.0359 6.57536 24.6725 9.61461 23.9435 11.51C22.596 15.0134 21.1232 18.3093 19.4057 21.5734C17.9734 24.2926 15.2948 29.7385 16.173 32.8575C17.1611 36.3684 22.4837 36.8147 25.3829 37.969C30.0854 39.8406 34.7201 42 39.8984 42C46.0299 42 51 37.0679 51 30.9839C51 24.902 46.0299 19.9698 39.8984 19.9698" fill="white"/>
<path d="M20.6529 28.0607C20.5503 28.8786 20.612 29.6256 20.8952 30.2465C21.1799 30.867 21.643 31.3751 22.1806 31.8023C22.7196 32.2294 23.3271 32.5811 23.9645 32.8883C24.6061 33.1925 25.2702 33.4455 25.9968 33.6687L26 33.8276C25.2513 34.0726 24.4456 34.0351 23.684 33.8489C22.9178 33.6636 22.1816 33.2962 21.5345 32.7588C20.898 32.2228 20.3209 31.4824 20.0973 30.5664C19.8651 29.6524 20.0652 28.6802 20.5195 28L20.6529 28.0607" fill="#3E4346"/>
<path d="M9.00025 17L10.4144 19.5854L13 21L10.4144 22.4141L9.00025 25L7.58559 22.4141L5 21L7.58559 19.5854L9.00025 17Z" fill="white"/>
<path d="M57.0003 27L58.0606 28.6157L60 29.4998L58.0606 30.3838L57.0003 32L55.9394 30.3838L54 29.4998L55.9394 28.6157L57.0003 27Z" fill="white"/>
<path d="M2.49978 30L3.38384 31.6162L5 32.5002L3.38384 33.3838L2.49978 35L1.61616 33.3838L0 32.5002L1.61616 31.6162L2.49978 30Z" fill="white"/>
<path d="M54.5 9L56.0908 11.9086L59 13.4995L56.0908 15.0903L54.5 18L52.9092 15.0903L50 13.4995L52.9092 11.9086L54.5 9Z" fill="white"/>
</svg>
