<svg width="24" height="16" viewBox="0 0 24 16" fill="none" xmlns="http://www.w3.org/2000/svg">
<path d="M9.90233 12.1519L13.9259 12.1519C14.6435 12.3148 15.1158 12.6344 15.3282 13.1067L15.3592 13.1809C15.6252 13.878 15.1241 14.6431 14.4249 14.6431L9.88789 14.6431C9.78478 14.6184 9.09597 14.4183 9.09597 13.315C9.09597 12.1972 9.81983 12.1539 9.90233 12.1519Z" fill="#FED891"/>
<path d="M9.07139 9.24609L14.3653 9.24609C15.1923 9.31621 15.5573 9.72867 15.7697 10.2009L15.7986 10.2752C16.0646 10.9722 15.5635 11.7353 14.8664 11.7353L9.05902 11.7353C8.95591 11.7126 8.2671 11.5126 8.2671 10.4092C8.2671 9.29146 8.9889 9.24816 9.07139 9.24609Z" fill="#FED891"/>
<path d="M15.8458 13.746C15.8438 13.482 15.7984 13.1995 15.6747 12.9273C15.5344 12.6138 15.3117 12.3539 15.0085 12.1518C15.0085 12.1518 16.7924 11.9456 16.116 10.0194C16.0005 9.69564 15.751 9.44817 15.4478 9.24606C15.4478 9.24606 16.2934 8.35309 15.7324 7.11365C15.4602 6.51559 14.8601 5.92371 14.0393 5.92784L14.0186 5.92371L12.4224 5.92371C13.3711 5.40195 14.064 4.66571 14.4146 4.24294C14.5383 4.71108 14.8085 5.50507 15.3529 6.29905C16.1036 7.39413 17.5307 8.68306 20.0962 8.68306C20.154 8.68306 20.2117 8.681 20.2715 8.681L20.3334 8.67893C18.0009 8.3469 16.6006 7.41269 15.6705 6.06601C14.891 4.93381 14.7033 3.77068 14.7013 3.7583L14.627 3.27985L14.3569 3.66962C14.3486 3.67994 13.4618 4.94618 12.0801 5.64118C11.2593 6.05364 10.4261 5.77523 10.059 5.30296C9.97861 5.20191 9.80951 4.93794 9.96005 4.70283C10.092 4.4966 10.2941 4.1357 10.5292 3.715C11.0819 2.72509 12.01 1.06701 12.4121 0.864907C13.0081 0.569999 15.9098 0.23797 17.2461 0.710234C17.739 0.885529 21.2676 3.11693 22.6885 3.75212L23.5547 4.14189L23.5547 14.1935C23.1897 14.3667 20.8201 14.9091 19.6136 15.0679C18.2113 15.2535 11.4717 15.0824 10.9149 15.0679L10.8943 15.0597L14.7508 14.9648C15.3612 14.9504 15.852 14.408 15.8458 13.746Z" fill="#FED891"/>
<path d="M8.68762 6.34033L13.9795 6.34033C14.7528 6.34033 15.1715 6.82291 15.3839 7.29517L15.4148 7.36735C15.6809 8.06647 15.1797 8.82952 14.4806 8.82952L8.67318 8.82952C8.57007 8.80684 7.88126 8.60473 7.88126 7.50347C7.88126 6.3857 8.60513 6.34033 8.68762 6.34033Z" fill="#FED891"/>
<path d="M1.65129 2.69022L10.7109 2.59741C10.546 2.88201 10.3748 3.18517 10.1995 3.5007C9.96851 3.91315 9.77053 4.27199 9.64267 4.46585C9.43438 4.79169 9.47975 5.20621 9.76435 5.57124C9.8654 5.70323 9.99532 5.82284 10.1459 5.92389L8.69608 5.92389L1.58942 4.84531L1.58117 4.84531C1.5358 4.84531 0.382976 4.66177 0.451031 3.58525C0.506713 2.66753 1.63891 2.69228 1.65129 2.69022Z" fill="#FED891"/>
<path d="M8.69573 5.86396L9.96816 5.86396C9.87123 5.78559 9.78874 5.70103 9.71656 5.60823C9.41547 5.22052 9.3701 4.78125 9.59489 4.43272C9.71656 4.24093 9.91454 3.88828 10.1476 3.4717C10.3043 3.18916 10.459 2.91694 10.6075 2.65709L1.64887 2.74989L1.64681 2.74989C1.52926 2.74989 0.559981 2.77464 0.510486 3.58925C0.446555 4.61421 1.56019 4.78332 1.58288 4.78744L8.69573 5.86396ZM8.67923 8.77179L14.4805 8.77179C14.7816 8.77179 15.06 8.61918 15.2414 8.3552C15.4374 8.07061 15.4807 7.70971 15.359 7.38799L15.3301 7.31787C15.1404 6.89923 14.7527 6.40015 13.9793 6.40015L8.68748 6.40015C8.61117 6.40015 7.94093 6.44346 7.94093 7.50348C7.94093 8.54494 8.58024 8.74498 8.67923 8.77179ZM9.06488 11.6776L14.8661 11.6776C15.1672 11.6776 15.4456 11.5249 15.6271 11.261C15.823 10.9764 15.8663 10.6155 15.7426 10.2958L15.7137 10.2257C15.5384 9.83593 15.227 9.3781 14.365 9.30592L9.07313 9.30592C8.99682 9.30798 8.32451 9.34923 8.32451 10.4092C8.32451 11.4507 8.96382 11.6528 9.06488 11.6776ZM15.3033 13.2016L15.2744 13.1315C15.0703 12.6798 14.6145 12.3705 13.9175 12.2117L9.90217 12.2117C9.82586 12.2138 9.15562 12.255 9.15562 13.315C9.15562 14.3565 9.79493 14.5586 9.89598 14.5833L14.4248 14.5833C14.7259 14.5833 15.0043 14.4328 15.1858 14.1667C15.3817 13.8842 15.425 13.5212 15.3033 13.2016ZM10.1043 5.26795C10.4569 5.72166 11.2612 5.98769 12.0531 5.58761C13.4184 4.90086 14.301 3.64699 14.3093 3.63462L14.6619 3.12317L14.7609 3.7501C14.763 3.76042 14.9548 4.92149 15.7199 6.031C16.7263 7.49317 18.1967 8.31396 20.3415 8.62124L20.3332 8.73879L20.2714 8.73879C17.5656 8.80478 16.0725 7.45604 15.3033 6.3321C14.8063 5.60617 14.532 4.88024 14.3877 4.36879C14.0536 4.7565 13.4493 5.38138 12.645 5.86396L14.0185 5.86396L14.0453 5.86808L14.0474 5.86808C14.9197 5.86808 15.5281 6.52595 15.7838 7.08896C16.2808 8.17991 15.7055 9.02133 15.5364 9.2358C15.8643 9.46472 16.0705 9.71426 16.1715 10.0009C16.3922 10.6279 16.3798 11.1455 16.1344 11.5394C15.8643 11.9704 15.392 12.1292 15.1548 12.1849C15.4106 12.3808 15.6044 12.6221 15.7302 12.9026C15.8436 13.1562 15.9034 13.4388 15.9055 13.746C15.9117 14.4348 15.3941 15.0082 14.7506 15.0247L13.2905 15.0597C15.5529 15.0989 18.6958 15.1298 19.6053 15.0102C20.7684 14.8556 23.039 14.342 23.4968 14.1544L23.4968 4.18112L22.6636 3.80785C21.8532 3.44488 20.3497 2.5581 19.1412 1.84661C18.2235 1.30629 17.4337 0.84021 17.2254 0.768029C15.9096 0.301951 13.0121 0.633981 12.4388 0.918577C12.0511 1.11037 11.0942 2.82414 10.5786 3.75011C10.3435 4.16669 10.1435 4.52965 10.0094 4.73588C9.87948 4.93799 10.0342 5.17515 10.1043 5.26795ZM0.00522394 3.57894C0.0918399 2.40549 1.17661 2.23432 1.63856 2.21576L10.9209 2.11883C11.5273 1.10212 11.9294 0.580361 12.2243 0.433938C12.8842 0.108096 15.9117 -0.261055 17.3842 0.260705C17.6729 0.361757 18.6092 0.904141 19.6919 1.53314C20.8385 2.1972 22.1398 2.952 22.8307 3.26959L24 3.80785L24 14.4967L23.8577 14.5689C23.7711 14.6122 21.1458 15.3464 19.6671 15.5402C19.2155 15.6 18.2153 15.631 16.6892 15.631C15.0146 15.631 12.9647 15.5897 11.8923 15.567C11.1849 15.5526 10.494 15.4 9.83824 15.1154L9.82999 15.1154C9.81761 15.1133 8.65242 14.903 8.65242 13.315C8.65242 12.8531 8.75347 12.4777 8.95558 12.1973C8.73697 12.1395 7.82131 11.8075 7.82131 10.4092C7.82131 9.86274 7.96361 9.43997 8.23996 9.15125C7.91205 8.95946 7.43773 8.50781 7.43773 7.50348C7.43773 6.98378 7.56559 6.57545 7.81513 6.28879L1.56019 5.32157C1.21991 5.3092 0.724964 5.12978 0.384686 4.75238C0.100089 4.43479 -0.0277727 4.04089 0.00522394 3.57894Z" fill="#E4463B"/>
</svg>
