<svg viewBox="0 0 77 36" fill="none" xmlns="http://www.w3.org/2000/svg">
<path d="M71.5721 19.8262H49.6418V30.0584H71.5721V19.8262Z" fill="#DF781B"/>
<path d="M71.5721 27.1938H49.6418V30.059H71.5721V27.1938Z" fill="#C15C08"/>
<path d="M71.5721 19.8262H49.6418V22.5747H71.5721V19.8262Z" fill="#C15C08"/>
<path d="M53.8143 19.8262H49.6418V30.0584H53.8143V19.8262Z" fill="#C15C08"/>
<path d="M73.7905 16.981V19.6589C73.7905 20.1675 73.3783 20.5797 72.8698 20.5797H47.4247V16.0603H72.8696C73.3782 16.0603 73.7905 16.4725 73.7905 16.981Z" fill="#FFE6CA"/>
<path d="M53.8153 16.0603H47.4252V20.5797H53.8153V16.0603Z" fill="#FFCE94"/>
<path d="M26.1689 13.8542H4.23856V30.0599H26.1689V13.8542Z" fill="#BCCED5"/>
<path d="M26.1689 27.1938H4.23856V30.059H26.1689V27.1938Z" fill="#99A9AD"/>
<path d="M26.1689 13.8542H4.23856V16.6011H26.1689V13.8542Z" fill="#99A9AD"/>
<path d="M26.1698 13.8542H21.9973V30.0599H26.1698V13.8542Z" fill="#99A9AD"/>
<path d="M28.3866 10.0876V14.6055H2.9417C2.43315 14.6055 2.02097 14.1934 2.02097 13.6848V11.0085C2.02097 10.5 2.43315 10.0878 2.9417 10.0878H28.3866V10.0876Z" fill="#DEF2FC"/>
<path d="M28.3874 10.0886H21.9973V14.6067H28.3874V10.0886Z" fill="#CFE1E5"/>
<path d="M51.8199 3.76514H23.9921V30.0586H51.8199V3.76514Z" fill="#FCB043"/>
<path d="M51.8199 27.1938H23.9921V30.0588H51.8199V27.1938Z" fill="#DF781B"/>
<path d="M51.8199 3.76514H23.9921V6.51365H51.8199V3.76514Z" fill="#DF781B"/>
<path d="M53.1158 4.5182H22.6954C22.1868 4.5182 21.7746 4.10602 21.7746 3.59746V0.92074C21.7746 0.41218 22.1868 0 22.6954 0H53.1158C53.6244 0 54.0365 0.41218 54.0365 0.92074V3.59746C54.0365 4.10602 53.6242 4.5182 53.1158 4.5182Z" fill="#FFCE94"/>
<path d="M74.2471 32.6648H2.02161V30.1092C2.02161 29.6007 2.43379 29.1885 2.94235 29.1885H73.3265C73.8351 29.1885 74.2473 29.6007 74.2473 30.1092L74.2471 32.6648Z" fill="#FFCE94"/>
<path d="M75.3482 35.7029H0.920739C0.41218 35.7029 0 35.2907 0 34.7822V33.1473C0 32.6387 0.41218 32.2266 0.920739 32.2266H75.3482C75.8568 32.2266 76.2689 32.6387 76.2689 33.1473V34.7822C76.2689 35.2907 75.8568 35.7029 75.3482 35.7029Z" fill="#FCB043"/>
<path d="M39.9153 20.8056H39.3044V12.1429C39.3044 11.6774 39.024 11.2576 38.5938 11.0796C38.1638 10.9015 37.6688 10.9998 37.3396 11.3291L35.6287 13.0401C35.1791 13.4895 35.1791 14.2183 35.6287 14.6678C36.0008 15.04 36.5645 15.1039 37.0025 14.8599V20.8056H36.3531C35.7175 20.8056 35.2022 21.3208 35.2022 21.9564C35.2022 22.5921 35.7175 23.1073 36.3531 23.1073H39.9151C40.5507 23.1073 41.066 22.5921 41.066 21.9564C41.066 21.3208 40.5509 20.8056 39.9153 20.8056Z" fill="#DD5828"/>
</svg>
