<svg viewBox="0 0 15 18" fill="none" xmlns="http://www.w3.org/2000/svg">
<path d="M13.2562 3.12964C11.882 1.14086 9.70422 0 7.28157 0C4.85892 0 2.68109 1.14086 1.30694 3.12964C-0.0604632 5.10838 -0.376201 7.61351 0.460658 9.82677C0.684498 10.4312 1.04031 11.0184 1.5157 11.5687L6.80242 17.7784C6.92199 17.919 7.09717 18 7.28157 18C7.46596 18 7.64115 17.919 7.76071 17.7784L13.046 11.5703C13.5235 11.0169 13.8788 10.4303 14.1008 9.83078C14.9393 7.61351 14.6236 5.10838 13.2562 3.12964ZM12.9222 9.38999C12.751 9.85257 12.4716 10.3099 12.0921 10.7498C12.091 10.7509 12.09 10.7519 12.0891 10.7532L7.28157 16.3999L2.47107 10.7497C2.09177 10.3101 1.81231 9.85282 1.63945 9.3858C0.947361 7.55539 1.21001 5.48413 2.34226 3.84546C3.47805 2.20155 5.27847 1.25873 7.28157 1.25873C9.28463 1.25873 11.0848 2.20152 12.2207 3.84546C13.3531 5.48413 13.616 7.55539 12.9222 9.38999Z" fill="white"/>
<path d="M7.28132 3.73438C5.33802 3.73438 3.75684 5.31535 3.75684 7.25886C3.75684 9.20237 5.33781 10.7833 7.28132 10.7833C9.22483 10.7833 10.8058 9.20237 10.8058 7.25886C10.8058 5.31556 9.22462 3.73438 7.28132 3.73438ZM7.28132 9.52457C6.03201 9.52457 5.01557 8.50814 5.01557 7.25882C5.01557 6.00951 6.03201 4.99307 7.28132 4.99307C8.53063 4.99307 9.54707 6.00951 9.54707 7.25882C9.54707 8.50814 8.53063 9.52457 7.28132 9.52457Z" fill="white"/>
</svg>
