<svg width="21" height="21" viewBox="0 0 21 21" fill="none" xmlns="http://www.w3.org/2000/svg">
<path d="M10.4998 0C6.51894 0 3.28101 3.23794 3.28101 7.21875C3.28101 11.1996 6.51894 14.4375 10.4998 14.4375C14.4793 14.4375 17.7185 11.1996 17.7185 7.21875C17.7185 3.23794 14.4793 0 10.4998 0ZM14.2942 6.19763L13.0473 7.7595L13.1838 9.80044C13.1996 10.0275 13.0959 10.2467 12.9082 10.3792C12.794 10.4593 12.6614 10.5 12.5276 10.5C12.4409 10.5 12.353 10.4829 12.2716 10.4475L10.4998 9.69544L8.72919 10.4475C8.51919 10.5367 8.27769 10.5118 8.09263 10.3792C7.90626 10.2467 7.80257 10.0275 7.81701 9.80044L7.95351 7.7595L6.70663 6.19763C6.56751 6.02437 6.52682 5.79206 6.59638 5.58075C6.66594 5.36944 6.83788 5.20931 7.05313 5.15287L8.91426 4.66594L9.93538 2.94656C10.1716 2.54756 10.8279 2.54756 11.0628 2.94656L12.0839 4.66594L13.9464 5.15287C14.1603 5.20931 14.3323 5.37075 14.4031 5.58075C14.474 5.79075 14.432 6.02306 14.2942 6.19763Z" fill="#888888"/>
<path d="M3.1167 11.4752L0.0874521 16.7344C-0.0451104 16.9654 -0.0254229 17.2528 0.136015 17.4628C0.297452 17.6728 0.56914 17.7673 0.82639 17.6964L4.67989 16.6609L5.70495 20.5144C5.7732 20.7703 5.98976 20.9606 6.25226 20.9961C6.28114 20.9987 6.31133 21 6.33889 21C6.5712 21 6.78908 20.8766 6.9072 20.6719L9.77239 15.7133C6.92558 15.4718 4.47908 13.8272 3.1167 11.4752Z" fill="#888888"/>
<path d="M20.9128 16.7344L17.8822 11.4752C16.5212 13.8272 14.0734 15.4718 11.2266 15.7133L14.0917 20.6719C14.2099 20.8766 14.4277 21 14.6601 21C14.6876 21 14.7178 20.9987 14.7454 20.9948C15.0092 20.9593 15.2244 20.769 15.294 20.5131L16.3191 16.6596L20.1726 17.6951C20.4298 17.766 20.7002 17.6715 20.8629 17.4615C21.0257 17.2528 21.0441 16.9654 20.9128 16.7344Z" fill="#888888"/>
</svg>
