<svg viewBox="0 0 18 18" fill="none" xmlns="http://www.w3.org/2000/svg">
<path d="M17.4818 13.4533L14.8802 10.8506C14.5308 10.503 14.063 10.3115 13.563 10.3115C13.0427 10.3115 12.5515 10.5163 12.1801 10.888L11.1674 11.9005C10.3805 11.4631 9.33456 10.8615 8.24866 9.77558C7.16404 8.69058 6.56237 7.64772 6.12274 6.85655L7.13641 5.84363C7.89005 5.08843 7.90546 3.87684 7.17089 3.14294L4.56982 0.541793C4.22141 0.192412 3.75355 0 3.25234 0C2.74369 0 2.26251 0.195838 1.89324 0.552292C1.66986 0.732195 0.548815 1.72181 0.131003 3.76269C-0.453978 6.61932 0.890079 9.36782 4.7702 13.2495C9.10462 17.5826 12.8049 17.9194 13.8358 17.9194C14.0504 17.9194 14.1799 17.9061 14.2144 17.9021C16.2359 17.6652 16.9596 16.7674 17.4881 16.1119C18.1729 15.2624 18.1705 14.1445 17.4818 13.4533ZM16.6185 15.4109C16.1218 16.027 15.6527 16.6088 14.0845 16.7927C14.0837 16.7928 13.9979 16.8024 13.8358 16.8024C12.9135 16.8024 9.59078 16.4892 5.56003 12.4597C1.98186 8.88001 0.725963 6.42519 1.22524 3.98668C1.58966 2.20656 2.55716 1.44994 2.59476 1.4212L2.62812 1.39655L2.65738 1.36722C2.81889 1.20585 3.03015 1.11695 3.25227 1.11695C3.45451 1.11695 3.64156 1.19275 3.77947 1.3311L6.38113 3.93284C6.68047 4.23188 6.66454 4.7351 6.34606 5.05425L5.1997 6.19964L5.18086 6.21937C4.88212 6.54843 4.91726 6.99312 5.08183 7.28271C5.55668 8.13963 6.20711 9.31324 7.45869 10.5652C8.70609 11.8126 9.87799 12.4625 10.7325 12.9365C10.8181 12.9845 10.9947 13.0651 11.2158 13.0651C11.4769 13.0651 11.7166 12.9546 11.894 12.7531L12.9698 11.6776C13.1305 11.5169 13.341 11.4284 13.5629 11.4284C13.7656 11.4284 13.9536 11.5044 14.0912 11.6413L16.6911 14.2422C17.0213 14.5737 16.885 15.0804 16.6185 15.4109Z" fill="white"/>
<path d="M10.9048 2.73687C11.8644 2.8473 12.9943 3.42856 13.7833 4.21764C14.5797 5.01402 15.1624 6.15539 15.2676 7.12542C15.2987 7.41158 15.5407 7.62365 15.8221 7.62365C15.8422 7.62365 15.8626 7.62254 15.883 7.62038C16.1897 7.58709 16.4113 7.31158 16.378 7.00494C16.2449 5.77876 15.5533 4.40812 14.5732 3.42789C13.6022 2.45681 12.2455 1.76691 11.0325 1.6273C10.7262 1.59178 10.4492 1.81189 10.4139 2.11823C10.3786 2.42457 10.5983 2.70157 10.9048 2.73687Z" fill="white"/>
<path d="M10.3834 5.07584C10.9024 5.13563 11.6207 5.52061 12.0912 5.99114C12.5657 6.46577 12.9515 7.19089 13.0083 7.71548C13.0393 8.00171 13.2813 8.21378 13.5628 8.21378C13.5829 8.21378 13.6032 8.21267 13.6236 8.21051C13.9303 8.17722 14.152 7.90171 14.1187 7.59507C14.0216 6.69943 13.427 5.74742 12.8809 5.20131C12.3397 4.66004 11.397 4.06828 10.5111 3.96619C10.2044 3.93052 9.92767 4.15071 9.89238 4.45705C9.85716 4.76347 10.077 5.04054 10.3834 5.07584Z" fill="white"/>
</svg>
