<svg viewBox="0 0 295 317" fill="none" xmlns="http://www.w3.org/2000/svg">
<path fill-rule="evenodd" clip-rule="evenodd" d="M263.492 303.1C280.488 303.1 294.35 300.446 294.35 297.192C294.35 293.937 280.488 291.282 263.492 291.282C246.496 291.282 232.634 293.937 232.634 297.192C232.634 300.446 246.496 303.1 263.492 303.1Z" fill="#C8BE86"/>
<path fill-rule="evenodd" clip-rule="evenodd" d="M276.143 266.617C276.143 266.617 290.15 258.803 291.425 258.734C292.003 258.703 292.619 259.397 293.118 260.164C293.718 261.086 294.15 262.114 294.15 262.114L281.387 272.475C281.387 272.475 291.285 283.266 280.439 294.779C269.594 306.292 249.365 299.653 245.627 287.625C239.364 267.474 264.068 253.187 276.143 266.617Z" fill="#A8554B"/>
<path fill-rule="evenodd" clip-rule="evenodd" d="M254.344 281.048C254.344 281.048 267.097 285.203 271.969 282.051C276.841 278.898 277.701 272.88 277.701 272.88C277.701 272.88 286.312 279.291 281.139 288.786C275.967 298.28 267.957 298.386 264.374 298.386C260.792 298.386 251.431 292.891 251.431 292.891L254.344 281.048" fill="#95463E"/>
<path fill-rule="evenodd" clip-rule="evenodd" d="M66.6308 304.812C103.33 304.812 133.262 303.015 133.262 300.811C133.262 298.607 103.33 296.81 66.6308 296.81C29.9319 296.81 0 298.607 0 300.811C0 303.015 29.9319 304.812 66.6308 304.812" fill="#C8BE86"/>
<path fill-rule="evenodd" clip-rule="evenodd" d="M176.822 300.239C127.124 298.335 86.8349 300.384 86.8349 304.816C86.8349 309.247 127.124 314.384 176.822 316.288C226.521 318.193 266.809 316.144 266.809 311.712C266.809 307.281 226.521 302.144 176.822 300.239" fill="#C8BE86"/>
<path fill-rule="evenodd" clip-rule="evenodd" d="M115.196 284.489L117.996 284.512L118.388 286.725L121.626 286.092L120.841 277.452L118.879 277.768L118.388 279.506L115.484 279.32L115.196 284.489ZM65.1133 287.55L65.4131 283.775L70.0681 283.449L95.9768 281.634L95.0893 267.02H100.485L100.583 263.859L109.412 263.437V264.388L109.45 267.124L116.182 266.809L114.514 296.736L96.8553 296.104L96.844 295.916L96.3299 287.454L70.305 287.534L65.1133 287.55V287.55ZM39.2688 282.3L39.3668 289.465L42.1139 289.676L42.4079 288.306L45.2865 287.863L46.5282 297.158L51.1774 297.048L51.7102 297.036L51.7541 297.035L51.8136 297.033L51.8887 297.031L51.9781 297.03L52.082 297.027L52.1994 297.024L52.3301 297.021L52.4736 297.017L52.6291 297.014L52.796 297.01L52.9741 297.006L53.1627 297.001L53.3614 296.996L53.5695 296.992L53.7865 296.987L54.0116 296.981L54.245 296.976L54.4857 296.97L54.7334 296.964L54.987 296.958L55.2468 296.953L55.5116 296.946L55.7811 296.94L56.0549 296.933L56.3322 296.926L56.6129 296.92L56.896 296.913L57.1815 296.907L57.4677 296.9L57.7555 296.893L58.044 296.886L58.0538 296.886L58.3322 296.879L58.5951 296.873L58.5908 297.327L64.3829 296.737L65.1133 287.55L66.292 272.72L66.4433 270.814L58.4567 271.128L58.5947 267.231L48.7846 267.969L48.883 272.395L43.2907 272.921L44.7506 283.852L42.6043 283.88L42.0156 281.035L39.2688 282.3" fill="#A8554B"/>
<path fill-rule="evenodd" clip-rule="evenodd" d="M102.989 304.418L110.727 269.742H209.311L218.769 303.272C218.769 303.272 176.927 322.473 102.989 304.418" fill="#799628"/>
<path fill-rule="evenodd" clip-rule="evenodd" d="M183.747 282.076C183.747 282.076 186.214 298.022 186.653 301.671C187.093 305.32 187.093 305.32 187.093 305.32C187.093 305.32 200.963 303.395 207.032 301.65C213.101 299.905 217.39 298.384 217.39 298.384L211.304 276.808C211.304 276.808 196.397 281.754 183.747 282.076" fill="#6D8728"/>
<path fill-rule="evenodd" clip-rule="evenodd" d="M160.019 276.333C187.168 276.333 209.311 273.373 209.311 269.742C209.311 266.111 187.168 263.151 160.019 263.151C132.87 263.151 110.727 266.111 110.727 269.742C110.727 273.373 132.87 276.333 160.019 276.333Z" fill="#F9EF6E"/>
<path fill-rule="evenodd" clip-rule="evenodd" d="M198.44 273.872L170.761 273.051L178.702 269.742L126.383 269.402L144.742 265.204L204.029 266.77C204.029 266.77 219.791 270.146 198.44 273.872" fill="#D8CE4E"/>
<path fill-rule="evenodd" clip-rule="evenodd" d="M134.342 31.7238C134.342 31.7238 98.2148 36.3858 97.8399 39.1212C97.4654 41.8563 99.3107 44.4949 99.3107 44.4949L136.873 36.4153C136.873 36.4153 141.296 52.7833 160.797 52.1782C180.297 51.5731 189.205 23.4995 179.495 10.5759C169.784 -2.34689 151.732 -2.54716 143.42 5.2318C135.108 13.0104 133.808 25.0477 134.342 31.7238" fill="#84332A"/>
<path fill-rule="evenodd" clip-rule="evenodd" d="M161.802 51.5236C173.503 51.5236 183.047 41.841 183.047 29.9697C183.047 18.0985 173.503 8.41588 161.802 8.41588C150.1 8.41588 140.556 18.0985 140.556 29.9697C140.556 41.841 150.1 51.5236 161.802 51.5236" fill="#702E27"/>
<path fill-rule="evenodd" clip-rule="evenodd" d="M103.749 49.3505C103.749 49.3505 85.2549 48.8251 99.4431 62.0439C113.631 75.2631 109.784 82.846 109.784 82.846C120.699 72.0014 129.38 80.3237 129.84 88.2812C129.84 88.2812 138.229 73.8008 148.918 76.9792C159.607 80.1576 159.937 109.688 159.937 109.688C159.937 109.688 145.915 111.679 134.144 111.186C122.373 110.693 105.478 105.78 105.478 105.78C105.478 105.78 99.4252 109.281 96.4001 104.214C93.3749 99.1475 93.8583 96.2651 93.8583 96.2651C93.8583 96.2651 75.5801 89.3801 72.8512 75.4159C70.122 61.4516 76.5219 41.5393 77.7396 39.2075C78.8172 37.1441 79.9391 34.3219 82.1554 33.6934C83.8607 33.2104 83.7413 33.7362 85.9284 32.8593C88.1155 31.9823 88.751 34.0209 91.8936 33.1035C95.0362 32.1857 97.6531 34.7248 98.6972 33.4547C99.0476 33.0288 103.915 34.2056 104.842 34.8562C107.187 36.5036 106.251 40.5017 106.444 42.0728C106.636 43.6436 103.749 49.3505 103.749 49.3505" fill="#F68C3F"/>
<path fill-rule="evenodd" clip-rule="evenodd" d="M108.307 90.2535C108.307 90.2535 109.883 95.2687 116.618 96.8448C123.353 98.421 126.362 94.8385 126.362 94.8385L134.303 94.5889L128.784 110.723L105.478 105.78C105.478 105.78 99.5798 104.664 97.99 104.439C96.3998 104.214 93.858 96.265 93.858 96.265L95.3113 94.7596L108.307 90.2535" fill="#F46D34"/>
<path fill-rule="evenodd" clip-rule="evenodd" d="M83.8485 45.3244C83.8485 45.3244 85.6394 48.9065 86.9289 49.4082C88.2189 49.9098 89.5084 48.8349 90.6549 49.3362C91.8013 49.8379 93.1624 50.053 93.8788 49.9814C94.5955 49.9098 98.4381 48.3924 98.6073 49.1215C98.7764 49.8503 102.328 49.3786 102.328 49.3786C102.328 49.3786 92.9637 50.956 94.0911 54.0714C95.2189 57.1864 95.586 57.7499 95.586 57.7499C95.586 57.7499 89.7231 54.925 85.9975 57.6472C82.272 60.3698 79.1196 66.6745 80.8393 74.126C82.5586 81.5771 95.3114 94.7597 95.3114 94.7597L93.8581 96.2651C93.8581 96.2651 74.5556 90.0868 73.8284 70.8578C73.1012 51.6291 77.4478 47.3078 77.4478 47.3078L83.8485 45.3244" fill="#F46D34"/>
<path fill-rule="evenodd" clip-rule="evenodd" d="M182.465 175.882L147.502 175.352C147.502 175.352 147.215 149.273 140.337 134.084C133.459 118.895 129.447 115.17 128.587 109.725C127.727 104.28 137.042 89.6636 140.337 85.2217C143.633 80.7798 148.918 76.9792 148.918 76.9792L189.596 89.4225C200.319 92.7024 193.578 123.169 191.063 130.358C187.05 141.822 184.758 147.553 183.898 153.858C183.038 160.163 182.465 175.882 182.465 175.882" fill="#84332A"/>
<path fill-rule="evenodd" clip-rule="evenodd" d="M228.476 181.202C228.476 181.202 223.431 166.526 221.755 156.79C220.079 147.053 220.692 141.779 220.692 141.779C220.692 141.779 211.951 136.792 210.062 132.543C208.174 128.295 207.851 126.785 207.851 126.785C207.851 126.785 196.94 129.166 189.233 124.938C173.61 116.368 177.8 89.2613 205.149 96.0326C216.585 98.8645 220.629 109.48 220.629 109.48C220.629 109.48 237.593 113.563 239.546 119.131C241.499 124.699 240.451 127.427 240.451 127.427C240.451 127.427 256.988 137.82 256.877 152.048C256.765 166.276 253.261 185.884 251.603 187.926C249.945 189.968 248.57 189.078 247.776 190.323C246.981 191.568 247.943 192.314 246.176 192.448C244.409 192.581 243.059 191.551 242.312 192.513C241.566 193.475 239.859 195.8 237.975 195.768C236.09 195.735 233.638 193.498 232.946 192.871C232.254 192.244 231.576 188.565 230.398 188.655C229.22 188.743 227.759 193.872 225.79 191.79C223.821 189.708 223.76 187.517 223.885 185.94C224.01 184.362 228.476 181.202 228.476 181.202" fill="#F9B047"/>
<path fill-rule="evenodd" clip-rule="evenodd" d="M63.3275 43.2023C63.3275 43.2023 82.2385 41.3457 83.773 41.9193C84.4703 42.1799 84.8374 43.3119 85.0315 44.4704C85.2644 45.8627 85.2453 47.2926 85.2453 47.2926L66.8532 52.3972C66.8532 52.3972 71.0244 70.7057 52.3596 78.6861C33.6941 86.6666 13.3039 68.4789 15.077 52.4116C18.047 25.4938 54.8672 20.3495 63.3275 43.2023" fill="#84332A"/>
<path fill-rule="evenodd" clip-rule="evenodd" d="M182.466 174.247C188.833 178.456 185.21 196.78 187.114 204.039C189.672 213.787 192.429 218.3 191.989 231.031L177.809 234.771L164.474 199.326L150.455 231.242L138.397 231.29C138.397 231.29 137.249 212.875 140.688 204.039C144.127 195.202 146.419 189.901 146.419 189.901L147.502 173.702L182.466 174.247" fill="#84332A"/>
<path fill-rule="evenodd" clip-rule="evenodd" d="M155.063 68.4217C155.063 68.4217 145.892 79.5988 144.459 86.4767C143.026 93.3546 145.032 100.519 152.197 104.245C159.361 107.97 166.526 104.531 173.691 99.9459C180.855 95.3609 183.864 93.7847 186.444 93.3546C189.023 92.9249 191.172 93.4981 191.172 93.4981L185.297 78.3089C185.297 78.3089 184.724 63.1204 183.864 59.3944C183.004 55.6688 182.001 51.7998 182.001 51.7998C182.001 51.7998 183.004 39.0469 182.001 36.6113C180.998 34.1753 170.108 29.733 166.956 29.5899C163.803 29.4464 159.361 33.4586 159.218 34.4619C159.075 35.4648 159.505 37.6858 158.931 38.044C158.358 38.4021 156.925 38.4737 157.069 39.5486C157.212 40.6235 157.283 42.8444 158 42.916C158.716 42.9875 160.436 43.0595 160.293 43.4892C160.172 43.8501 158.486 45.1708 157.948 46.603C157.846 46.8764 157.785 47.1537 157.785 47.4298C157.785 49.1491 157.427 50.5106 157.069 51.155C156.71 51.7998 155.063 68.4217 155.063 68.4217" fill="#F9B047"/>
<path fill-rule="evenodd" clip-rule="evenodd" d="M175.579 35.3501L175.798 43.5561L177.423 46.9208C177.423 46.9208 179.33 48.9337 178.803 48.7482C178.276 48.5623 182.425 40.0269 182.425 40.0269C182.425 40.0269 182.359 36.9792 181.112 35.9658C179.865 34.9523 175.865 33.8097 175.579 35.3501Z" fill="#F68C3F"/>
<path fill-rule="evenodd" clip-rule="evenodd" d="M177.414 44.7422L177.63 46.6053C177.63 46.6053 175.427 50.0408 174.71 50.1839C173.994 50.3274 167.904 48.8224 166.757 48.1061C165.611 47.3897 164.241 44.5322 164.241 44.5322L162.189 43.8823L160.5 46.8807L157.948 46.603C157.948 46.603 159.738 44.7348 159.54 44.3607C159.342 43.9865 158.955 43.1465 158.955 43.1465L160.094 42.3384C160.094 42.3384 164.823 44.4882 167.546 44.9895C170.268 45.4912 173.636 43.6999 173.636 43.6999L177.414 44.7422" fill="#F27F32"/>
<path fill-rule="evenodd" clip-rule="evenodd" d="M160.254 43.3373C160.921 43.3373 161.645 44.1889 161.87 45.2393C162.095 46.2897 161.736 47.141 161.07 47.141C160.403 47.141 159.679 46.2897 159.455 45.2393C159.229 44.1889 159.588 43.3373 160.254 43.3373" fill="#792D25"/>
<path fill-rule="evenodd" clip-rule="evenodd" d="M169.85 45.3399C170.517 45.3399 171.24 46.1916 171.465 47.242C171.69 48.2924 171.332 49.1437 170.665 49.1437C169.998 49.1437 169.275 48.2924 169.05 47.242C168.825 46.1916 169.183 45.3399 169.85 45.3399Z" fill="#792D25"/>
<path fill-rule="evenodd" clip-rule="evenodd" d="M182.375 38.9432C182.375 38.9432 180.783 40.7667 180.067 42.9873C179.351 45.2086 177.702 51.012 176.556 52.3016C175.41 53.5911 174.908 53.8777 174.908 53.8777L165.594 53.8062C165.594 53.8062 160.865 56.5288 160.221 56.6719C159.576 56.8154 158.788 56.3138 158.788 56.3138L157.713 52.3731L156.855 52.246C156.855 52.246 156.172 52.9106 156.1 53.3045C156.029 53.6985 153.163 75.1566 153.664 75.9445C154.166 76.7328 156.889 78.6675 157.748 78.8106C158.608 78.9538 170.716 76.8759 174.084 74.4399C177.451 72.0039 177.952 71.1445 178.311 70.1415C178.669 69.1386 181.291 53.4387 181.821 53.3041C182.352 53.1704 180.746 50.8681 180.818 49.4355C180.89 48.0028 182.538 44.0622 183.111 43.6682C183.684 43.2739 182.375 38.9432 182.375 38.9432" fill="#DC4020"/>
<path fill-rule="evenodd" clip-rule="evenodd" d="M156.698 68.127C156.698 68.127 158.059 67.4818 160.495 68.8433C162.931 70.2048 164.221 71.8525 164.221 71.8525C164.221 71.8525 168.52 68.1274 169.451 66.7659C170.382 65.4044 171.17 62.8968 171.17 62.8968C171.17 62.8968 172.639 62.0012 173.177 61.1056C173.714 60.2103 173.606 58.598 173.606 58.598C173.606 58.598 173.069 59.2432 172.102 59.1712C171.135 59.0997 170.848 57.7743 170.49 56.3413C170.132 54.9082 165.594 53.8061 165.594 53.8061L155.916 60.1746C155.916 60.1746 158.238 65.9414 156.698 68.127" fill="#C53822"/>
<path fill-rule="evenodd" clip-rule="evenodd" d="M156.051 58.926C156.051 58.926 153.653 60.8241 154.334 61.8275C156.348 64.7963 164.432 69.8616 166.334 68.5619C168.768 66.8986 171.098 61.684 171.098 61.684L156.051 58.926Z" fill="#F57939"/>
<path fill-rule="evenodd" clip-rule="evenodd" d="M156.331 60.2581C156.331 60.2581 163.397 65.2663 165.976 65.4098C168.555 65.5529 169.989 62.1606 169.989 62.1606L156.331 60.2581Z" fill="#D3CA91"/>
<path fill-rule="evenodd" clip-rule="evenodd" d="M169.846 58.6035C169.846 58.6035 169.774 56.6691 169.201 55.7377C168.627 54.8063 165.594 53.8061 165.594 53.8061L157.713 52.3731C157.713 52.3731 156.125 52.0479 155.624 53.4448C155.122 54.8421 155.23 57.1704 154.298 57.3139C153.367 57.457 152.65 56.4541 152.65 56.4541C152.65 56.4541 152.579 58.8901 153.51 59.5348C154.441 60.1796 169.272 62.5441 170.992 62.114C172.711 61.6842 173.141 59.3917 173.141 59.3917C173.141 59.3917 170.562 60.4662 169.846 58.6035" fill="#F04523"/>
<path fill-rule="evenodd" clip-rule="evenodd" d="M165.331 55.1943C165.331 55.1943 167.623 55.4809 168.125 56.3765C168.627 57.2721 168.77 59.959 169.558 60.4602C170.346 60.9619 171.994 60.496 171.994 60.496C171.994 60.496 171.207 62.234 169.989 62.1605C168.772 62.087 154.172 59.7735 154.172 59.7735C154.172 59.7735 153.259 58.7942 153.133 58.0783C153.008 57.3616 153.026 57.3437 153.026 57.3437C153.026 57.3437 153.366 57.8453 153.903 57.8096C154.441 57.7734 154.727 57.7197 154.906 57.2717C155.085 56.8241 155.748 54.1734 156.321 53.7433C156.894 53.3136 157.809 53.6208 157.809 53.6208L165.331 55.1943" fill="#DC4020"/>
<path fill-rule="evenodd" clip-rule="evenodd" d="M158.272 51.9452C158.262 52.1602 157.713 52.3729 157.713 52.3729C157.713 52.3729 157.556 57.1753 157.914 57.6054C158.272 58.0352 160.995 58.4291 161.425 58.1783C161.855 57.9278 165.594 53.806 165.594 53.806L158.272 51.9452" fill="#C53822"/>
<path fill-rule="evenodd" clip-rule="evenodd" d="M184.985 43.8174C184.985 43.8174 184.66 43.0568 184.225 43.0568C183.79 43.0568 182.504 43.7747 182.504 43.7747C182.504 43.7747 181.053 46.2635 180.698 47.3194C180.342 48.3752 181.22 52.2567 181.22 52.2567C181.22 52.2567 183.356 53.4152 183.971 53.017C184.587 52.6188 185.891 49.4676 185.782 48.5619C185.673 47.6566 185.492 44.7951 184.985 43.8174" fill="#F68C3F"/>
<path fill-rule="evenodd" clip-rule="evenodd" d="M181.512 35.9178C181.512 35.9178 181.714 32.4909 180.639 31.4164C179.564 30.3416 176.627 27.2611 175.409 26.9741C174.191 26.6875 172.83 27.0457 172.83 27.0457C172.83 27.0457 166.668 23.8934 165.235 23.7503C163.802 23.6068 161.295 26.9026 161.295 26.9026L163.659 25.8281C163.659 25.8281 161.796 28.049 161.652 29.1235C161.509 30.1984 161.825 31.6941 161.825 31.6941C161.825 31.6941 165.156 29.5284 167.524 29.6485C169.892 29.7683 180.742 35.2435 181.512 35.9178" fill="#E34722"/>
<path fill-rule="evenodd" clip-rule="evenodd" d="M173.618 44.8137C173.618 44.8137 174.262 46.6053 173.402 46.82C172.543 47.0351 164.949 45.4585 164.447 44.6706C163.945 43.8827 162.835 40.4076 163.981 40.2645C165.127 40.121 169.176 42.7269 169.75 41.8671C170.322 41.0073 169.641 40.2645 170.716 40.336C171.79 40.4076 176.842 43.9543 177.415 44.7422C177.988 45.5304 178.059 46.7842 177.63 46.6053C177.2 46.4261 173.188 43.4168 173.618 44.8137" fill="#E34722"/>
<path fill-rule="evenodd" clip-rule="evenodd" d="M161.545 39.9779C161.545 39.9779 162.763 43.9181 162.19 43.8823C161.617 43.8469 159.442 43.0637 159.442 43.0637C159.442 43.0637 158.106 43.381 157.64 42.9513C157.175 42.5212 156.796 39.3335 157.171 38.98C157.547 38.6265 159.249 37.6655 159.09 37.8545C158.931 38.0439 158.464 39.1538 158.93 39.4046C159.396 39.6551 160.936 39.5478 161.545 39.9779" fill="#E34722"/>
<path fill-rule="evenodd" clip-rule="evenodd" d="M164.232 46.1752C164.232 46.1752 162.512 51.1903 162.87 51.2619C163.229 51.3334 163.945 50.7606 164.447 51.1188C164.948 51.4769 165.594 53.806 165.594 53.806C165.594 53.806 161.079 57.2088 160.47 57.3519C159.861 57.495 158.5 57.4238 158.249 56.9937C157.998 56.564 157.713 52.3729 157.713 52.3729C157.713 52.3729 158.213 50.9037 158.536 50.8322C158.858 50.7606 159.396 50.7964 159.396 50.7964C159.396 50.7964 160.542 46.4614 160.9 45.7451C161.258 45.0288 162.19 43.8823 162.19 43.8823C162.19 43.8823 165.271 43.5961 164.232 46.1752" fill="#F36036"/>
<path fill-rule="evenodd" clip-rule="evenodd" d="M153.887 223.428L138.222 222.677C138.186 225.772 138.266 228.397 138.329 229.908L150.933 230.153L153.887 223.428" fill="#D3CA91"/>
<path fill-rule="evenodd" clip-rule="evenodd" d="M173.903 224.388L176.258 230.646L190.667 230.927L190.926 230.933L191.992 230.953C192.063 228.849 192.046 226.969 191.957 225.254L173.903 224.388" fill="#D3CA91"/>
<path fill-rule="evenodd" clip-rule="evenodd" d="M171.507 218.019L191.224 218.964C190.842 216.918 190.349 215.047 189.793 213.151L169.092 211.602L171.507 218.019" fill="#D3CA91"/>
<path fill-rule="evenodd" clip-rule="evenodd" d="M156.578 217.302L159.401 210.876L139.28 209.369C138.88 211.612 138.622 214.039 138.459 216.433L156.578 217.302" fill="#D3CA91"/>
<path fill-rule="evenodd" clip-rule="evenodd" d="M140.826 203.685L161.934 205.108L164.474 199.326L166.772 205.434L187.896 206.858C187.635 205.963 187.374 205.028 187.114 204.039C186.882 203.154 186.732 202.106 186.636 200.939L143.492 196.966C142.722 198.871 141.823 201.125 140.826 203.685" fill="#D3CA91"/>
<path fill-rule="evenodd" clip-rule="evenodd" d="M145.979 190.935L186.475 194.665C186.481 192.864 186.502 190.99 186.482 189.133L146.715 185.471L146.419 189.9C146.419 189.9 146.266 190.255 145.979 190.935Z" fill="#D3CA91"/>
<path fill-rule="evenodd" clip-rule="evenodd" d="M147.049 180.478L186.297 184.364C186.129 182.166 185.818 180.12 185.257 178.403L163.262 175.591L148.62 173.719L147.502 173.702L147.474 174.122L147.049 180.478" fill="#D3CA91"/>
<path fill-rule="evenodd" clip-rule="evenodd" d="M147.117 167.228L182.637 171.769C182.713 170.084 182.813 168.024 182.934 165.866L146.476 160.209C146.762 162.761 146.968 165.143 147.117 167.228" fill="#D3CA91"/>
<path fill-rule="evenodd" clip-rule="evenodd" d="M145.685 154.195L183.327 159.75C183.497 157.485 183.687 155.412 183.895 153.885L144.384 147.06C144.897 149.438 145.326 151.844 145.685 154.195" fill="#D3CA91"/>
<path fill-rule="evenodd" clip-rule="evenodd" d="M142.688 140.441L185.171 147.78C185.623 146.134 186.17 144.398 186.816 142.473L140.512 134.475C141.328 136.331 142.05 138.341 142.688 140.441Z" fill="#D3CA91"/>
<path fill-rule="evenodd" clip-rule="evenodd" d="M137.561 128.228L188.416 137.854C188.999 136.201 189.637 134.409 190.331 132.438L133.343 120.276C134.539 122.413 135.946 124.98 137.561 128.228" fill="#D3CA91"/>
<path fill-rule="evenodd" clip-rule="evenodd" d="M149.383 117.282L192.226 126.426C192.242 126.364 192.258 126.302 192.274 126.241C191.228 125.899 190.205 125.471 189.233 124.938C186.384 123.375 184.194 121.196 182.683 118.718L156.287 113.085L128.728 107.204C128.535 108.169 128.476 109.023 128.588 109.725C128.768 110.868 129.087 111.935 129.543 113.049L149.383 117.282" fill="#D3CA91"/>
<path fill-rule="evenodd" clip-rule="evenodd" d="M159.806 106.4L180.247 111.303C180.087 109.414 180.255 107.523 180.757 105.732L168.752 102.852C165.757 104.416 162.763 105.537 159.768 105.778C158.87 105.85 157.972 105.843 157.073 105.745L159.806 106.4" fill="#D3CA91"/>
<path fill-rule="evenodd" clip-rule="evenodd" d="M152.197 104.245C148.889 102.525 146.681 100.072 145.403 97.2514L134.303 94.589C133.352 96.2387 132.422 97.9537 131.595 99.6329L153.785 104.956C153.256 104.757 152.726 104.52 152.197 104.245" fill="#D3CA91"/>
<path fill-rule="evenodd" clip-rule="evenodd" d="M183.526 94.26C181.794 95.0063 179.594 96.2437 176.387 98.2411L183.886 100.04C185.519 98.2449 187.7 96.8022 190.443 95.919L183.526 94.26" fill="#D3CA91"/>
<path fill-rule="evenodd" clip-rule="evenodd" d="M144.459 86.4767C144.559 85.9988 144.696 85.5002 144.864 84.9857L141.212 84.1099C140.909 84.4747 140.616 84.8461 140.337 85.2218C139.675 86.1143 138.77 87.417 137.754 88.9738L144.026 90.4784C144.033 89.1519 144.182 87.809 144.459 86.4767" fill="#D3CA91"/>
<path fill-rule="evenodd" clip-rule="evenodd" d="M190.914 230.853C190.914 230.853 192.929 244.509 190.985 250.088C189.042 255.668 187.509 260.934 188.351 262.89C189.193 264.847 187.191 264.975 187.416 266.252C187.64 267.53 189.878 271.121 188.932 272.043C187.985 272.964 170.761 273.051 170.761 273.051C170.761 273.051 171.009 270.164 172.702 269.698C174.396 269.232 175.741 268.931 175.741 268.931C175.741 268.931 179.118 263.332 179.985 262.273C180.85 261.212 182.645 254.422 181.89 249.301C181.134 244.18 176.258 230.646 176.258 230.646L190.914 230.853" fill="#F9B047"/>
<path fill-rule="evenodd" clip-rule="evenodd" d="M150.933 230.153C150.933 230.153 152.093 243.581 150.166 247.149C148.238 250.717 146.222 255.153 146.574 258.433C146.925 261.713 148.557 267.065 147.601 267.844C146.646 268.622 127.036 269.579 125.731 269.374C124.425 269.17 122.099 266.446 123.1 266.382C124.101 266.319 126.301 267.041 127.685 266.235C129.07 265.43 138.425 261.247 138.897 259.637C139.369 258.028 138.329 229.908 138.329 229.908L150.933 230.153Z" fill="#F68C3F"/>
<path fill-rule="evenodd" clip-rule="evenodd" d="M191.957 225.254L185.769 224.957C186.13 227.201 186.451 229.165 186.72 230.794L190.914 230.853C190.914 230.853 190.918 230.88 190.926 230.933L191.992 230.953C192.062 228.849 192.046 226.969 191.957 225.254Z" fill="#BBAF5E"/>
<path fill-rule="evenodd" clip-rule="evenodd" d="M184.767 218.655L191.224 218.964C190.842 216.918 190.349 215.047 189.793 213.151L183.843 212.706C184.163 214.79 184.472 216.779 184.767 218.655" fill="#BBAF5E"/>
<path fill-rule="evenodd" clip-rule="evenodd" d="M182.905 206.522L187.896 206.858C187.635 205.963 187.374 205.028 187.114 204.039C186.882 203.154 186.732 202.106 186.636 200.939L182.016 200.514C182.316 202.565 182.613 204.572 182.905 206.522Z" fill="#BBAF5E"/>
<path fill-rule="evenodd" clip-rule="evenodd" d="M179.667 183.707L186.297 184.364C186.128 182.166 185.818 180.12 185.257 178.403L178.87 177.587C179.13 179.63 179.397 181.674 179.667 183.707" fill="#BBAF5E"/>
<path fill-rule="evenodd" clip-rule="evenodd" d="M178.077 171.186L182.637 171.769C182.713 170.084 182.813 168.024 182.934 165.866L177.356 165.001C177.586 167.045 177.827 169.11 178.077 171.186Z" fill="#BBAF5E"/>
<path fill-rule="evenodd" clip-rule="evenodd" d="M176.683 158.77L183.327 159.75C183.497 157.485 183.687 155.412 183.895 153.885L176.077 152.534C176.262 154.568 176.465 156.651 176.683 158.77Z" fill="#BBAF5E"/>
<path fill-rule="evenodd" clip-rule="evenodd" d="M175.543 146.117L185.171 147.78C185.623 146.134 186.17 144.398 186.816 142.473L175.173 140.462C175.273 142.272 175.397 144.162 175.543 146.117" fill="#BBAF5E"/>
<path fill-rule="evenodd" clip-rule="evenodd" d="M174.954 135.306L188.416 137.854C188.999 136.201 189.637 134.409 190.331 132.438L174.924 129.15C174.878 131.007 174.89 133.07 174.954 135.306" fill="#BBAF5E"/>
<path fill-rule="evenodd" clip-rule="evenodd" d="M175.446 122.845L192.226 126.426L192.274 126.241C191.228 125.899 190.205 125.471 189.233 124.938C186.384 123.375 184.194 121.196 182.683 118.718L176.598 117.42C176.117 119.183 175.726 120.993 175.446 122.845" fill="#BBAF5E"/>
<path fill-rule="evenodd" clip-rule="evenodd" d="M186.482 189.133L180.324 188.566C180.583 190.453 180.843 192.323 181.105 194.17L186.475 194.665C186.481 192.864 186.502 190.99 186.482 189.133" fill="#BBAF5E"/>
<path fill-rule="evenodd" clip-rule="evenodd" d="M183.843 212.705L189.793 213.151C189.209 211.157 188.558 209.137 187.896 206.858L182.905 206.522C183.225 208.657 183.539 210.724 183.843 212.705V212.705ZM182.016 200.514L186.636 200.939C186.484 199.086 186.468 196.934 186.475 194.665L181.105 194.17C181.409 196.322 181.714 198.44 182.016 200.514V200.514ZM180.324 188.566L186.482 189.134C186.464 187.51 186.415 185.9 186.297 184.364L179.668 183.707C179.885 185.335 180.104 186.957 180.324 188.566V188.566ZM177.356 165.001L182.934 165.866C183.048 163.836 183.179 161.72 183.327 159.75L176.683 158.77C176.894 160.817 177.119 162.897 177.356 165.001ZM176.077 152.534L183.895 153.885C183.896 153.876 183.897 153.867 183.898 153.859C184.173 151.842 184.594 149.885 185.172 147.78L175.543 146.116C175.697 148.188 175.877 150.332 176.077 152.534V152.534ZM175.174 140.462L186.816 142.473C187.294 141.05 187.827 139.523 188.416 137.854L174.954 135.306C175 136.938 175.075 138.661 175.174 140.462ZM174.924 129.15L190.331 132.438C190.569 131.766 190.812 131.074 191.063 130.358C191.393 129.412 191.798 128.063 192.226 126.426L175.446 122.845C175.229 124.273 175.077 125.727 174.999 127.204C174.966 127.824 174.941 128.473 174.924 129.15V129.15ZM176.598 117.42L182.683 118.718C181.281 116.419 180.464 113.863 180.247 111.303L178.824 110.962C177.961 113.035 177.207 115.19 176.598 117.42V117.42ZM178.87 177.587L185.257 178.403C184.668 176.598 183.801 175.157 182.528 174.288C182.556 173.615 182.592 172.757 182.637 171.769L178.077 171.186C178.197 172.183 178.319 173.183 178.443 174.184C178.511 174.73 178.579 175.277 178.647 175.824C178.721 176.412 178.795 176.999 178.87 177.587V177.587ZM191.224 218.964L184.767 218.655C185.126 220.935 185.462 223.047 185.77 224.957L191.957 225.254C191.835 222.902 191.577 220.858 191.224 218.964Z" fill="#742C25"/>
<path fill-rule="evenodd" clip-rule="evenodd" d="M144.256 159.55L145.438 171.931L183.736 174.289L186.383 160.202L144.256 159.55" fill="#B4651D"/>
<path fill-rule="evenodd" clip-rule="evenodd" d="M169.799 47.5042C169.982 47.5042 170.153 47.6764 170.18 47.8896C170.208 48.1019 170.082 48.2742 169.899 48.2742C169.716 48.2742 169.545 48.1019 169.518 47.8896C169.49 47.6764 169.616 47.5042 169.799 47.5042Z" fill="#EFECD7"/>
<path fill-rule="evenodd" clip-rule="evenodd" d="M160.001 45.3816C160.183 45.3816 160.354 45.5543 160.382 45.7666C160.41 45.9797 160.284 46.152 160.101 46.152C159.918 46.152 159.747 45.9797 159.719 45.7666C159.692 45.5543 159.818 45.3816 160.001 45.3816Z" fill="#EFECD7"/>
<path fill-rule="evenodd" clip-rule="evenodd" d="M158.797 54.0326C158.797 54.0326 159.227 54.3192 160.051 54.355C160.875 54.3908 163.598 45.4708 163.347 45.0411C163.096 44.611 162.042 44.3745 161.504 44.7863C160.967 45.1986 159.371 48.8024 158.797 54.0326Z" fill="#F57939"/>
<path fill-rule="evenodd" clip-rule="evenodd" d="M161.604 64.6231C161.846 64.5076 162.773 64.8183 163.673 65.3169C164.573 65.8158 165.106 66.3144 164.864 66.4302C164.622 66.5457 163.695 66.235 162.795 65.7361C161.895 65.2371 161.361 64.739 161.604 64.6231Z" fill="#EFECD7"/>
<path fill-rule="evenodd" clip-rule="evenodd" d="M155.628 84.4957C164.631 84.5801 172.056 91.3724 173.303 100.193C173.432 100.111 173.561 100.029 173.691 99.9459C174.663 99.3241 175.558 98.7571 176.387 98.241C179.594 96.2437 181.794 95.0062 183.526 94.26C184.645 93.7781 185.569 93.5005 186.444 93.3546C189.022 92.9249 191.172 93.4981 191.172 93.4981L189.596 89.4225L185.297 78.3089C185.297 78.3089 184.724 63.1204 183.864 59.3944C183.262 56.7869 182.591 54.109 182.241 52.7366C182.071 52.6674 181.911 52.5958 181.769 52.5293C181.934 52.9598 182.002 53.2585 181.821 53.304C181.291 53.4386 178.669 69.1384 178.311 70.1414C177.952 71.1443 177.451 72.0038 174.084 74.4398C170.716 76.8758 158.608 78.9536 157.748 78.8105C156.889 78.6674 154.166 76.7327 153.664 75.9444C153.495 75.6784 153.71 73.0499 154.072 69.672C152.893 71.1914 150.84 73.9331 148.918 76.9792C147.252 79.6183 145.684 82.4859 144.864 84.9857C144.696 85.5002 144.559 85.9988 144.459 86.4767C144.315 87.1697 144.205 87.8658 144.132 88.5612C147.228 86.0178 151.168 84.4945 155.458 84.4945L155.628 84.4957" fill="#F68C3F"/>
<path fill-rule="evenodd" clip-rule="evenodd" d="M170.652 33.2144C170.895 32.7205 171.821 32.75 172.721 33.2805C173.621 33.8109 174.155 34.642 173.913 35.1358C173.67 35.6301 172.744 35.6002 171.844 35.0697C170.944 34.5389 170.41 33.7082 170.652 33.2144Z" fill="#FBC470"/>
<path fill-rule="evenodd" clip-rule="evenodd" d="M184.426 44.6999C184.426 44.6999 182.134 46.1322 181.847 46.8489C181.561 47.5652 181.487 49.8375 181.811 49.8581C182.135 49.8791 182.922 50.0732 182.814 50.2882C182.707 50.5029 182.492 51.2196 182.492 51.2196L183.603 51.8282C183.603 51.8282 184.964 49.8581 184.964 49.0699C184.964 48.282 184.677 47.3148 184.677 47.3148C184.677 47.3148 182.832 48.7887 182.528 48.6044C182.223 48.4204 184.498 45.9533 184.498 45.9533L184.426 44.6999Z" fill="#F47327"/>
<path fill-rule="evenodd" clip-rule="evenodd" d="M19.4401 47.4741C19.4401 47.4741 24.3118 57.5044 36.9214 58.3642C49.5312 59.2237 58.1287 47.1871 58.1287 47.1871C58.1287 47.1871 64.6146 57.9598 59.1317 69.1112C53.6491 80.2622 33.4824 75.2724 33.4824 75.2724C33.4824 75.2724 13.135 68.1075 19.4401 47.4741" fill="#702E27"/>
<path fill-rule="evenodd" clip-rule="evenodd" d="M151.786 21.9679C156.394 21.9679 160.152 18.2085 160.152 13.5997C160.152 8.99061 156.394 5.23161 151.786 5.23161C147.178 5.23161 143.42 8.99061 143.42 13.5997C143.42 18.2085 147.178 21.9679 151.786 21.9679Z" fill="#8D362D"/>
<path fill-rule="evenodd" clip-rule="evenodd" d="M45.8391 62.9034C50.447 62.9034 54.2053 59.1448 54.2053 54.5353C54.2053 49.9266 50.447 46.1672 45.8391 46.1672C41.2315 46.1672 37.4733 49.9266 37.4733 54.5353C37.4733 59.1448 41.2315 62.9034 45.8391 62.9034" fill="#96392F"/>
<path fill-rule="evenodd" clip-rule="evenodd" d="M34.4788 44.1927C36.7759 44.1927 38.6492 42.3191 38.6492 40.0215C38.6492 37.7239 36.7759 35.8503 34.4788 35.8503C32.182 35.8503 30.3086 37.7239 30.3086 40.0215C30.3086 42.3191 32.182 44.1927 34.4788 44.1927Z" fill="#A64439"/>
<path fill-rule="evenodd" clip-rule="evenodd" d="M98.2009 49.9966C98.2009 49.9966 97.747 51.9873 99.8964 53.1338C102.046 54.2798 107.992 53.2769 108.566 52.3459C109.139 51.4145 110.5 46.9722 109.999 46.2559C109.497 45.5395 106.18 43.627 106.18 43.627C106.18 43.627 104.124 48.3691 103.515 48.6561C102.906 48.9427 98.2009 49.9966 98.2009 49.9966" fill="#F46D34"/>
<path fill-rule="evenodd" clip-rule="evenodd" d="M232.534 192.196L226.758 192.287C226.758 192.287 228.914 190.525 229.441 189.498C229.967 188.471 230.433 188.292 230.863 188.579C231.293 188.866 232.534 192.196 232.534 192.196" fill="#F68C3F"/>
<path fill-rule="evenodd" clip-rule="evenodd" d="M186.585 106.007C186.585 106.007 189.738 114.604 197.476 116.037C205.214 117.47 211.805 118.044 211.805 118.044C211.805 118.044 217.823 132.373 220.976 133.806C224.128 135.238 226.134 135.525 226.134 135.525C226.134 135.525 231.149 168.052 232.439 172.925C233.729 177.796 235.735 181.236 235.735 181.236C235.735 181.236 240.033 182.238 245.192 180.949C250.35 179.659 252.93 178.226 252.93 178.226C252.93 178.226 251.855 185.893 250.923 187.039C249.992 188.185 248.702 188.543 248.058 188.758C247.412 188.973 246.697 190.836 245.048 191.194C243.4 191.552 242.899 190.836 242.039 191.266C241.179 191.696 239.962 194.347 238.099 194.132C236.236 193.917 233.872 192.842 233.155 191.696C232.439 190.549 230.934 187.54 230.934 187.54C230.934 187.54 227.854 190.979 226.564 190.549C225.274 190.12 222.893 186.464 224.379 184.883C225.865 183.301 228.476 181.202 228.476 181.202C228.476 181.202 222.623 160.673 222.05 153.652C221.477 146.63 221.477 141.543 221.477 141.543C221.477 141.543 214.527 137.388 212.52 134.666C210.515 131.943 208.437 126.14 208.437 126.14C208.437 126.14 199.539 128.088 192.544 125.174C185.549 122.258 177.056 112.168 186.585 106.007Z" fill="#F68C3F"/>
<path fill-rule="evenodd" clip-rule="evenodd" d="M179.957 234.205C183.56 235.216 187.959 237.053 188.375 240.056C189.092 245.215 186.513 259.974 186.728 262.052C186.943 264.129 186.039 264.143 186.039 264.143C186.039 264.143 186.315 267.991 185.879 269.742C185.789 270.103 185.669 270.375 185.51 270.506C184.578 271.27 183.002 269.742 183.002 270.363C183.002 270.983 182.572 270.935 181.784 271.437C180.996 271.939 179.778 270.864 179.778 270.864C179.778 270.864 179.205 271.007 177.772 271.151C176.339 271.294 175.981 269.742 175.981 269.742L175.018 269.1C174.464 269.234 173.636 269.441 172.702 269.698C172.655 269.711 172.61 269.726 172.565 269.742C170.996 270.321 170.761 273.051 170.761 273.051C170.761 273.051 187.985 272.964 188.932 272.043C189.343 271.643 189.154 270.74 188.79 269.742C188.315 268.44 187.543 266.975 187.416 266.252C187.267 265.403 188.1 265.062 188.43 264.355C188.596 263.998 188.634 263.547 188.351 262.89C187.509 260.934 189.042 255.668 190.985 250.088C192.72 245.108 191.301 233.691 190.976 231.298C190.954 231.13 190.936 231.006 190.926 230.933L190.914 230.853L186.72 230.794L176.258 230.646C176.258 230.646 176.673 231.797 177.278 233.554C177.304 233.559 177.331 233.565 177.358 233.57C178.11 233.728 179.006 233.938 179.957 234.205" fill="#F68C3F"/>
<path fill-rule="evenodd" clip-rule="evenodd" d="M199.839 103.212C203.627 103.212 206.717 102.021 206.717 100.561C206.717 99.1012 203.627 97.9104 199.839 97.9104C196.051 97.9104 192.961 99.1012 192.961 100.561C192.961 102.021 196.051 103.212 199.839 103.212Z" fill="#FBC470"/>
<path fill-rule="evenodd" clip-rule="evenodd" d="M160.019 276.333C132.795 276.333 110.727 273.382 110.727 269.742L109.07 277.165C162.04 288.428 197.417 281.002 211.304 276.808L209.311 269.742C209.311 273.382 187.242 276.333 160.019 276.333Z" fill="#F9DA06"/>
<path fill-rule="evenodd" clip-rule="evenodd" d="M217.39 298.384C211.624 300.687 171.349 315.147 104.063 299.605L102.989 304.418C176.927 322.473 218.769 303.272 218.769 303.272L217.39 298.384" fill="#F9DA06"/>
<path fill-rule="evenodd" clip-rule="evenodd" d="M158.856 286.41L160.793 292.165L167.1 292.153L161.99 295.698L163.951 301.445L158.856 297.882L153.76 301.445L155.72 295.698L150.611 292.153L156.918 292.165L158.856 286.41" fill="#F9E505"/>
<path fill-rule="evenodd" clip-rule="evenodd" d="M122.325 283.291L123.327 289.12L129.636 289.575L123.95 292.699L124.976 298.522L120.459 294.625L114.785 297.769L117.68 292.236L113.146 288.356L119.452 288.834L122.325 283.291Z" fill="#F9E505"/>
<path fill-rule="evenodd" clip-rule="evenodd" d="M200.778 283.222L199.776 289.109L193.467 289.934L199.153 292.725L198.127 298.608L202.643 294.446L208.319 297.257L205.423 291.894L209.957 287.748L203.651 288.596L200.778 283.222" fill="#D9C311"/>
<path fill-rule="evenodd" clip-rule="evenodd" d="M145.743 161.241L177.044 162.691L175.333 173.048L155.448 172.371L145.438 172.029L183.345 174.264L185.612 160.78L144.256 160.167L144.36 161.215L145.743 161.241" fill="#96541D"/>
<path fill-rule="evenodd" clip-rule="evenodd" d="M155.258 173.516C153.881 173.498 153.35 162.662 153.307 161.439C153.261 161.317 153.33 160.24 153.36 160.116C153.459 159.704 153.939 159.459 154.677 159.341C155.169 159.264 155.835 159.222 156.592 159.207C159.551 159.15 164.063 159.549 164.621 159.805L164.634 159.809L164.636 159.81L164.652 159.819C165.099 160.049 165.361 163.095 165.308 166.233C165.257 169.275 165.003 172.496 164.48 173.304C164.472 173.316 164.46 173.334 164.445 173.355V173.357C163.812 174.232 158.946 173.819 156.473 173.61C155.85 173.557 155.391 173.518 155.258 173.516ZM154.699 162.685C154.72 163.296 154.774 164.721 154.918 166.271L157.347 166.589C157.92 166.695 157.92 167.783 157.49 168.028C157.181 168.205 155.873 168.275 155.161 168.3C155.447 170.18 155.905 171.794 156.641 171.856C158.829 172.041 162.349 172.502 162.54 172.238L162.541 172.239L162.543 172.235C162.952 171.603 163.123 169.212 163.172 166.316C163.185 165.51 163.58 161.854 162.184 161.685C160.776 161.515 158.898 161.255 156.812 161.294C155.413 161.321 154.662 161.587 154.699 162.685Z" fill="#BE911B"/>
<path fill-rule="evenodd" clip-rule="evenodd" d="M160.373 159.707C158.661 159.629 157.274 159.742 157.274 159.959C157.274 160.177 158.661 160.416 160.373 160.493C162.084 160.571 163.472 160.458 163.472 160.241C163.472 160.023 162.084 159.784 160.373 159.707Z" fill="#D9C311"/>
<path fill-rule="evenodd" clip-rule="evenodd" d="M157.052 168.15C156.599 168.226 155.929 168.268 155.419 168.29C155.328 168.294 155.24 168.297 155.161 168.3C155.447 170.18 155.905 171.794 156.641 171.856C156.825 171.872 157.019 171.889 157.22 171.908C156.885 171.124 156.403 169.966 156.289 169.554C156.181 169.167 156.478 168.738 156.732 168.458C156.901 168.271 157.052 168.15 157.052 168.15Z" fill="#96541D"/>
<path fill-rule="evenodd" clip-rule="evenodd" d="M154.918 166.271L157.347 166.59C157.366 166.593 157.386 166.598 157.405 166.604C157.116 166.438 156.488 166.039 156.217 165.577C155.959 165.139 156.021 163.051 156.086 161.7C156.092 161.572 156.099 161.45 156.105 161.338C155.757 161.378 155.471 161.45 155.249 161.571C154.87 161.776 154.68 162.12 154.699 162.685C154.72 163.296 154.774 164.721 154.918 166.271" fill="#96541D"/>
<path fill-rule="evenodd" clip-rule="evenodd" d="M164.026 162.389C164.026 162.389 163.642 171.727 163.028 172.557C162.414 173.387 163.691 173.548 164.057 173.077C164.422 172.607 165.459 162.389 164.026 162.389Z" fill="#B3781D"/>
<path fill-rule="evenodd" clip-rule="evenodd" d="M81.4174 34.0011C83.2375 35.4956 86.046 37.6396 87.0774 37.5459C88.6535 37.4024 90.4444 36.9011 90.4444 36.9011C90.4444 36.9011 93.382 37.8325 95.0302 37.689C96.6779 37.5458 97.3942 36.9011 97.3942 36.9011C97.3942 36.9011 98.6916 37.6228 100.801 37.5843C102.911 37.5458 103.41 36.8816 103.41 36.8816C103.41 36.8816 105.131 37.1367 106.287 37.2409C106.215 36.9131 106.118 36.5954 105.988 36.2964C105.742 35.7313 105.377 35.2327 104.842 34.8563C103.915 34.2057 99.0474 33.0289 98.697 33.4547C97.6528 34.7248 95.036 32.1858 91.8934 33.1036C88.7508 34.021 88.1153 31.9824 85.9282 32.8593C83.7411 33.7363 83.8605 33.2105 82.1552 33.6935C81.8946 33.7674 81.6496 33.8716 81.4174 34.0011Z" fill="#F9B047"/>
<path fill-rule="evenodd" clip-rule="evenodd" d="M83.7732 41.9193C83.3081 41.7455 81.1007 41.8089 78.2509 41.9815C79.3803 43.1859 80.3171 44.6388 80.6484 46.3161C80.7974 47.0709 80.8822 47.7993 80.9183 48.4939L85.0196 47.3552L85.2455 47.2926C85.2455 47.2926 85.2642 45.8627 85.0316 44.4704C84.8376 43.3119 84.4704 42.1799 83.7732 41.9193" fill="#702E27"/>
<path fill-rule="evenodd" clip-rule="evenodd" d="M106.287 37.241C106.671 39.0019 106.318 41.0509 106.443 42.0729C106.471 42.2993 106.435 42.6116 106.352 42.9802L111.149 41.9485C110.231 40.8036 109.465 39.6556 109.358 38.907C109.235 38.0413 109.271 36.7763 109.353 35.617C108.18 35.8418 107.05 36.0685 105.988 36.2964C106.118 36.5954 106.215 36.9131 106.287 37.241Z" fill="#702E27"/>
<path fill-rule="evenodd" clip-rule="evenodd" d="M140.623 266.145C140.623 266.145 143.111 265.911 143.465 263.532C143.819 261.153 143.461 259.433 143.461 259.433C143.461 259.433 145.234 264.526 144.742 265.204C144.249 265.881 140.623 266.145 140.623 266.145Z" fill="#F05D30"/>
<path fill-rule="evenodd" clip-rule="evenodd" d="M182.922 44.0087C183.01 43.7855 183.346 43.6272 183.673 43.6552C183.999 43.6836 184.193 43.8878 184.105 44.111C184.017 44.3346 183.681 44.4929 183.354 44.4645C183.028 44.4361 182.834 44.2323 182.922 44.0087Z" fill="#FBC470"/>
<path fill-rule="evenodd" clip-rule="evenodd" d="M169.378 168.12C169.733 168.12 170.023 167.766 170.023 167.332C170.023 166.897 169.733 166.543 169.378 166.543C169.023 166.543 168.733 166.897 168.733 167.332C168.733 167.766 169.023 168.12 169.378 168.12Z" fill="#873E1B"/>
<path fill-rule="evenodd" clip-rule="evenodd" d="M179.562 168.385C179.883 168.385 180.145 168.051 180.145 167.644C180.145 167.235 179.883 166.902 179.562 166.902C179.24 166.902 178.979 167.235 178.979 167.644C178.979 168.051 179.24 168.385 179.562 168.385Z" fill="#873E1B"/>
<path fill-rule="evenodd" clip-rule="evenodd" d="M148.314 166.901C148.669 166.901 148.959 166.596 148.959 166.221C148.959 165.846 148.669 165.54 148.314 165.54C147.959 165.54 147.669 165.846 147.669 166.221C147.669 166.596 147.959 166.901 148.314 166.901Z" fill="#873E1B"/>
<path fill-rule="evenodd" clip-rule="evenodd" d="M176.183 56.4229C176.183 56.4229 173.461 67.528 169.879 71.4687C166.296 75.4089 163.072 76.6989 163.072 76.6989C163.072 76.6989 173.222 74.8485 176.04 71.182C178.858 67.5152 181.22 52.2567 181.22 52.2567L180.614 47.9735L176.183 56.4229" fill="#D23B22"/>
<path fill-rule="evenodd" clip-rule="evenodd" d="M165.364 26.0447C165.364 26.0447 166.654 25.3999 167.872 26.3313C169.09 27.2627 174.75 30.0569 175.61 30.9883C176.469 31.9197 175.859 32.9288 175.859 32.9288C175.859 32.9288 168.431 29.1438 166.49 29.7193C164.549 30.2949 162.56 31.1788 162.56 31.1788C162.56 31.1788 162.104 29.3048 162.606 28.3734C163.107 27.442 165.364 26.0447 165.364 26.0447" fill="#D23B22"/>
<path fill-rule="evenodd" clip-rule="evenodd" d="M239.546 119.131C239.392 118.692 239.145 118.262 238.82 117.843L235.574 120.258L240.451 127.427C240.451 127.427 241.499 124.699 239.546 119.131" fill="#F68C3F"/>
<path fill-rule="evenodd" clip-rule="evenodd" d="M26.282 287.73L26.3801 294.896L29.1271 295.107L29.4213 293.737L32.2998 293.293L31.7644 289.282L29.6176 289.311L29.0285 286.466L26.282 287.73" fill="#702E27"/>
<path fill-rule="evenodd" clip-rule="evenodd" d="M52.4266 289.206L82.9902 287.065L83.3433 292.885L52.1268 292.98L52.4266 289.206" fill="#702E27"/>
<path fill-rule="evenodd" clip-rule="evenodd" d="M102.21 289.92L105.009 289.943L105.402 292.156L108.639 291.524L107.855 282.883L105.892 283.199L105.402 284.938L102.498 284.751L102.21 289.92" fill="#702E27"/>
<path fill-rule="evenodd" clip-rule="evenodd" d="M30.304 278.352L33.5411 302.589L51.3958 302.168L53.4566 276.245L45.412 276.561L45.608 272.663L35.7979 273.4L35.8959 277.825L30.304 278.352" fill="#84332A"/>
<path fill-rule="evenodd" clip-rule="evenodd" d="M82.1027 272.451L83.8682 301.535L101.527 302.167L103.195 272.24L96.4255 272.556V268.868L87.5962 269.29L87.4982 272.451H82.1027" fill="#84332A"/>
<path fill-rule="evenodd" clip-rule="evenodd" d="M38.3329 283.364C38.3329 283.364 37.9619 302.485 38.7237 302.467C39.4855 302.449 51.3961 302.168 51.3961 302.168L53.3051 278.151L45.3543 279.824L45.6082 272.662L37.8316 274.437L38.3329 283.364" fill="#712B24"/>
<path fill-rule="evenodd" clip-rule="evenodd" d="M88.3374 269.254L89.3287 301.731L101.527 302.167L102.241 275.822H96.5091L96.4255 269.819L88.3374 269.254Z" fill="#712B24"/>
<path fill-rule="evenodd" clip-rule="evenodd" d="M86.5504 280.055L82.5814 280.333L82.1027 272.451H87.4982L86.5504 280.055" fill="#9B3B31"/>
<path fill-rule="evenodd" clip-rule="evenodd" d="M36.6132 284.672C36.2547 284.672 31.2587 285.497 31.2587 285.497L30.6723 278.318L35.8961 277.825L36.6132 284.672Z" fill="#9B3B31"/>
<path fill-rule="evenodd" clip-rule="evenodd" d="M36.6123 292.368L32.2999 293.294L33.5412 302.589L38.1912 302.48L45.0671 302.317L45.4253 302.309L45.78 302.3L46.2132 297.063L52.1266 292.98L51.3959 302.168L45.6042 302.758L45.7115 291.599L39.4068 293.369L38.6901 298.986L36.6123 292.368" fill="#612521"/>
<path fill-rule="evenodd" clip-rule="evenodd" d="M101.884 288.995L96.7238 290.906L96.2222 297.909L89.2198 298.155L89.0992 294.219L83.7427 299.464L83.8683 301.535L101.527 302.167L101.884 288.995" fill="#612521"/>
<path fill-rule="evenodd" clip-rule="evenodd" d="M95.8635 279.131L96.007 288.058L88.9187 288.307L88.6578 279.758L95.8635 279.131" fill="#612521"/>
<path fill-rule="evenodd" clip-rule="evenodd" d="M57.0816 288.88L52.4266 289.206L52.1268 292.98L57.3184 292.964C57.115 291.681 57.0618 290.237 57.0816 288.88Z" fill="#612521"/>
<path fill-rule="evenodd" clip-rule="evenodd" d="M219.429 271.362C219.429 271.362 201.891 261.577 200.295 261.492C199.57 261.452 198.8 262.322 198.174 263.282C197.424 264.436 196.882 265.723 196.882 265.723L212.862 278.697C212.862 278.697 200.469 292.208 214.049 306.624C227.63 321.04 252.958 312.727 257.639 297.667C265.48 272.435 234.548 254.546 219.429 271.362" fill="#84332A"/>
<path fill-rule="evenodd" clip-rule="evenodd" d="M255.662 291.549C255.662 291.549 247.394 298.619 235.781 294.47C224.169 290.321 221.174 276.204 221.174 276.204C221.174 276.204 211.173 283.308 211.727 295.419C212.281 307.53 232.262 310.933 232.262 310.933C232.262 310.933 253.253 312.461 255.662 291.549" fill="#702E27"/>
<path fill-rule="evenodd" clip-rule="evenodd" d="M249.141 275.817C245.009 274.015 240.198 275.905 238.396 280.038C236.593 284.171 238.482 288.982 242.614 290.784C246.746 292.586 251.557 290.696 253.359 286.564C255.162 282.431 253.273 277.619 249.141 275.817Z" fill="#96392F"/>
<path fill-rule="evenodd" clip-rule="evenodd" d="M237.687 269.673C236.039 268.954 234.12 269.707 233.401 271.356C232.682 273.005 233.435 274.924 235.084 275.643C236.732 276.362 238.651 275.608 239.37 273.959C240.088 272.311 239.336 270.391 237.687 269.673" fill="#A64439"/>
<path fill-rule="evenodd" clip-rule="evenodd" d="M200.295 261.492C200.779 261.518 202.728 262.435 205.209 263.701C203.729 264.338 202.325 265.272 201.375 266.643C200.947 267.259 200.587 267.878 200.284 268.485L197.061 265.867L196.882 265.723C196.882 265.723 197.424 264.436 198.174 263.283C198.8 262.322 199.57 261.452 200.295 261.492" fill="#702E27"/>
<path fill-rule="evenodd" clip-rule="evenodd" d="M265.517 269.091C263.219 268.089 260.542 269.14 259.54 271.439C258.537 273.738 259.588 276.414 261.886 277.416C264.185 278.419 266.861 277.368 267.864 275.069C268.866 272.769 267.815 270.093 265.517 269.091" fill="#B96055"/>
<path fill-rule="evenodd" clip-rule="evenodd" d="M259.146 265.673C258.229 265.273 257.161 265.693 256.761 266.609C256.362 267.527 256.78 268.594 257.697 268.994C258.614 269.394 259.681 268.975 260.081 268.057C260.481 267.141 260.063 266.073 259.146 265.673" fill="#B96055"/>
<path fill-rule="evenodd" clip-rule="evenodd" d="M166.862 63.208L167.253 65.1855C167.253 65.1855 168.322 64.7566 168.974 63.8093C169.626 62.8619 169.989 62.1608 169.989 62.1608L166.862 63.208" fill="#CA2824"/>
<path fill-rule="evenodd" clip-rule="evenodd" d="M166.925 63.526C165.921 63.0403 164.562 62.742 163.064 62.742C162.18 62.742 161.345 62.8458 160.603 63.031C162.587 64.2143 164.771 65.3429 165.976 65.4098C166.439 65.4355 166.866 65.3472 167.253 65.1854L166.925 63.526Z" fill="#EFECD7"/>
<path fill-rule="evenodd" clip-rule="evenodd" d="M157.798 40.1372C157.798 40.1372 160.52 40.173 160.843 40.5315C161.165 40.8897 162.19 43.8822 162.19 43.8822L157.859 43.0823C157.859 43.0823 156.687 40.2807 157.798 40.1372" fill="#D13D21"/>
<path fill-rule="evenodd" clip-rule="evenodd" d="M163.687 42.0422C163.687 42.0422 163.606 44.1982 164.447 44.6707C165.288 45.1432 171.349 46.7368 172.376 46.7785C173.402 46.8201 172.592 44.1138 172.341 43.9349C172.091 43.7556 164.491 40.9595 164.01 41.0859C163.529 41.2123 163.687 42.0422 163.687 42.0422Z" fill="#D13D21"/>
</svg>
