<svg width="138" height="47" viewBox="0 0 138 47" fill="none" xmlns="http://www.w3.org/2000/svg">
<path d="M137.383 23.7109L100.672 46.9102L100.684 39.8398L0 43.4883L0.0664062 3.45703L100.59 6.78516L100.844 0L137.383 23.7109Z" fill="#F2D15E"/>
<path d="M102.203 2.62109L101.992 8.28906L1.52344 4.96484L1.46094 41.9805L102.145 38.3281L102.133 44.2617L134.68 23.6953L102.203 2.62109Z" fill="#E4463B"/>
<path d="M105.379 12.5859L105.469 10.1094L126.336 23.6484L105.688 36.6953L105.691 34.0117L5.00781 37.6602L5.05469 9.26562L105.379 12.5859Z" fill="#DD5828"/>
<path d="M106.582 13.875L106.637 12.3555L124.02 23.6328L106.941 34.4258L106.945 32.7148L6.25781 36.3633L6.30469 10.5586L106.582 13.875Z" fill="#E4463B"/>
<path d="M99.8945 37.0391C99.8945 36.5937 100.258 36.2344 100.703 36.2344C101.152 36.2344 101.512 36.5977 101.512 37.043C101.508 37.4883 101.148 37.8516 100.703 37.8516C100.254 37.8477 99.8945 37.4844 99.8945 37.0391Z" fill="white"/>
<path d="M96.9648 37.0352C96.9648 36.5859 97.3281 36.2266 97.7773 36.2266C98.2227 36.2305 98.582 36.5898 98.582 37.0352C98.582 37.4844 98.2188 37.8438 97.7734 37.8438C97.3281 37.8438 96.9648 37.4805 96.9648 37.0352Z" fill="white"/>
<path d="M93.8672 37.0312C93.8672 36.582 94.2305 36.2227 94.6758 36.2227C95.1211 36.2227 95.4844 36.5859 95.4844 37.0312C95.4805 37.4805 95.1211 37.8398 94.6719 37.8398C94.2266 37.8359 93.8672 37.4766 93.8672 37.0312Z" fill="white"/>
<path d="M90.9375 37.0234C90.9375 36.5781 91.3008 36.2148 91.7461 36.2148C92.1953 36.2187 92.5547 36.582 92.5547 37.0273C92.5547 37.4727 92.1914 37.8359 91.7461 37.832C91.2969 37.832 90.9375 37.4727 90.9375 37.0234Z" fill="white"/>
<path d="M87.9102 37.1407C87.9102 36.6953 88.2734 36.3321 88.7227 36.336C89.168 36.336 89.5273 36.6993 89.5273 37.1446C89.5273 37.5899 89.1641 37.9532 88.7188 37.9492C88.2734 37.9492 87.9102 37.586 87.9102 37.1407Z" fill="white"/>
<path d="M84.9805 37.3438C84.9844 36.8985 85.3477 36.5352 85.793 36.5391C86.2383 36.5391 86.6016 36.9024 86.6016 37.3477C86.5977 37.793 86.2344 38.1563 85.7891 38.1563C85.3438 38.1524 84.9805 37.7891 84.9805 37.3438Z" fill="white"/>
<path d="M81.7617 37.4375C81.7617 36.9922 82.125 36.6289 82.5703 36.6289C83.0157 36.6289 83.3789 36.9922 83.375 37.4414C83.375 37.8867 83.0157 38.2461 82.5664 38.2461C82.1211 38.2461 81.7578 37.8828 81.7617 37.4375Z" fill="white"/>
<path d="M78.7344 37.6055C78.7344 37.1562 79.0977 36.7969 79.543 36.7969C79.9922 36.7969 80.3516 37.1602 80.3516 37.6055C80.3516 38.0547 79.9883 38.4141 79.5391 38.4141C79.0938 38.4102 78.7344 38.0508 78.7344 37.6055Z" fill="white"/>
<path d="M75.6485 37.6289C75.6485 37.1836 76.0078 36.8203 76.4571 36.8242C76.9024 36.8242 77.2657 37.1875 77.2617 37.6328C77.2617 38.0782 76.8985 38.4414 76.4532 38.4375C76.0078 38.4375 75.6446 38.0743 75.6485 37.6289Z" fill="white"/>
<path d="M72.7188 37.625C72.7188 37.1797 73.0821 36.8164 73.5274 36.8164C73.9727 36.8203 74.336 37.1797 74.336 37.625C74.336 38.0742 73.9727 38.4336 73.5235 38.4336C73.0782 38.4336 72.7149 38.0703 72.7188 37.625Z" fill="white"/>
<path d="M69.6172 37.8242C69.6172 37.3789 69.9805 37.0195 70.4297 37.0195C70.875 37.0195 71.2383 37.3828 71.2344 37.8281C71.2344 38.2773 70.8711 38.6367 70.4258 38.6367C69.9805 38.6367 69.6172 38.2734 69.6172 37.8242Z" fill="white"/>
<path d="M66.6875 38.0312C66.6914 37.582 67.0508 37.2227 67.5 37.2227C67.9453 37.2266 68.3086 37.5859 68.3086 38.0312C68.3047 38.4805 67.9453 38.8398 67.4961 38.8398C67.0508 38.8398 66.6875 38.4766 66.6875 38.0312Z" fill="white"/>
<path d="M63.6641 37.9414C63.6641 37.4922 64.0273 37.1328 64.4727 37.1328C64.9219 37.1328 65.2812 37.4961 65.2812 37.9414C65.2812 38.3867 64.918 38.75 64.4727 38.75C64.0234 38.7461 63.6641 38.3867 63.6641 37.9414Z" fill="white"/>
<path d="M60.7344 38.1406C60.7344 37.6953 61.0977 37.3359 61.543 37.3359C61.9922 37.3359 62.3516 37.6992 62.3516 38.1445C62.3516 38.5898 61.9883 38.9531 61.543 38.9531C61.0937 38.9492 60.7344 38.5898 60.7344 38.1406Z" fill="white"/>
<path d="M57.5117 38.2344C57.5117 37.7891 57.875 37.4297 58.3242 37.4297C58.7695 37.4297 59.1289 37.7891 59.1289 38.2383C59.1289 38.6836 58.7656 39.043 58.3203 39.043C57.8711 39.043 57.5117 38.6836 57.5117 38.2344Z" fill="white"/>
<path d="M54.4844 38.4023C54.4883 37.9531 54.8516 37.5938 55.2969 37.5938C55.7422 37.5977 56.1055 37.957 56.1016 38.4062C56.1016 38.8516 55.7383 39.2109 55.293 39.2109C54.8477 39.2109 54.4844 38.8477 54.4844 38.4023Z" fill="white"/>
<path d="M51.0547 38.4258C51.0547 37.9805 51.418 37.6172 51.8672 37.6172C52.3125 37.6211 52.6719 37.9844 52.6719 38.4297C52.6719 38.875 52.3086 39.2383 51.8633 39.2344C51.4141 39.2344 51.0547 38.8711 51.0547 38.4258Z" fill="white"/>
<path d="M48.1289 38.4219C48.1289 37.9766 48.4922 37.6133 48.9375 37.6133C49.3828 37.6133 49.7461 37.9766 49.7461 38.4258C49.7422 38.8711 49.3789 39.2305 48.9336 39.2305C48.4883 39.2305 48.125 38.8672 48.1289 38.4219Z" fill="white"/>
<path d="M45.0273 38.4141C45.0273 37.9687 45.3906 37.6094 45.8359 37.6094C46.2852 37.6094 46.6445 37.9727 46.6445 38.418C46.6445 38.8633 46.2813 39.2266 45.8359 39.2266C45.3867 39.2266 45.0273 38.8633 45.0273 38.4141Z" fill="white"/>
<path d="M42.1016 38.4102C42.1016 37.9648 42.461 37.6055 42.9102 37.6055C43.3555 37.6055 43.7188 37.9648 43.7149 38.4141C43.7149 38.8594 43.3516 39.2227 42.9063 39.2227C42.461 39.2188 42.0977 38.8594 42.1016 38.4102Z" fill="white"/>
<path d="M39.0742 38.5273C39.0742 38.082 39.4375 37.7227 39.8828 37.7227C40.3281 37.7227 40.6914 38.0859 40.6914 38.5312C40.6914 38.9766 40.3281 39.3359 39.8789 39.3359C39.4336 39.3359 39.0742 38.9766 39.0742 38.5273Z" fill="white"/>
<path d="M36.1445 38.7305C36.1445 38.2852 36.5078 37.9258 36.9531 37.9258C37.4023 37.9258 37.7617 38.2891 37.7617 38.7344C37.7617 39.1797 37.3984 39.543 36.9531 39.5391C36.5039 39.5391 36.1445 39.1797 36.1445 38.7305Z" fill="white"/>
<path d="M32.9219 38.8242C32.9219 38.3789 33.2852 38.0156 33.7305 38.0156C34.1797 38.0195 34.5391 38.3789 34.5391 38.8281C34.5391 39.2734 34.1758 39.6328 33.7305 39.6328C33.2812 39.6328 32.9219 39.2695 32.9219 38.8242Z" fill="white"/>
<path d="M29.8945 38.9883C29.8984 38.543 30.2578 38.1836 30.707 38.1836C31.1523 38.1836 31.5117 38.5469 31.5117 38.9922C31.5117 39.4414 31.1484 39.8008 30.7031 39.8008C30.2578 39.8008 29.8945 39.4375 29.8945 38.9883Z" fill="white"/>
<path d="M26.5742 39.2227C26.5742 38.7774 26.9375 38.4141 27.3867 38.418C27.832 38.418 28.1914 38.7813 28.1914 39.2266C28.1914 39.6719 27.8281 40.0313 27.3828 40.0313C26.9375 40.0313 26.5742 39.668 26.5742 39.2227Z" fill="white"/>
<path d="M23.6485 39.2188C23.6485 38.7734 24.0118 38.4102 24.4571 38.4102C24.9024 38.4102 25.2657 38.7773 25.2657 39.2227C25.2618 39.668 24.9024 40.0273 24.4532 40.0273C24.0078 40.0273 23.6446 39.6641 23.6485 39.2188Z" fill="white"/>
<path d="M20.5469 39.2109C20.5469 38.7656 20.9102 38.4062 21.3594 38.4062C21.8047 38.4062 22.1641 38.7695 22.1641 39.2148C22.1641 39.6602 21.8008 40.0234 21.3555 40.0234C20.9062 40.0234 20.5469 39.6602 20.5469 39.2109Z" fill="white"/>
<path d="M17.6172 39.207C17.6211 38.7617 17.9844 38.4023 18.4297 38.4023C18.875 38.4023 19.2383 38.7656 19.2383 39.2109C19.2344 39.6562 18.8711 40.0195 18.4258 40.0156C17.9805 40.0156 17.6172 39.6563 17.6172 39.207Z" fill="white"/>
<path d="M14.5938 39.3242C14.5938 38.8789 14.9571 38.5195 15.4024 38.5195C15.8477 38.5195 16.211 38.8828 16.211 39.3281C16.2071 39.7734 15.8477 40.1367 15.3985 40.1367C14.9532 40.1328 14.5899 39.7734 14.5938 39.3242Z" fill="white"/>
<path d="M11.6641 39.5273C11.6641 39.082 12.0273 38.7227 12.4727 38.7227C12.9219 38.7227 13.2812 39.0859 13.2812 39.5312C13.2812 39.9805 12.918 40.3398 12.4727 40.3359C12.0234 40.3359 11.6641 39.9766 11.6641 39.5273Z" fill="white"/>
<path d="M8.44141 39.6211C8.44141 39.1758 8.80469 38.8125 9.25 38.8164C9.69922 38.8164 10.0586 39.1797 10.0586 39.625C10.0586 40.0703 9.69531 40.4336 9.25 40.4297C8.80078 40.4297 8.44141 40.0664 8.44141 39.6211Z" fill="white"/>
<path d="M5.41406 39.7891C5.41406 39.3398 5.77734 38.9805 6.22656 38.9805C6.67188 38.9805 7.03516 39.3437 7.03125 39.7891C7.03125 40.2383 6.66797 40.5977 6.22266 40.5977C5.77734 40.5977 5.41406 40.2344 5.41406 39.7891Z" fill="white"/>
<path d="M99.9414 9.76172C99.9414 10.207 100.301 10.5703 100.746 10.5703C101.195 10.5703 101.555 10.2109 101.559 9.76172C101.559 9.31641 101.195 8.95312 100.75 8.95312C100.305 8.95312 99.9414 9.31641 99.9414 9.76172Z" fill="white"/>
<path d="M97.0117 9.75391C97.0117 10.2031 97.3711 10.5664 97.8203 10.5664C98.2656 10.5664 98.6289 10.2031 98.6289 9.75781C98.6289 9.3125 98.2695 8.94922 97.8203 8.94922C97.375 8.94922 97.0117 9.30859 97.0117 9.75391Z" fill="white"/>
<path d="M93.9102 9.75C93.9102 10.1992 94.2734 10.5586 94.7188 10.5586C95.1641 10.5625 95.5273 10.1992 95.5312 9.75391C95.5312 9.30859 95.168 8.94531 94.7227 8.94531C94.2773 8.94531 93.9102 9.30469 93.9102 9.75Z" fill="white"/>
<path d="M90.9844 9.74609C90.9844 10.1914 91.3438 10.5547 91.7891 10.5547C92.2383 10.5547 92.6016 10.1953 92.6016 9.74609C92.6016 9.30078 92.2422 8.94141 91.793 8.9375C91.3477 8.9375 90.9844 9.30078 90.9844 9.74609Z" fill="white"/>
<path d="M87.957 9.61719C87.957 10.0664 88.3203 10.4258 88.7656 10.4258C89.2109 10.4297 89.5742 10.0664 89.5742 9.62109C89.5781 9.17578 89.2148 8.8125 88.7695 8.8125C88.3203 8.8125 87.957 9.17187 87.957 9.61719Z" fill="white"/>
<path d="M85.0312 9.40625C85.0312 9.85156 85.3906 10.2109 85.8359 10.2148C86.2852 10.2148 86.6445 9.85547 86.6484 9.40625C86.6484 8.96094 86.2852 8.59766 85.8398 8.59766C85.3945 8.59766 85.0312 8.95703 85.0312 9.40625Z" fill="white"/>
<path d="M81.8086 9.30078C81.8086 9.74609 82.168 10.1094 82.6133 10.1133C83.0625 10.1133 83.4258 9.75 83.4258 9.30469C83.4258 8.85937 83.0625 8.49609 82.6172 8.49219C82.1719 8.49219 81.8086 8.85547 81.8086 9.30078Z" fill="white"/>
<path d="M78.7812 9.12503C78.7812 9.57034 79.1445 9.93362 79.5898 9.93362C80.0352 9.93753 80.3984 9.57425 80.3984 9.12894C80.3984 8.67972 80.0391 8.32034 79.5898 8.32034C79.1445 8.31644 78.7812 8.67972 78.7812 9.12503Z" fill="white"/>
<path d="M75.6953 9.08984C75.6953 9.53516 76.0547 9.89844 76.5 9.89844C76.9492 9.89844 77.3125 9.53906 77.3125 9.08984C77.3125 8.64453 76.9531 8.28125 76.5039 8.28125C76.0586 8.28125 75.6953 8.64062 75.6953 9.08984Z" fill="white"/>
<path d="M72.7656 9.08203C72.7656 9.53125 73.125 9.89063 73.5742 9.89453C74.0195 9.89453 74.3828 9.53125 74.3828 9.08594C74.3828 8.64062 74.0234 8.27734 73.5781 8.27734C73.1289 8.27734 72.7656 8.63672 72.7656 9.08203Z" fill="white"/>
<path d="M69.668 8.87109C69.6641 9.31641 70.0274 9.67969 70.4727 9.67969C70.9219 9.67969 71.2852 9.32031 71.2852 8.87109C71.2852 8.42578 70.9219 8.06641 70.4766 8.0625C70.0313 8.0625 69.668 8.42578 69.668 8.87109Z" fill="white"/>
<path d="M66.7383 8.65625C66.7383 9.10547 67.1016 9.46484 67.5469 9.46484C67.9922 9.46875 68.3555 9.10938 68.3555 8.66016C68.3594 8.21484 67.9961 7.85156 67.5508 7.85156C67.1016 7.85156 66.7383 8.21094 66.7383 8.65625Z" fill="white"/>
<path d="M63.7109 8.73831C63.7109 9.18363 64.0742 9.54691 64.5195 9.54691C64.9648 9.55081 65.3281 9.18753 65.332 8.74222C65.332 8.293 64.9688 7.93362 64.5234 7.93362C64.0742 7.92972 63.7148 8.293 63.7109 8.73831Z" fill="white"/>
<path d="M60.7852 8.52734C60.7852 8.97266 61.1445 9.33203 61.5938 9.33594C62.0391 9.33594 62.4023 8.97656 62.4023 8.52734C62.4023 8.08203 62.043 7.71875 61.5938 7.71875C61.1484 7.71875 60.7852 8.07812 60.7852 8.52734Z" fill="white"/>
<path d="M57.5625 8.42188C57.5625 8.86719 57.9219 9.23047 58.3711 9.23047C58.8164 9.23047 59.1797 8.87109 59.1797 8.42578C59.1797 7.98047 58.8203 7.61328 58.3711 7.61328C57.9258 7.61328 57.5625 7.97656 57.5625 8.42188Z" fill="white"/>
<path d="M54.5352 8.24609C54.5352 8.69141 54.8984 9.05469 55.3438 9.05469C55.7891 9.05469 56.1523 8.69531 56.1562 8.24609C56.1562 7.80078 55.793 7.4375 55.3477 7.4375C54.9023 7.4375 54.5391 7.80078 54.5352 8.24609Z" fill="white"/>
<path d="M51.1055 8.20703C51.1055 8.65625 51.4688 9.01563 51.9141 9.01953C52.3594 9.01953 52.7227 8.65625 52.7227 8.21094C52.7266 7.76562 52.3633 7.40234 51.918 7.40234C51.4687 7.40234 51.1094 7.76172 51.1055 8.20703Z" fill="white"/>
<path d="M48.1797 8.20316C48.1758 8.64847 48.5391 9.01175 48.9844 9.01175C49.4336 9.01175 49.793 8.65238 49.7969 8.20706C49.7969 7.75784 49.4375 7.39847 48.9883 7.39847C48.543 7.39456 48.1797 7.75784 48.1797 8.20316Z" fill="white"/>
<path d="M45.0781 8.19922C45.0781 8.64453 45.4375 9.00781 45.8867 9.00781C46.332 9.00781 46.6953 8.64844 46.6953 8.19922C46.6953 7.75391 46.3359 7.39062 45.8867 7.39062C45.4414 7.39062 45.0781 7.75 45.0781 8.19922Z" fill="white"/>
<path d="M42.1524 8.19531C42.1485 8.64062 42.5118 9 42.9571 9.00391C43.4063 9.00391 43.7657 8.64062 43.7696 8.19531C43.7696 7.75 43.4063 7.38672 42.961 7.38672C42.5118 7.38672 42.1524 7.74609 42.1524 8.19531Z" fill="white"/>
<path d="M39.125 8.06641C39.125 8.51172 39.4844 8.875 39.9336 8.875C40.3789 8.875 40.7422 8.51562 40.7422 8.07031C40.7422 7.62109 40.3789 7.25781 39.9336 7.25781C39.4883 7.25781 39.125 7.61719 39.125 8.06641Z" fill="white"/>
<path d="M36.1992 7.85159C36.1953 8.30081 36.5586 8.66019 37.0039 8.66019C37.4493 8.66409 37.8125 8.30081 37.8125 7.8555C37.8164 7.41019 37.4532 7.04691 37.0078 7.04691C36.5586 7.043 36.1992 7.40628 36.1992 7.85159Z" fill="white"/>
<path d="M32.9766 7.75C32.9727 8.19531 33.336 8.55859 33.7813 8.55859C34.2305 8.55859 34.5899 8.19922 34.5899 7.75C34.5938 7.30469 34.2305 6.94531 33.7852 6.94141C33.3399 6.94141 32.9766 7.30469 32.9766 7.75Z" fill="white"/>
<path d="M29.9492 7.57422C29.9492 8.01953 30.3086 8.38281 30.7539 8.38281C31.2031 8.38281 31.5664 8.02344 31.5664 7.57422C31.5664 7.12891 31.207 6.76562 30.7578 6.76562C30.3125 6.76562 29.9492 7.125 29.9492 7.57422Z" fill="white"/>
<path d="M26.6289 7.32816C26.6289 7.77738 26.9883 8.13675 27.4375 8.13675C27.8828 8.13675 28.2461 7.77738 28.2461 7.33206C28.2461 6.88284 27.8867 6.52347 27.4375 6.52347C26.9922 6.51956 26.6289 6.88284 26.6289 7.32816Z" fill="white"/>
<path d="M23.6992 7.32422C23.6992 7.76953 24.0625 8.13281 24.5078 8.13281C24.9531 8.13281 25.3164 7.77344 25.3164 7.32422C25.3203 6.87891 24.957 6.51562 24.5117 6.51562C24.0664 6.51562 23.7031 6.875 23.6992 7.32422Z" fill="white"/>
<path d="M20.6016 7.32031C20.6016 7.76562 20.9609 8.125 21.4102 8.12891C21.8555 8.12891 22.2188 7.76562 22.2188 7.32031C22.2188 6.875 21.8594 6.51172 21.4102 6.51172C20.9648 6.51172 20.6016 6.87109 20.6016 7.32031Z" fill="white"/>
<path d="M17.6719 7.31253C17.6719 7.75784 18.0352 8.12112 18.4805 8.12112C18.9258 8.12112 19.2891 7.76175 19.2891 7.31644C19.293 6.86722 18.9297 6.50784 18.4844 6.50784C18.0352 6.50394 17.6719 6.86722 17.6719 7.31253Z" fill="white"/>
<path d="M14.6484 7.1875C14.6484 7.63281 15.0078 7.99219 15.4531 7.99609C15.9023 7.99609 16.2617 7.63281 16.2656 7.1875C16.2656 6.74219 15.9023 6.37891 15.457 6.37891C15.0117 6.37891 14.6484 6.73828 14.6484 7.1875Z" fill="white"/>
<path d="M11.7188 6.97266C11.7188 7.41797 12.0781 7.78125 12.5273 7.78125C12.9727 7.78125 13.3359 7.42187 13.3359 6.97656C13.3359 6.53125 12.9766 6.16797 12.5312 6.16406C12.082 6.16406 11.7188 6.52734 11.7188 6.97266Z" fill="white"/>
<path d="M8.49609 6.86719C8.49609 7.31641 8.85938 7.67969 9.30469 7.67969C9.75 7.67969 10.1133 7.32031 10.1133 6.87109C10.1172 6.42578 9.75391 6.0625 9.30859 6.0625C8.85937 6.0625 8.49609 6.42187 8.49609 6.86719Z" fill="white"/>
<path d="M5.47269 6.69144C5.46878 7.13675 5.83206 7.50003 6.27737 7.50003C6.72659 7.50394 7.08597 7.14066 7.08987 6.69534C7.08987 6.25003 6.72659 5.88675 6.28128 5.88675C5.83597 5.88284 5.47269 6.24613 5.47269 6.69144Z" fill="white"/>
<path d="M2.32812 39.1562C2.32812 38.7109 2.69141 38.3516 3.13672 38.3516C3.58594 38.3516 3.94922 38.7148 3.94531 39.1602C3.94531 39.6094 3.58203 39.9688 3.13672 39.9688C2.69141 39.9648 2.32812 39.6055 2.32812 39.1562Z" fill="white"/>
<path d="M2.33597 36.0157C2.33597 35.5703 2.69925 35.2071 3.14456 35.211C3.58988 35.211 3.95316 35.5743 3.95316 36.0196C3.94925 36.4649 3.58597 36.8282 3.14066 36.8242C2.69534 36.8242 2.33206 36.4649 2.33597 36.0157Z" fill="white"/>
<path d="M2.33984 32.875C2.33984 32.4297 2.70313 32.0703 3.14844 32.0703C3.59375 32.0703 3.95703 32.4336 3.95703 32.8789C3.95703 33.3242 3.59375 33.6875 3.14844 33.6875C2.69922 33.6875 2.33984 33.3242 2.33984 32.875Z" fill="white"/>
<path d="M2.34375 29.7344C2.34375 29.2891 2.70703 28.9297 3.15625 28.9297C3.60156 28.9297 3.96094 29.293 3.96094 29.7383C3.96094 30.1836 3.59766 30.5469 3.15234 30.543C2.70703 30.543 2.34375 30.1836 2.34375 29.7344Z" fill="white"/>
<path d="M2.35159 26.5938C2.35159 26.1484 2.71488 25.7852 3.16019 25.7852C3.6055 25.7891 3.96878 26.1523 3.96878 26.5977C3.96488 27.043 3.6055 27.4062 3.15628 27.4062C2.71097 27.4023 2.34769 27.0391 2.35159 26.5938Z" fill="white"/>
<path d="M2.35547 23.4532C2.35547 23.0078 2.71875 22.6446 3.16406 22.6485C3.61328 22.6485 3.97266 23.0078 3.97266 23.4571C3.97266 23.9024 3.60938 24.2617 3.16406 24.2617C2.71484 24.2617 2.35547 23.9024 2.35547 23.4532Z" fill="white"/>
<path d="M2.35938 20.3125C2.36328 19.8672 2.72266 19.5039 3.17188 19.5039C3.61719 19.5078 3.98047 19.8672 3.97656 20.3164C3.97656 20.7617 3.61328 21.1211 3.16797 21.1211C2.72266 21.1211 2.35938 20.7578 2.35938 20.3125Z" fill="white"/>
<path d="M2.36719 17.1719C2.36719 16.7266 2.73047 16.3633 3.17578 16.3633C3.62109 16.3672 3.98438 16.7305 3.98438 17.1758C3.98438 17.6211 3.62109 17.9844 3.17188 17.9805C2.72656 17.9805 2.36719 17.6172 2.36719 17.1719Z" fill="white"/>
<path d="M2.37109 14.0313C2.37109 13.586 2.73437 13.2227 3.18359 13.2266C3.62891 13.2266 3.98828 13.586 3.98828 14.0352C3.98828 14.4805 3.625 14.8399 3.17969 14.8399C2.73438 14.8399 2.37109 14.4766 2.37109 14.0313Z" fill="white"/>
<path d="M2.375 10.8906C2.37891 10.4453 2.74219 10.082 3.1875 10.082C3.63281 10.082 3.99609 10.4453 3.99219 10.8906C3.99219 11.3398 3.62891 11.6992 3.18359 11.6992C2.73828 11.6992 2.375 11.3359 2.375 10.8906Z" fill="white"/>
<path d="M2.38281 7.75003C2.38281 7.30472 2.74609 6.94144 3.19141 6.94534C3.63672 6.94534 4 7.30472 4 7.75003C4 8.19925 3.63672 8.56253 3.19141 8.55862C2.74219 8.55862 2.38281 8.19534 2.38281 7.75003Z" fill="white"/>
<path d="M103.035 37.043C103.035 36.5977 103.398 36.2383 103.844 36.2383C104.293 36.2383 104.652 36.6016 104.652 37.0469C104.652 37.4922 104.289 37.8555 103.844 37.8555C103.398 37.8555 103.035 37.4922 103.035 37.043Z" fill="white"/>
<path d="M103.238 40.4023C103.238 39.9531 103.602 39.5938 104.047 39.5938C104.496 39.5938 104.859 39.957 104.855 40.4023C104.855 40.8516 104.492 41.2109 104.047 41.2109C103.602 41.207 103.238 40.8477 103.238 40.4023Z" fill="white"/>
<path d="M105.777 38.7891C105.777 38.3398 106.141 37.9805 106.586 37.9805C107.035 37.9844 107.395 38.3437 107.395 38.7891C107.395 39.2383 107.031 39.5977 106.582 39.5977C106.137 39.5977 105.777 39.2344 105.777 38.7891Z" fill="white"/>
<path d="M108.23 37.0391C108.234 36.5937 108.594 36.2344 109.039 36.2344C109.488 36.2344 109.848 36.5977 109.848 37.043C109.848 37.4883 109.484 37.8516 109.039 37.8516C108.59 37.8516 108.23 37.4883 108.23 37.0391Z" fill="white"/>
<path d="M110.734 35.4414C110.734 34.9961 111.094 34.6328 111.543 34.6328C111.992 34.6367 112.352 34.9961 112.352 35.4453C112.352 35.8906 111.988 36.25 111.539 36.25C111.094 36.25 110.731 35.8867 110.734 35.4414Z" fill="white"/>
<path d="M113.199 33.8281C113.199 33.3828 113.563 33.0234 114.008 33.0234C114.453 33.0234 114.816 33.3867 114.816 33.832C114.816 34.2773 114.453 34.6406 114.004 34.6367C113.559 34.6367 113.199 34.2773 113.199 33.8281Z" fill="white"/>
<path d="M115.738 32.2148C115.738 31.7695 116.102 31.4102 116.547 31.4102C116.992 31.4102 117.355 31.7734 117.355 32.2188C117.355 32.6641 116.992 33.0273 116.543 33.0273C116.098 33.0273 115.738 32.6641 115.738 32.2148Z" fill="white"/>
<path d="M118.191 30.4727C118.191 30.0234 118.555 29.6641 119 29.6641C119.449 29.6641 119.809 30.0273 119.809 30.4727C119.809 30.918 119.445 31.2812 118.996 31.2812C118.551 31.2812 118.191 30.918 118.191 30.4727Z" fill="white"/>
<path d="M120.691 28.8711C120.695 28.4258 121.059 28.0625 121.504 28.0625C121.949 28.0664 122.312 28.4258 122.309 28.8711C122.309 29.3203 121.945 29.6797 121.5 29.6797C121.055 29.6797 120.691 29.3164 120.691 28.8711Z" fill="white"/>
<path d="M123.297 27.2578C123.297 26.8125 123.66 26.4493 124.109 26.4532C124.555 26.4532 124.914 26.8164 124.914 27.2617C124.914 27.7071 124.551 28.0703 124.105 28.0703C123.66 28.0664 123.297 27.7032 123.297 27.2578Z" fill="white"/>
<path d="M125.75 25.5117C125.75 25.0664 126.117 24.7031 126.562 24.7031C127.008 24.707 127.371 25.0703 127.367 25.5156C127.367 25.9609 127.004 26.3242 126.559 26.3203C126.113 26.3203 125.75 25.957 125.75 25.5117Z" fill="white"/>
<path d="M128.461 23.4961C128.465 23.0508 128.828 22.6875 129.273 22.6875C129.719 22.6914 130.082 23.0547 130.078 23.4961C130.078 23.9453 129.715 24.3047 129.27 24.3047C128.824 24.3047 128.461 23.9414 128.461 23.4961Z" fill="white"/>
<path d="M103.289 6.12112C103.285 6.56644 103.648 6.92972 104.094 6.92972C104.539 6.93362 104.906 6.57034 104.906 6.12503C104.906 5.67972 104.543 5.31644 104.098 5.31644C103.652 5.31253 103.289 5.67581 103.289 6.12112Z" fill="white"/>
<path d="M105.82 7.74219C105.82 8.1875 106.184 8.55078 106.629 8.55078C107.074 8.55078 107.438 8.19141 107.438 7.74219C107.438 7.30078 107.078 6.9375 106.629 6.93359C106.184 6.93359 105.824 7.29297 105.82 7.74219Z" fill="white"/>
<path d="M108.27 9.49609C108.27 9.94531 108.629 10.3047 109.074 10.3086C109.523 10.3086 109.883 9.94531 109.887 9.5C109.887 9.05469 109.527 8.69141 109.078 8.69141C108.633 8.69141 108.27 9.05078 108.27 9.49609Z" fill="white"/>
<path d="M110.766 11.1055C110.762 11.5508 111.125 11.9141 111.574 11.9141C112.02 11.9141 112.383 11.5547 112.383 11.1094C112.383 10.6602 112.023 10.3008 111.574 10.3008C111.129 10.2969 110.766 10.6602 110.766 11.1055Z" fill="white"/>
<path d="M113.227 12.7266C113.227 13.1719 113.586 13.5352 114.031 13.5352C114.48 13.5352 114.84 13.1758 114.844 12.7305C114.844 12.2812 114.484 11.918 114.035 11.918C113.586 11.918 113.227 12.2812 113.227 12.7266Z" fill="white"/>
<path d="M115.758 14.3477C115.758 14.793 116.117 15.1562 116.566 15.1562C117.012 15.1562 117.375 14.7969 117.375 14.3516C117.375 13.9023 117.016 13.5391 116.57 13.5391C116.121 13.5391 115.758 13.9023 115.758 14.3477Z" fill="white"/>
<path d="M118.207 16.1016C118.203 16.5469 118.566 16.9102 119.012 16.9102C119.461 16.9102 119.824 16.5508 119.824 16.1055C119.824 15.6562 119.461 15.2969 119.016 15.293C118.57 15.293 118.207 15.6562 118.207 16.1016Z" fill="white"/>
<path d="M120.703 17.7109C120.703 18.1562 121.063 18.5195 121.508 18.5195C121.953 18.5195 122.32 18.1602 122.32 17.7109C122.32 17.2656 121.957 16.9062 121.512 16.9023C121.066 16.9023 120.703 17.2617 120.703 17.7109Z" fill="white"/>
<path d="M123.301 19.332C123.301 19.7773 123.664 20.1406 124.109 20.1406C124.559 20.1406 124.918 19.7813 124.918 19.332C124.922 18.8867 124.559 18.5273 124.113 18.5234C123.668 18.5234 123.305 18.8828 123.301 19.332Z" fill="white"/>
<path d="M125.75 21.086C125.75 21.5313 126.113 21.8946 126.559 21.8946C127.004 21.8985 127.367 21.5352 127.367 21.0899C127.367 20.6407 127.008 20.2813 126.562 20.2813C126.113 20.2774 125.75 20.6407 125.75 21.086Z" fill="white"/>
<path d="M103.082 9.64453C103.082 9.19922 103.445 8.83594 103.895 8.83594C104.34 8.83594 104.699 9.19922 104.699 9.64844C104.699 10.0898 104.336 10.4531 103.891 10.4531C103.441 10.4531 103.082 10.0898 103.082 9.64453Z" fill="white"/>
<path d="M93.3086 24.832C93.3086 23.5938 94.3164 22.5899 95.5547 22.5938C96.793 22.5977 97.7969 23.6016 97.793 24.8399C97.793 26.0781 96.7852 27.082 95.5469 27.0781C94.3086 27.0781 93.3047 26.0703 93.3086 24.832Z" fill="#AB1B1D"/>
<path d="M13.2891 24.6992C13.293 23.457 14.3008 22.457 15.5391 22.457C16.7773 22.4609 17.7812 23.4648 17.7773 24.7031C17.7773 25.9453 16.7695 26.9453 15.5312 26.9453C14.293 26.9414 13.2891 25.9375 13.2891 24.6992Z" fill="#AB1B1D"/>
<path d="M93.3086 23.6289C93.3125 22.3906 94.3164 21.3906 95.5586 21.3906C96.7969 21.3945 97.7969 22.4023 97.7969 23.6367C97.793 24.875 96.7891 25.8789 95.5469 25.875C94.3086 25.875 93.3086 24.8672 93.3086 23.6289Z" fill="#F2D15E"/>
<path d="M13.293 23.4961C13.293 22.2578 14.3008 21.2539 15.5391 21.2539C16.7813 21.2578 17.7852 22.2656 17.7813 23.5039C17.7774 24.7422 16.7734 25.7422 15.5352 25.7422C14.293 25.7383 13.2891 24.7344 13.293 23.4961Z" fill="#F2D15E"/>
<path d="M26.7148 19.0312L26.7031 25.4922C26.7031 25.6953 26.6445 25.8555 26.5234 25.9961C26.3945 26.1484 26.2812 26.168 26.1875 26.168H25.668L25.6836 18.3516L26.1992 18.3555C26.3359 18.3555 26.4375 18.4062 26.5391 18.5234C26.6602 18.6602 26.7148 18.8242 26.7148 19.0312ZM29.9766 25.5L29.9883 19.0352C29.9883 17.9805 29.6328 17.0586 28.9297 16.2969C28.2227 15.5312 27.3516 15.1211 26.3359 15.082L22.4141 15.0742L22.3867 31.5781L25.6602 31.582L25.6641 29.4258H26.0508L26.7305 31.5859L30.1758 31.5898L29.0352 28.082C29.6602 27.3555 29.9727 26.4883 29.9766 25.5Z" fill="#DD5828"/>
<path d="M30.7773 31.5898L34.0469 31.5977L34.0742 15.0977L30.8008 15.0898L30.7773 31.5898Z" fill="#DD5828"/>
<path d="M38.75 26.6602C38.9023 26.6602 39.0391 26.6992 39.1719 26.7696L39.168 27.961C39.168 28.1719 39.1133 28.3321 38.9922 28.4727C38.8633 28.6172 38.7461 28.6367 38.6523 28.6367C38.5547 28.6367 38.4375 28.6172 38.3125 28.4688C38.1914 28.3321 38.1328 28.168 38.1367 27.961V26.6602H38.75ZM42.5781 26.0274C42.3555 25.8164 42.1445 25.5977 41.957 25.3789C41.7422 25.1328 41.5039 24.8828 41.2461 24.6407C40.9531 24.3633 40.5898 24.1407 40.1719 23.9688C39.75 23.8008 39.2734 23.711 38.7539 23.711H38.1445L38.1523 18.7461C38.1523 18.5391 38.207 18.375 38.3281 18.2383C38.4297 18.1211 38.5312 18.0703 38.668 18.0703C38.8047 18.0703 38.9063 18.1211 39.0078 18.2383C39.1289 18.3789 39.1836 18.5391 39.1836 18.7461V20.5196L42.4531 20.5235L42.457 18.7539C42.457 17.6719 42.0898 16.7344 41.3633 15.9688C40.6289 15.1953 39.7227 14.8008 38.6758 14.8008C37.625 14.7969 36.7187 15.1875 35.9805 15.961C35.25 16.7227 34.8789 17.6602 34.8789 18.7383L34.8633 27.9532C34.8633 29.0352 35.2305 29.9727 35.957 30.7383C36.6914 31.5117 37.5938 31.9063 38.6445 31.9063C39.582 31.9102 40.4219 31.586 41.1328 30.9453C41.6602 30.4727 42.0313 29.9063 42.2422 29.2578C42.4336 29.3164 42.6289 29.3633 42.8359 29.3985L43.4805 29.5039L43.4844 26.5352L43.1328 26.3985C42.9531 26.3242 42.7695 26.2032 42.5781 26.0274Z" fill="#DD5828"/>
<path d="M48.6094 19.4258L47.5781 19.4219L47.5859 15.1172L44.3125 15.1133L44.2852 31.6133L47.5586 31.6211L47.5703 22.6914L48.6055 22.6953L48.5898 31.6211L51.8633 31.625L51.8906 15.125L48.6172 15.1211L48.6094 19.4258Z" fill="#DD5828"/>
<path d="M52.6953 18.3984L54.3125 18.4023L54.2891 31.6289L57.5625 31.6367L57.582 18.4062L59.1992 18.4102L59.207 15.1367L52.6992 15.125L52.6953 18.3984Z" fill="#DD5828"/>
<path d="M78.3047 18.8164L78.293 26.2578L77.2578 26.2539L77.2734 18.8125C77.2734 18.6055 77.3281 18.4414 77.4492 18.3047C77.5781 18.1563 77.6953 18.1367 77.7891 18.1367C77.9258 18.1367 78.0273 18.1875 78.1289 18.3047C78.25 18.4453 78.3047 18.6055 78.3047 18.8164ZM77.793 14.8672C76.7422 14.8633 75.8398 15.2539 75.1016 16.0274C74.8359 16.3047 74.6172 16.6055 74.4492 16.9297L74.7305 15.1641L71.4297 15.1602L70.2148 22.7617L69.2969 20.9688L68.3984 22.7344L67.207 15.1524L63.9062 15.1485L65.8906 27.8711L66.7266 33.1719L69.2969 28.1563L71.8555 33.1914L72.6875 27.8828L73.9961 19.7305L73.9766 31.6641L77.25 31.668L77.2539 29.5117H78.2852V31.6719L81.5547 31.6758L81.5781 18.8203C81.5781 17.7383 81.2109 16.8008 80.4844 16.0352C79.75 15.2617 78.8438 14.8672 77.793 14.8672Z" fill="#DD5828"/>
<path d="M86.2422 15.1836L85.2812 18.1406L84.3281 15.1797L80.8867 15.1758L83.6133 23.6211L83.6445 23.7031L83.6289 31.6797L86.8867 31.6875L86.8984 23.707L89.6836 15.1914L86.2422 15.1836Z" fill="#DD5828"/>
<path d="M25.1289 17.1367L25.1133 26.0625H26.1875C26.4844 26.0664 26.7383 25.9414 26.9453 25.6992C27.1563 25.4531 27.2578 25.1641 27.2617 24.832L27.2695 18.3711C27.2734 18.0312 27.168 17.7383 26.9609 17.4961C26.7539 17.2578 26.5 17.1367 26.2031 17.1367H25.1289ZM26.3164 14.9766C27.1797 15.0117 27.918 15.3555 28.5234 16.0117C29.1289 16.668 29.4336 17.457 29.4336 18.375L29.4219 24.8359C29.418 25.7969 29.082 26.6133 28.4102 27.2812L29.4102 30.3711L27.1406 30.3672L26.4531 28.1914L26.1992 28.207H25.1094L25.1055 30.3633H22.9453L22.9648 18.3633L22.9727 14.9727L26.2031 14.9766H26.3164Z" fill="#F2D15E"/>
<path d="M31.3594 14.9883H33.5195L33.4922 30.3789L31.332 30.375L31.3594 14.9883Z" fill="#F2D15E"/>
<path d="M38.6445 23.6055H38.7539C39.2031 23.6055 39.6055 23.6797 39.9648 23.8243C40.3203 23.9688 40.6211 24.1563 40.8672 24.3828C41.1133 24.6133 41.3359 24.8477 41.5391 25.0821C41.7422 25.3164 41.9609 25.5469 42.2031 25.7735C42.4414 25.9961 42.6836 26.1563 42.9297 26.2539L42.9258 28.1875C42.5312 28.125 42.1719 28.0039 41.8555 27.8321C41.7344 28.6446 41.3711 29.3243 40.7617 29.8711C40.1523 30.4219 39.4492 30.6953 38.6484 30.6914C37.75 30.6914 36.9883 30.3594 36.3594 29.6993C35.7305 29.0352 35.418 28.2344 35.418 27.2969L35.4375 18.0821C35.4375 17.1407 35.7539 16.3438 36.3828 15.6836C37.0156 15.0235 37.7773 14.6914 38.6758 14.6953C39.5703 14.6953 40.332 15.0274 40.9609 15.6914C41.5898 16.3516 41.9023 17.1524 41.9023 18.0899L41.8984 19.3086L39.7383 19.3047L39.7422 18.086C39.7422 17.7461 39.6367 17.4532 39.4297 17.2149C39.2227 16.9766 38.9688 16.8555 38.6719 16.8555C38.3711 16.8555 38.1172 16.9727 37.9102 17.211C37.7031 17.4532 37.5977 17.7422 37.5977 18.0821L37.582 27.3008C37.5781 27.6407 37.6836 27.9336 37.8906 28.1719C38.0977 28.4102 38.3516 28.5313 38.6523 28.5313C38.9492 28.5313 39.2031 28.4141 39.4102 28.1758C39.6211 27.9336 39.7266 27.6446 39.7266 27.3047V25.8321C39.4414 25.5743 39.1172 25.4453 38.75 25.4453H38.6406L38.6445 23.6055Z" fill="#F2D15E"/>
<path d="M49.1719 15.0156L51.3359 15.0195L51.3086 30.4102L49.1484 30.4062L49.1641 21.4805L47.0195 21.4766L47.0039 30.4023L44.8438 30.3984L44.8672 15.0078L47.0312 15.0117L47.0234 19.3164L49.168 19.3203L49.1719 15.0156Z" fill="#F2D15E"/>
<path d="M58.6484 15.0312V17.1914H57.0312L57.0078 30.418L54.8477 30.4141L54.8672 17.1875L53.2539 17.1836V15.0234L58.6484 15.0312Z" fill="#F2D15E"/>
<path d="M66.7344 15.0469L68.0938 23.7188L68.0625 23.8633H68.1094L69.3008 21.5312L70.4961 23.8672L71.9023 15.0547L74.082 15.0586L72.1406 27.1328L71.5742 30.7461L69.9141 27.4844L69.293 26.2812L68.6836 27.4805L67.0117 30.7383L66.4414 27.125L64.5547 15.043L66.7344 15.0469Z" fill="#F2D15E"/>
<path d="M78.8477 26.1524L78.8555 22.5703L78.8633 18.1563C78.8633 17.8125 78.7578 17.5235 78.5508 17.2813C78.3438 17.0391 78.0898 16.9219 77.793 16.918C77.4922 16.918 77.2383 17.0391 77.0312 17.2813C76.8203 17.5196 76.7187 17.8086 76.7148 18.1524L76.707 22.5664L76.7031 26.1485L78.8477 26.1524ZM74.5586 18.1485C74.5586 17.2071 74.8711 16.4102 75.5039 15.7461C76.1367 15.0899 76.8984 14.7578 77.793 14.7618C78.6914 14.7618 79.4531 15.0938 80.082 15.7578C80.7109 16.418 81.0234 17.2188 81.0234 18.1563L81 30.461L78.8398 30.4571L78.8438 28.2969L76.6992 28.293L76.6953 30.4532L74.5352 30.4493L74.5586 18.1485Z" fill="#F2D15E"/>
<path d="M88.918 15.082L86.4102 22.7734L86.3438 22.9492L86.332 30.4688L84.1875 30.4648L84.1992 22.9453L84.1367 22.7695L81.6523 15.0703L83.9258 15.0742L85.2773 19.2852L86.6484 15.0781L88.918 15.082Z" fill="#F2D15E"/>
</svg>
