<svg width="88" height="53" viewBox="0 0 88 53" fill="none" xmlns="http://www.w3.org/2000/svg">
<path d="M60.2306 12.0439L51.8667 52.6799H43.6533V24.0879L60.2306 12.0439Z" fill="#FAD089"/>
<path d="M27.0762 12.0439L35.4402 52.6799H43.6535V24.0879L27.0762 12.0439Z" fill="#FF9C5B"/>
<path d="M63.1736 19.8839L53.2363 52.6799H56.1243L63.667 35.4053L69.059 27.4653L63.1736 19.8839Z" fill="#FF9C5B"/>
<path d="M0 26.8865L8.83333 36.2825L9.02933 30.1398L0 26.8865Z" fill="#FF9C5B"/>
<path d="M43.6535 -1.52588e-05L47.5668 12.044H60.2308L49.9855 19.488L53.8988 31.532L43.6535 24.088L33.4082 31.532L37.3215 19.488L27.0762 12.044H39.7402L43.6535 -1.52588e-05Z" fill="#DD5828"/>
<path d="M43.6535 52.6799V24.0879L33.4082 31.5319L37.1615 52.6799H43.6535Z" fill="#FAD089"/>
<path d="M43.6533 52.6799V24.0879L53.8986 31.5319L50.144 52.6799H43.6533Z" fill="#FF9C5B"/>
<path d="M77.7845 14.6185L78.0885 24.2118L87.3072 26.8865L78.2765 30.1398L78.5818 39.7332L72.6965 32.1505L63.6672 35.4051L69.0592 27.4652L63.1738 19.8838L72.3925 22.5585L77.7845 14.6185Z" fill="#DD5828"/>
<path d="M63.6667 35.4053L56.124 52.6799H59.8947L72.696 32.1506L63.6667 35.4053Z" fill="#FAD089"/>
<path d="M72.6968 32.1506L78.5822 39.7333L64.4115 52.6799H59.8955L72.6968 32.1506Z" fill="#FF9C5B"/>
<path d="M87.307 26.8865L78.4724 36.2825L78.2764 30.1398L87.307 26.8865Z" fill="#FAD089"/>
<path d="M9.52266 14.6185L9.21733 24.2118L0 26.8865L9.02933 30.1398L8.72399 39.7332L14.6093 32.1505L23.6387 35.4051L18.2467 27.4652L24.132 19.8838L14.9147 22.5585L9.52266 14.6185Z" fill="#DD5828"/>
<path d="M23.6387 35.4053L31.1827 52.6799H27.4107L14.6094 32.1506L23.6387 35.4053Z" fill="#FF9C5B"/>
<path d="M14.6099 32.1506L8.72461 39.7333L22.8966 52.6799H27.4113L14.6099 32.1506Z" fill="#FAD089"/>
<path d="M24.1324 19.8839L34.0711 52.6799H31.1831L23.6391 35.4053L18.2471 27.4653L24.1324 19.8839Z" fill="#FAD089"/>
</svg>
