<svg width="132" height="63" viewBox="0 0 132 63" fill="none" xmlns="http://www.w3.org/2000/svg">
<path d="M58.7007 14.6333C58.327 13.3316 57.9103 12.0126 57.4973 10.7146C56.5803 11.8504 55.6043 12.9333 54.6455 14.0322C55.9878 14.2437 57.3387 14.444 58.7007 14.6333Z" fill="#F2D15E"/>
<path d="M52.7158 21.2554C52.3913 19.9168 52.0558 18.5905 51.7103 17.274L50.2218 18.8768L48.6914 20.4367C50.0214 20.7207 51.3686 20.9972 52.7158 21.2554Z" fill="#DD5828"/>
<path d="M46.3727 27.54C46.1231 26.1891 45.8625 24.8481 45.5909 23.5181C44.5337 24.5211 43.5025 25.55 42.4072 26.5112C43.7212 26.8714 45.0549 27.2254 46.3727 27.54Z" fill="#F2D15E"/>
<path d="M39.7037 33.4551C39.5341 32.0931 39.3521 30.741 39.1567 29.4012C38.0381 30.3329 36.9527 31.3052 35.8096 32.2062C37.1088 32.6524 38.3995 33.058 39.7037 33.4551Z" fill="#DD5828"/>
<path d="M32.6821 38.9863C32.5961 37.6182 32.4953 36.26 32.3822 34.9127C31.212 35.7769 30.0578 36.6656 28.874 37.5113C30.1426 38.0349 31.3976 38.5045 32.6821 38.9863Z" fill="#F2D15E"/>
<path d="M25.3286 44.0815C25.3311 42.7097 25.3175 41.349 25.2868 39.9993L21.625 42.3705C22.8505 42.9593 24.0785 43.5198 25.3286 44.0815Z" fill="#DD5828"/>
<path d="M17.6607 48.6924C17.7529 47.3255 17.8304 45.9672 17.8894 44.62L14.0801 46.7416C15.2577 47.403 16.45 48.0507 17.6607 48.6924Z" fill="#F2D15E"/>
<path d="M72.4834 14.6333C72.8558 13.3316 73.2726 12.0126 73.6856 10.7146C74.6026 11.8504 75.5798 12.9333 76.5386 14.0322C75.1963 14.2437 73.8441 14.444 72.4834 14.6333Z" fill="#F2D15E"/>
<path d="M78.4678 21.2554C78.7935 19.9168 79.1279 18.5905 79.4733 17.274L80.9606 18.8768L82.491 20.4367C81.161 20.7207 79.8162 20.9972 78.4678 21.2554Z" fill="#DD5828"/>
<path d="M84.8105 27.54C85.0601 26.1891 85.3207 24.8481 85.5936 23.5181C86.6482 24.5211 87.682 25.55 88.7772 26.5112C87.462 26.8714 86.1283 27.2254 84.8105 27.54Z" fill="#F2D15E"/>
<path d="M91.4805 33.4551C91.6501 32.0931 91.832 30.741 92.0275 29.4012C93.1448 30.3329 94.2302 31.3052 95.3746 32.2062C94.0741 32.6524 92.7847 33.058 91.4805 33.4551Z" fill="#DD5828"/>
<path d="M98.502 38.9863C98.588 37.6182 98.6888 36.26 98.8031 34.9127C99.9733 35.7769 101.126 36.6656 102.31 37.5113C101.04 38.0349 99.7877 38.5045 98.502 38.9863Z" fill="#F2D15E"/>
<path d="M105.854 44.0815C105.852 42.7097 105.866 41.349 105.895 39.9993L109.558 42.3705C108.334 42.9593 107.105 43.5198 105.854 44.0815Z" fill="#DD5828"/>
<path d="M113.525 48.6924C113.431 47.3255 113.356 45.9672 113.296 44.62L117.105 46.7416C115.928 47.403 114.735 48.0507 113.525 48.6924Z" fill="#F2D15E"/>
<path d="M65.5915 10.432C61.5793 16.5891 56.4191 21.7136 50.1133 25.8057H65.5915H81.0684C74.7626 21.7136 69.6036 16.5891 65.5915 10.432Z" fill="#DD5828"/>
<path d="M96.5459 44.3789C90.304 40.2304 85.1782 35.9232 81.0678 31.9971H65.5908H50.1126C46.0046 35.9232 40.8776 40.2304 34.6369 44.3789C25.5236 50.4365 16.8577 54.2802 9.87207 56.7607C28.4454 56.7607 47.0175 56.7607 65.5908 56.7607C84.1641 56.7607 102.736 56.7607 121.308 56.7607C114.324 54.2802 105.659 50.4365 96.5459 44.3789Z" fill="#DD5828"/>
<path d="M65.5909 62.9521C62.1713 62.9521 59.3994 60.1803 59.3994 56.7606H71.7812C71.7812 60.1803 69.0106 62.9521 65.5909 62.9521Z" fill="#F6E5BF"/>
<path d="M53.2091 62.9521C49.7907 62.9521 47.0176 60.1803 47.0176 56.7606H59.3994C59.3994 60.1803 56.6275 62.9521 53.2091 62.9521Z" fill="#DD5828"/>
<path d="M40.8289 62.9521C37.4105 62.9521 34.6387 60.1803 34.6387 56.7606H47.0192C47.0192 60.1803 44.2474 62.9521 40.8289 62.9521Z" fill="#F6E5BF"/>
<path d="M28.4464 62.9521C25.0267 62.9521 22.2549 60.1803 22.2549 56.7606H34.6379C34.6379 60.1803 31.866 62.9521 28.4464 62.9521Z" fill="#DD5828"/>
<path d="M16.0636 62.9521C12.6439 62.9521 9.87207 60.1803 9.87207 56.7606H22.2539C22.2539 60.1803 19.4832 62.9521 16.0636 62.9521Z" fill="#F6E5BF"/>
<path d="M102.737 62.9521C99.3188 62.9521 96.5469 60.1803 96.5469 56.7606H108.927C108.927 60.1803 106.156 62.9521 102.737 62.9521Z" fill="#DD5828"/>
<path d="M90.3553 62.9521C86.9369 62.9521 84.165 60.1803 84.165 56.7606H96.5468C96.5468 60.1803 93.775 62.9521 90.3553 62.9521Z" fill="#F6E5BF"/>
<path d="M115.118 62.9521C111.7 62.9521 108.927 60.1803 108.927 56.7606H121.309C121.309 60.1803 118.538 62.9521 115.118 62.9521Z" fill="#F6E5BF"/>
<path d="M77.9738 62.9521C74.5541 62.9521 71.7822 60.1803 71.7822 56.7606H84.1653C84.1653 60.1803 81.3934 62.9521 77.9738 62.9521Z" fill="#DD5828"/>
<path d="M67.3124 25.8056H63.873V31.9971H67.3124V25.8056Z" fill="#F6E5BF"/>
<path d="M63.8719 25.8056H60.4326V31.9971H63.8719V25.8056Z" fill="#DD5828"/>
<path d="M60.4325 25.8056H56.9932V31.9971H60.4325V25.8056Z" fill="#F6E5BF"/>
<path d="M56.9943 25.8056H53.5537V31.9971H56.9943V25.8056Z" fill="#DD5828"/>
<path d="M53.5526 25.8056H50.1133V31.9971H53.5526V25.8056Z" fill="#F6E5BF"/>
<path d="M77.6288 25.8056H74.1895V31.9971H77.6288V25.8056Z" fill="#DD5828"/>
<path d="M74.19 25.8056H70.752V31.9971H74.19V25.8056Z" fill="#F6E5BF"/>
<path d="M81.0682 25.8056H77.6289V31.9971H81.0682V25.8056Z" fill="#F6E5BF"/>
<path d="M70.7521 25.8056H67.3115V31.9971H70.7521V25.8056Z" fill="#DD5828"/>
<path d="M22.2549 56.7607C22.2549 56.7607 38.8848 50.6479 53.5529 31.9971C56.3064 31.9971 56.9935 31.9971 56.9935 31.9971C56.9935 31.9971 47.4831 46.7009 34.6379 56.7607C27.7494 56.7607 22.2549 56.7607 22.2549 56.7607Z" fill="#F6E5BF"/>
<path d="M47.0176 56.7607C47.0176 56.7607 56.0473 45.6954 60.4319 31.9971C62.7268 31.9971 63.8712 31.9971 63.8712 31.9971C63.8712 31.9971 62.7269 46.3137 59.3994 56.7607C53.9048 56.7607 47.0176 56.7607 47.0176 56.7607Z" fill="#F6E5BF"/>
<path d="M108.927 56.7607C108.927 56.7607 92.2981 50.6479 77.6288 31.9971C74.8778 31.9971 74.1895 31.9971 74.1895 31.9971C74.1895 31.9971 83.6998 46.7009 96.5463 56.7607C103.432 56.7607 108.927 56.7607 108.927 56.7607Z" fill="#F6E5BF"/>
<path d="M84.1652 56.7607C84.1652 56.7607 75.1367 45.6954 70.7521 31.9971C68.4547 31.9971 67.3115 31.9971 67.3115 31.9971C67.3115 31.9971 68.4547 46.3137 71.7822 56.7607C77.2767 56.7607 84.1652 56.7607 84.1652 56.7607Z" fill="#F6E5BF"/>
<path d="M53.5537 25.8057C53.5537 25.8057 59.6076 21.0597 65.5926 10.432C61.0531 21.576 56.9943 25.8057 56.9943 25.8057H53.5537Z" fill="#F6E5BF"/>
<path d="M60.4326 25.8057C60.4326 25.8057 62.5997 22.1942 65.5916 10.432C64.6623 21.9877 63.8719 25.8057 63.8719 25.8057H60.4326Z" fill="#F6E5BF"/>
<path d="M77.6294 25.8057C77.6294 25.8057 71.5756 21.0597 65.5918 10.432C70.1325 21.576 74.1901 25.8057 74.1901 25.8057H77.6294Z" fill="#F6E5BF"/>
<path d="M70.752 25.8057C70.752 25.8057 68.5837 22.1942 65.5918 10.432C66.5198 21.9877 67.3115 25.8057 67.3115 25.8057H70.752Z" fill="#F6E5BF"/>
<path d="M64.4287 12.1279H66.7458L65.5596 8.49931L64.4287 12.1279Z" fill="#4B0934"/>
<path d="M65.375 9.2334H65.7094V0.306908H65.375V9.2334Z" fill="#4B0934"/>
<path d="M78.1117 3.50551C76.7485 3.98245 74.1598 3.77717 72.3025 2.55042C70.4464 1.3249 68.7021 1.59778 68.7021 1.59778V5.07275C68.7021 5.07275 70.1059 4.11888 72.3025 4.66342C74.4991 5.20919 77.0214 4.73226 78.1117 3.50551Z" fill="#F2D15E"/>
<path d="M71.5081 3.32236C71.5081 3.32236 69.4406 3.29655 68.703 5.07275C68.703 1.83994 68.6084 1.66047 68.6084 1.66047L71.5081 1.57197V3.32236Z" fill="#4B0934"/>
<path d="M71.5081 3.32227C69.5746 2.91294 67.6423 2.91294 65.71 3.32227V0.307016C67.6423 -0.10231 69.5746 -0.10231 71.5081 0.307016V3.32227Z" fill="#F2D15E"/>
<path d="M120.992 56.7607H121.26V48.5558H120.992V56.7607Z" fill="#4B0934"/>
<path d="M131.225 51.1246C130.13 51.5081 128.05 51.3434 126.558 50.3576C125.067 49.373 123.664 49.5918 123.664 49.5918V52.3833C123.664 52.3833 124.792 51.6175 126.558 52.0551C128.323 52.4939 130.348 52.1104 131.225 51.1246Z" fill="#F2D15E"/>
<path d="M125.918 50.9771C125.918 50.9771 124.257 50.9574 123.665 52.3833C123.665 49.7872 123.59 49.6434 123.59 49.6434L125.918 49.5709V50.9771Z" fill="#4B0934"/>
<path d="M125.918 50.9775C124.367 50.6493 122.813 50.6493 121.261 50.9775V48.556C122.813 48.2266 124.367 48.2266 125.918 48.556V50.9775Z" fill="#F2D15E"/>
<path d="M10.2328 56.7607H9.96484V48.5558H10.2328V56.7607Z" fill="#4B0934"/>
<path d="M0 51.1246C1.09522 51.5081 3.17504 51.3434 4.66607 50.3576C6.15833 49.373 7.55963 49.5918 7.55963 49.5918V52.3833C7.55963 52.3833 6.43121 51.6175 4.66607 52.0551C2.90093 52.4939 0.875196 52.1104 0 51.1246Z" fill="#F2D15E"/>
<path d="M5.30566 50.9771C5.30566 50.9771 6.96756 50.9574 7.56004 52.3833C7.56004 49.7872 7.63501 49.6434 7.63501 49.6434L5.30566 49.5709V50.9771Z" fill="#4B0934"/>
<path d="M5.30566 50.9775C6.85938 50.6493 8.41189 50.6493 9.96438 50.9775V48.556C8.41189 48.2266 6.85938 48.2266 5.30566 48.556V50.9775Z" fill="#F2D15E"/>
</svg>
