<svg width="49" height="12" viewBox="0 0 49 12" fill="none" xmlns="http://www.w3.org/2000/svg">
<path d="M6.30133 1.71661e-05L4.81331 4.57734H0L3.89466 7.40801L2.40667 11.9854L6.30133 9.15602L10.196 11.9854L8.70801 7.40801L12.6027 4.57734H7.78932L6.30133 1.71661e-05Z" fill="#DD5828"/>
<path d="M41.9016 1.71661e-05L40.4149 4.57734H35.6016L39.4962 7.40801L38.0082 11.9854L41.9016 9.15602L45.7962 11.9854L44.3082 7.40801L48.2029 4.57734H43.3909L41.9016 1.71661e-05Z" fill="#DD5828"/>
<path d="M24.1021 1.71661e-05L22.6154 4.57734H17.8008L21.6954 7.40801L20.2088 11.9854L24.1021 9.15602L27.9968 11.9854L26.5101 7.40801L30.4035 4.57734H25.5901L24.1021 1.71661e-05Z" fill="#DD5828"/>
</svg>
