<svg viewBox="0 0 78 64" fill="none" xmlns="http://www.w3.org/2000/svg">
<path d="M46.046 17.0788C46.3718 17.2342 46.642 17.4893 46.8055 17.8383C47.1695 18.6128 46.8275 19.5334 46.053 19.8975C45.2784 20.2534 44.3578 19.9207 43.9949 19.1461C43.6378 18.3716 43.9706 17.451 44.7451 17.0858L44.7694 17.0788C45.1868 16.8852 45.6506 16.9002 46.046 17.0788V17.0788ZM42.0667 11.3417C42.8412 10.9776 43.7619 11.3104 44.1259 12.0849C44.4819 12.8676 44.1491 13.7882 43.3757 14.1442C42.6012 14.5082 41.6794 14.1755 41.3153 13.4009C40.9594 12.6194 41.2922 11.6977 42.0667 11.3417V11.3417ZM55.4679 40.0735C56.2425 39.7176 57.1642 40.0504 57.5283 40.8249C57.8831 41.5983 57.5515 42.52 56.777 42.8841C56.0024 43.2401 55.0807 42.9073 54.7177 42.1328C54.3537 41.3594 54.6934 40.4376 55.4679 40.0735V40.0735ZM52.7895 34.3283C53.5641 33.9643 54.4859 34.3051 54.8418 35.0797C55.2059 35.8542 54.8731 36.776 54.0986 37.1389C53.3252 37.4949 52.4023 37.1621 52.0382 36.3887C51.6753 35.6142 52.0081 34.6924 52.7895 34.3283V34.3283ZM49.623 31.0377C49.5152 30.9218 49.4294 30.7908 49.361 30.6354C49.0352 29.9385 49.2671 29.1176 49.8862 28.7072L50.103 28.5843C50.8775 28.219 51.7982 28.553 52.1634 29.3275C52.5263 30.109 52.1936 31.0308 51.4109 31.3867C50.7848 31.6812 50.0729 31.5189 49.623 31.0377ZM47.2924 22.9005L47.4246 22.831C48.1992 22.475 49.1198 22.8078 49.4827 23.5823C49.6613 23.9615 49.6694 24.3719 49.5453 24.7441C49.4143 25.1314 49.1279 25.456 48.7325 25.6415C47.958 26.0056 47.0374 25.6647 46.6802 24.8913C46.3394 24.1632 46.6118 23.304 47.2924 22.9005ZM77.789 29.2579L66.0134 3.99409C60.7181 6.46377 57.5132 5.29502 55.0424 -0.000306434L41.4475 6.33971C41.8023 7.11424 41.4707 8.03602 40.6962 8.4001C39.9217 8.76417 38.9999 8.42329 38.637 7.64876L18.4134 17.0788L8.83725 21.5451L4.51588 23.5591C4.72574 24.0078 4.91126 24.4415 5.06663 24.8601C6.66207 29.142 5.51534 31.9526 1.29601 34.1579C1.04788 34.282 0.791642 34.4141 0.521484 34.5382L1.29601 36.1951L12.3052 59.7927C16.7101 57.7416 19.6668 58.2066 21.9602 61.4659C22.424 62.1233 22.8576 62.8979 23.2762 63.7883L28.255 61.4659L57.3961 47.878C57.0332 47.1034 57.373 46.1817 58.1463 45.8257C58.9209 45.4616 59.8438 45.7944 60.2067 46.5689L73.5627 40.3448L73.8027 40.2359C73.7169 40.0503 73.6311 39.873 73.5627 39.6944C72.2456 36.6357 72.2154 34.2982 73.5627 32.4013C74.4138 31.2012 75.8156 30.1786 77.789 29.2579" fill="#FAD089"/>
<path d="M68.3521 37.8591L24.9645 58.0978C22.3081 54.8849 18.7694 53.592 14.6741 54.3503L6.22033 36.2185C9.43209 33.5702 10.718 30.0326 9.96661 25.9374L28.9588 17.079L53.3554 5.69755C56.0106 8.91046 59.5493 10.1963 63.6446 9.44496L70.969 25.1385L72.0984 27.5699C68.8866 30.2263 67.5926 33.7627 68.3521 37.8591V37.8591ZM72.3163 25.2939L64.3032 8.11388L63.8533 8.21361C59.8194 9.10409 56.4976 7.88894 53.9815 4.62965L53.7032 4.25746L26.2028 17.079L8.63553 25.2707L8.73639 25.7275C9.6176 29.7532 8.41058 33.0751 5.14318 35.5912L4.78027 35.8776L14.0086 55.6745L14.4654 55.5736C18.4992 54.6912 21.813 55.8982 24.3372 59.1668L24.6155 59.5378L47.2148 49.0005L49.9025 47.7471L69.6762 38.5246L69.5823 38.069C68.6929 34.0421 69.9011 30.7214 73.1674 28.2041L73.5384 27.9178L72.3163 25.2939" fill="#DD5828"/>
<path d="M60.7637 25.1006L58.5259 28.0422L57.5508 24.4733L54.0665 23.257L57.1554 21.2291L57.2331 17.5361L60.112 19.8505L63.6519 18.7826L62.351 22.2355L64.4485 25.278L60.7637 25.1006ZM66.175 19.3009C65.9361 18.7895 65.6497 18.3258 65.3239 17.8991C65.092 17.6057 64.8439 17.3274 64.5807 17.0793C62.4519 15.0502 59.2239 14.4322 56.3971 15.7401C55.6527 16.088 55.0034 16.5367 54.4376 17.0793C52.2079 19.193 51.4716 22.5764 52.8444 25.5191C54.5547 29.197 58.9375 30.7913 62.6142 29.0718C65.1152 27.9111 66.648 25.5191 66.8416 22.9555C66.9344 21.7392 66.7245 20.4858 66.175 19.3009" fill="#DD5828"/>
<path d="M14.7142 29.1369C14.8823 29.4963 14.727 29.923 14.3675 30.0911C14.0081 30.2581 13.5814 30.1027 13.4145 29.7433C13.2463 29.3838 13.4017 28.9583 13.7623 28.7902C14.1206 28.6221 14.5473 28.7774 14.7142 29.1369" fill="#DD5828"/>
<path d="M17.0119 28.0653C17.1788 28.4247 17.0246 28.8526 16.6652 29.0196C16.3058 29.1877 15.8802 29.0311 15.7109 28.6729C15.5451 28.3123 15.7005 27.8867 16.0576 27.7186C16.4182 27.5517 16.8449 27.7059 17.0119 28.0653Z" fill="#DD5828"/>
<path d="M19.3089 26.9947C19.4771 27.353 19.3217 27.7808 18.9634 27.9478C18.6028 28.1148 18.1773 27.9594 18.0092 27.6011C17.8411 27.2405 17.9964 26.815 18.357 26.6469C18.7153 26.4799 19.142 26.6341 19.3089 26.9947Z" fill="#DD5828"/>
<path d="M21.6053 25.9225C21.7746 26.282 21.6181 26.7098 21.2598 26.878C20.8992 27.0449 20.4737 26.8884 20.3056 26.529C20.1386 26.1707 20.2928 25.7428 20.6534 25.5759C21.0117 25.4089 21.4384 25.5643 21.6053 25.9225" fill="#DD5828"/>
<path d="M23.9063 24.8519C24.0733 25.2102 23.9167 25.638 23.5596 25.805C23.199 25.972 22.7723 25.8166 22.6054 25.4571C22.4384 25.0989 22.5926 24.6722 22.9521 24.5041C23.3103 24.3371 23.7382 24.4925 23.9063 24.8519Z" fill="#DD5828"/>
<path d="M26.2027 23.7811C26.3708 24.1406 26.2154 24.5661 25.8548 24.7342C25.4954 24.9023 25.0687 24.747 24.9018 24.3875C24.7336 24.0281 24.889 23.6014 25.2496 23.4344C25.6079 23.2663 26.0357 23.4217 26.2027 23.7811Z" fill="#DD5828"/>
<path d="M28.4991 22.7096C28.6649 23.0679 28.5095 23.4969 28.1512 23.6639C27.7918 23.8308 27.3651 23.6755 27.197 23.316C27.03 22.9566 27.1854 22.5311 27.5437 22.3629C27.9043 22.1948 28.3298 22.3502 28.4991 22.7096" fill="#DD5828"/>
<path d="M30.7958 21.6383C30.9639 21.9977 30.8086 22.4244 30.448 22.5914C30.0908 22.7595 29.663 22.6041 29.496 22.2447C29.3267 21.8853 29.4833 21.4586 29.8427 21.2916C30.2022 21.1247 30.6277 21.2789 30.7958 21.6383" fill="#DD5828"/>
<path d="M33.0915 20.5665C33.2596 20.926 33.1054 21.3526 32.7459 21.5196C32.3853 21.6877 31.9598 21.5324 31.7905 21.1729C31.6236 20.8146 31.7801 20.388 32.1384 20.2198C32.4978 20.0517 32.9233 20.2071 33.0915 20.5665Z" fill="#DD5828"/>
<path d="M35.391 19.4953C35.558 19.8547 35.4026 20.2826 35.0432 20.4495C34.686 20.6165 34.2582 20.4611 34.0912 20.1017C33.9231 19.7422 34.0785 19.3167 34.4379 19.1486C34.7962 18.9816 35.224 19.1347 35.391 19.4953" fill="#DD5828"/>
<path d="M37.6867 18.4251C37.856 18.7834 37.7006 19.2101 37.3412 19.3782C36.9806 19.5463 36.555 19.3898 36.3869 19.0315C36.2188 18.6709 36.3753 18.2454 36.7348 18.0773C37.093 17.9103 37.5197 18.0645 37.6867 18.4251Z" fill="#DD5828"/>
<path d="M25.5602 52.3959C25.7284 52.7553 25.573 53.182 25.2147 53.349C24.8541 53.5171 24.4274 53.3617 24.2605 53.0023C24.0935 52.6428 24.2489 52.2161 24.6071 52.048C24.9666 51.8822 25.3933 52.0364 25.5602 52.3959" fill="#DD5828"/>
<path d="M27.8585 51.3244C28.0243 51.685 27.8701 52.1117 27.5106 52.2786C27.1512 52.4456 26.7245 52.2902 26.5575 51.9308C26.3906 51.5713 26.5448 51.1458 26.9042 50.9777C27.2636 50.8096 27.6903 50.9661 27.8585 51.3244Z" fill="#DD5828"/>
<path d="M30.1542 50.2533C30.3235 50.6139 30.1669 51.0395 29.8075 51.2064C29.448 51.3746 29.0225 51.2203 28.8544 50.8597C28.6874 50.5015 28.8416 50.0736 29.2022 49.9066C29.5605 49.7397 29.9884 49.8951 30.1542 50.2533" fill="#DD5828"/>
<path d="M32.451 49.1812C32.618 49.5407 32.4626 49.9674 32.1044 50.1344C31.7438 50.3025 31.3182 50.1471 31.1501 49.7877C30.9831 49.4282 31.1385 49.0027 31.4968 48.8346C31.8562 48.6676 32.2841 48.8218 32.451 49.1812Z" fill="#DD5828"/>
<path d="M34.7494 48.1096C34.9187 48.4702 34.7621 48.8957 34.4027 49.0638C34.0444 49.2308 33.6177 49.0766 33.4496 48.716C33.2815 48.3566 33.4369 47.931 33.7975 47.7629C34.1546 47.5959 34.5836 47.7501 34.7494 48.1096" fill="#DD5828"/>
<path d="M37.0473 47.0402C37.2142 47.3984 37.0589 47.8251 36.7006 47.9933C36.34 48.1602 35.9145 48.006 35.7463 47.6466C35.5782 47.2871 35.7347 46.8593 36.0919 46.6923C36.4525 46.5254 36.8791 46.6807 37.0473 47.0402Z" fill="#DD5828"/>
<path d="M39.3432 45.9689C39.5124 46.3283 39.3559 46.7538 38.9964 46.922C38.6382 47.0901 38.2126 46.9347 38.0434 46.5753C37.8752 46.2158 38.0306 45.7891 38.3912 45.6222C38.7495 45.4541 39.1762 45.6094 39.3432 45.9689" fill="#DD5828"/>
<path d="M41.6415 44.8974C41.8096 45.2568 41.6531 45.6835 41.2948 45.8504C40.9342 46.0186 40.5098 45.8632 40.3417 45.5026C40.1747 45.1443 40.329 44.7176 40.6884 44.5507C41.0467 44.3825 41.4734 44.5379 41.6415 44.8974" fill="#DD5828"/>
<path d="M43.9395 43.8258C44.1065 44.1852 43.9511 44.6119 43.5917 44.7789C43.2334 44.947 42.8067 44.7916 42.6386 44.4322C42.4716 44.0728 42.6258 43.6461 42.9853 43.478C43.3447 43.311 43.7702 43.4664 43.9395 43.8258Z" fill="#DD5828"/>
<path d="M46.2345 42.7545C46.4038 43.1139 46.2473 43.5406 45.889 43.7076C45.5284 43.8757 45.1029 43.7204 44.9347 43.3609C44.7689 43.0015 44.9231 42.5748 45.2826 42.4078C45.6409 42.2409 46.0687 42.3951 46.2345 42.7545Z" fill="#DD5828"/>
<path d="M48.5326 41.684C48.6996 42.0434 48.5454 42.4689 48.1848 42.6371C47.8253 42.804 47.3998 42.6498 47.2317 42.2904C47.0635 41.9309 47.2201 41.5042 47.5784 41.3361C47.9378 41.168 48.3633 41.3245 48.5326 41.684Z" fill="#DD5828"/>
<path d="M17.757 39.0907L19.7478 38.1689L19.2736 37.1625L14.0791 39.587L14.551 40.5922L16.5337 39.6635L19.1344 45.2383L20.3588 44.6724L17.757 39.0907" fill="#DD5828"/>
<path d="M21.3708 36.1869L20.1406 36.7596L23.2051 43.3408L24.4365 42.7669L21.3708 36.1869" fill="#DD5828"/>
<path d="M29.9169 38.4169L29.7024 38.425L29.6085 38.4946L29.547 38.6024C29.4844 38.7415 29.4218 38.8656 29.3534 38.9746C29.2746 39.0905 29.1911 39.1903 29.0972 39.2842C29.0044 39.3688 28.8885 39.4627 28.7644 39.5392C28.6403 39.6251 28.4931 39.7016 28.3238 39.7793C28.0444 39.9114 27.758 39.981 27.4704 39.9891C27.1771 39.9949 26.8988 39.9428 26.6263 39.8326C26.3573 39.7178 26.1011 39.5392 25.8599 39.2992C25.6211 39.0592 25.4112 38.7578 25.2419 38.3856C25.0703 38.0145 24.9637 37.6655 24.9324 37.3397C24.8918 37.0081 24.9161 36.6985 25.0019 36.4191C25.0854 36.1327 25.2269 35.8858 25.4193 35.6689C25.613 35.4521 25.8599 35.2735 26.1556 35.1344C26.3249 35.0567 26.4884 34.9953 26.6263 34.9558C26.7747 34.9257 26.9058 34.9013 27.0217 34.8944C27.1388 34.8863 27.2467 34.8863 27.3394 34.8944L27.6026 34.9257L27.8055 34.9477L27.9679 34.9176L28.107 34.8086L28.1534 34.6694L28.3006 33.9111C27.9133 33.7708 27.5017 33.7175 27.0611 33.7326C26.6124 33.7477 26.1475 33.8636 25.6756 34.0885C25.1874 34.3135 24.7839 34.5999 24.4674 34.9558C24.1509 35.3048 23.9108 35.6991 23.7636 36.1246C23.6163 36.5594 23.5618 37.0151 23.592 37.5032C23.6233 37.9832 23.7636 38.4714 23.9862 38.9653C24.2193 39.4627 24.4975 39.8732 24.8396 40.2199C25.1793 40.5608 25.5585 40.817 25.9701 40.9874C26.3875 41.1579 26.8281 41.2356 27.293 41.2193C27.7661 41.2043 28.245 41.0802 28.7343 40.8564C29.2746 40.6002 29.7024 40.2906 30.0108 39.9335C30.3216 39.5775 30.5292 39.1682 30.6463 38.7183L29.9169 38.4169" fill="#DD5828"/>
<path d="M33.7887 34.6542C33.6727 34.5835 33.5498 34.5302 33.442 34.507C33.333 34.4757 33.2171 34.4675 33.1 34.4757C33.2078 34.3435 33.2855 34.158 33.34 33.933L34.278 30.1636L33.2252 30.6586C33.1 30.7131 32.9991 30.7827 32.9388 30.8604C32.868 30.9381 32.8205 31.0459 32.7915 31.1781L32.0471 34.3203L31.9242 34.5615C31.8616 34.631 31.777 34.6925 31.6599 34.747L31.3735 34.8792L30.0818 32.1219L28.8574 32.6947L31.9312 39.2759L33.1544 38.7031L31.799 35.8079L32.1863 35.6293C32.3335 35.5598 32.4506 35.5284 32.5434 35.5284L32.8205 35.6061L35.8178 37.1703L36.0821 37.2642C36.1737 37.2712 36.2897 37.2398 36.4369 37.1703L37.5141 36.6671L33.7887 34.6542" fill="#DD5828"/>
<path d="M41.8663 33.4464L38.9467 34.8088L38.0725 32.9513L40.3799 31.8753L39.9393 30.9384L37.6389 32.0063L36.7867 30.179L39.7074 28.8166L39.2505 27.8484L35.0996 29.7836L38.1722 36.366L42.3232 34.4296L41.8663 33.4464Z" fill="#DD5828"/>
<path d="M43.4223 27.1297L45.4038 26.1998L44.9308 25.1934L39.7363 27.6167L40.2082 28.6232L42.1898 27.7014L44.7917 33.2761L46.0149 32.7033L43.4223 27.1297" fill="#DD5828"/>
<path d="M21.9601 61.4661H9.55601C9.55601 55.6281 7.14082 53.2117 1.2959 53.2117V36.1952L12.3051 59.7929C14.0617 58.9755 15.5888 58.5569 16.9338 58.5569C18.9629 58.5569 20.5815 59.5065 21.9601 61.4661" fill="#D0D1CC"/>
<path d="M28.2549 61.4661H21.9601C20.5815 59.5065 18.9629 58.5569 16.9338 58.5569C15.5888 58.5569 14.0617 58.9755 12.3051 59.7929L1.2959 36.1952V34.1581C4.3117 32.5812 5.75756 30.6959 5.75408 28.1844C5.75292 27.1827 5.52103 26.0812 5.06652 24.8602C6.90777 24.3025 8.13102 23.2265 8.83714 21.5453L18.4133 17.079H26.2026L8.63539 25.2707L8.73625 25.7275C9.61745 29.7532 8.41044 33.0751 5.14303 35.5912L4.78013 35.8776L14.0084 55.6745L14.4652 55.5736C15.3175 55.3869 16.1384 55.2942 16.9268 55.2942C19.8649 55.2942 22.3462 56.5893 24.337 59.1668L24.6153 59.5378L47.2147 49.0005C47.3237 49.7588 47.9741 50.3328 48.7475 50.3328C49.6078 50.3328 50.2966 49.6429 50.2966 48.7849C50.2966 48.3814 50.1481 48.0173 49.9023 47.7471L69.676 38.5246L69.5821 38.069C68.6928 34.0421 69.901 30.7214 73.1672 28.2041L73.5383 27.9178L72.3162 25.2939C72.7104 25.3252 73.129 25.3402 73.5626 25.3402V32.4014C72.8936 33.3418 72.5643 34.3923 72.5631 35.5842C72.562 36.7947 72.8982 38.1536 73.5626 39.6946V40.345L60.2066 46.5691C59.9434 46.0079 59.3857 45.6786 58.8036 45.6786C58.5833 45.6786 58.3596 45.7262 58.1462 45.8259C57.5839 46.0844 57.2511 46.6421 57.2511 47.2242C57.2499 47.4433 57.2975 47.666 57.396 47.8781L28.2549 61.4661" fill="#C8C298"/>
<path d="M56.1265 43.0269C55.5432 43.0269 54.982 42.6976 54.7177 42.1329C54.3536 41.3595 54.6933 40.4377 55.4679 40.0737C55.6789 39.9774 55.9004 39.9311 56.1183 39.9311C56.7027 39.9311 57.2627 40.2603 57.5283 40.825C57.8831 41.5984 57.5514 42.5202 56.7769 42.8842C56.5671 42.9805 56.3456 43.0269 56.1265 43.0269V43.0269ZM53.4492 37.2816C52.8648 37.2816 52.3037 36.9524 52.0381 36.3889C51.6752 35.6143 52.008 34.6925 52.7895 34.3285C53.0005 34.2299 53.222 34.1824 53.4411 34.1824C54.0243 34.1824 54.582 34.5163 54.8418 35.0798C55.2058 35.8543 54.873 36.7761 54.0985 37.139C53.8875 37.2364 53.6672 37.2816 53.4492 37.2816ZM50.7569 31.5341C50.3314 31.5341 49.9198 31.3555 49.6229 31.0378C50.0334 30.7596 50.2966 30.2946 50.2966 29.7601C50.2966 29.3508 50.1424 28.9786 49.8862 28.7073L50.103 28.5844C50.3163 28.4835 50.5401 28.436 50.7604 28.436C51.3425 28.436 51.899 28.7664 52.1634 29.3276C52.5263 30.1091 52.1935 31.0309 51.4109 31.3869C51.1987 31.4866 50.9761 31.5341 50.7569 31.5341ZM48.0797 25.7878C47.4976 25.7878 46.9399 25.4538 46.6802 24.8915C46.3393 24.1633 46.6118 23.3041 47.2924 22.9006C47.2309 23.0641 47.1996 23.2334 47.1996 23.4201C47.1996 24.2711 47.8965 24.9692 48.7475 24.9692C49.042 24.9692 49.3134 24.8834 49.5453 24.7442C49.4143 25.1315 49.1279 25.4562 48.7325 25.6417C48.5215 25.7402 48.2988 25.7878 48.0797 25.7878V25.7878ZM45.4036 20.0402C44.8192 20.0402 44.2592 19.7098 43.9948 19.1463C43.6377 18.3717 43.9705 17.4511 44.745 17.0859L44.7694 17.0789H46.046C46.3718 17.2343 46.6419 17.4894 46.8054 17.8384C47.1695 18.6129 46.8274 19.5335 46.0529 19.8976C45.843 19.9939 45.6216 20.0402 45.4036 20.0402" fill="#D0D1CC"/>
<path d="M24.9648 58.0981C22.8024 55.4824 20.0544 54.1397 16.8983 54.1397C16.1783 54.1397 15.4362 54.2093 14.6745 54.3507L6.2207 36.2188C9.43245 33.5706 10.7183 30.033 9.96698 25.9377L28.9592 17.0793H44.7698L44.7455 17.0863C43.971 17.4515 43.6382 18.3722 43.9953 19.1467C44.2597 19.7102 44.8197 20.0406 45.4041 20.0406C45.622 20.0406 45.8435 19.9943 46.0534 19.898C46.8279 19.5339 47.17 18.6133 46.8059 17.8388C46.6424 17.4898 46.3722 17.2347 46.0464 17.0793H47.2001C47.2001 17.9304 47.8969 18.6272 48.748 18.6272C49.6083 18.6272 50.2971 17.9304 50.2971 17.0793H54.4387C52.209 19.1931 51.4728 22.5764 52.8456 25.5192C54.0886 28.1918 56.7426 29.764 59.5114 29.764C60.5538 29.764 61.6101 29.5414 62.6154 29.0718C65.1163 27.9112 66.6492 25.5192 66.8428 22.9556C67.7634 24.1173 69.1188 24.8212 70.9694 25.1389L72.0987 27.5703C68.887 30.2266 67.593 33.763 68.3524 37.8595L24.9648 58.0981V58.0981ZM24.9091 51.9807C24.8083 51.9807 24.7051 52.0028 24.6077 52.048C24.2494 52.2161 24.094 52.6428 24.261 53.0022C24.3828 53.2631 24.6401 53.4162 24.9115 53.4162C25.0123 53.4162 25.1167 53.3953 25.2153 53.3489C25.5735 53.182 25.7289 52.7553 25.5608 52.3958C25.439 52.135 25.1805 51.9807 24.9091 51.9807V51.9807ZM27.2072 50.9105C27.1052 50.9105 27.002 50.9314 26.9046 50.9778C26.5452 51.1459 26.391 51.5715 26.5579 51.9309C26.6797 52.1929 26.9382 52.346 27.2084 52.346C27.3093 52.346 27.4125 52.324 27.511 52.2787C27.8705 52.1118 28.0247 51.6851 27.8589 51.3245C27.7371 51.0636 27.4774 50.9105 27.2072 50.9105V50.9105ZM29.5042 49.8392C29.4033 49.8392 29.3001 49.8612 29.2027 49.9064C28.8421 50.0734 28.6879 50.5013 28.8548 50.8595C28.9766 51.1216 29.2352 51.2746 29.5042 51.2746C29.6062 51.2746 29.7094 51.2526 29.8079 51.2062C30.1674 51.0393 30.3239 50.6137 30.1546 50.2531C30.0341 49.9923 29.7743 49.8392 29.5042 49.8392V49.8392ZM31.8023 48.7678C31.7002 48.7678 31.597 48.7898 31.4985 48.8351C31.1402 49.0032 30.9848 49.4287 31.1518 49.7882C31.2735 50.0491 31.5321 50.2033 31.8023 50.2033C31.9043 50.2033 32.0075 50.1812 32.106 50.1349C32.4643 49.9679 32.6197 49.5412 32.4527 49.1818C32.331 48.9209 32.0724 48.7678 31.8023 48.7678V48.7678ZM34.0992 47.6965C33.9983 47.6965 33.8951 47.7173 33.7977 47.7637C33.4371 47.9318 33.2817 48.3574 33.4499 48.7168C33.5716 48.9789 33.8302 49.1319 34.1003 49.1319C34.2024 49.1319 34.3056 49.1099 34.403 49.0647C34.7624 48.8965 34.9189 48.471 34.7496 48.1104C34.6291 47.8495 34.3693 47.6965 34.0992 47.6965V47.6965ZM36.3961 46.6251C36.2941 46.6251 36.1909 46.6471 36.0923 46.6924C35.7352 46.8593 35.5787 47.2872 35.7468 47.6466C35.8685 47.9075 36.1271 48.0605 36.3972 48.0605C36.4993 48.0605 36.6025 48.0385 36.701 47.9933C37.0593 47.8252 37.2147 47.3985 37.0477 47.0402C36.926 46.7782 36.6662 46.6251 36.3961 46.6251V46.6251ZM38.6942 45.5538C38.5921 45.5538 38.4889 45.5758 38.3915 45.6222C38.0309 45.7891 37.8756 46.2158 38.0437 46.5752C38.1666 46.8361 38.424 46.9892 38.6942 46.9892C38.7962 46.9892 38.8994 46.9683 38.9968 46.9219C39.3562 46.7538 39.5128 46.3283 39.3435 45.9688C39.2229 45.708 38.9643 45.5538 38.6942 45.5538V45.5538ZM40.9911 44.4824C40.8902 44.4824 40.787 44.5044 40.6885 44.5508C40.329 44.7178 40.1748 45.1445 40.3418 45.5027C40.4635 45.7648 40.721 45.9178 40.9911 45.9178C41.092 45.9178 41.1963 45.897 41.2949 45.8506C41.6532 45.6836 41.8097 45.2569 41.6416 44.8975C41.5198 44.6366 41.2613 44.4824 40.9911 44.4824V44.4824ZM16.5331 39.6636L19.1338 45.2384L20.3582 44.6726L17.7563 39.0908L19.7472 38.169L19.2729 37.1626L14.0785 39.5871L14.5504 40.5924L16.5331 39.6636V39.6636ZM43.288 43.4111C43.1871 43.4111 43.084 43.4331 42.9854 43.4783C42.626 43.6464 42.4718 44.0731 42.6387 44.4325C42.7616 44.6934 43.019 44.8476 43.2892 44.8476C43.39 44.8476 43.4933 44.8256 43.5918 44.7792C43.9512 44.6123 44.1066 44.1856 43.9397 43.8261C43.8167 43.5641 43.5582 43.4111 43.288 43.4111V43.4111ZM47.2152 42.2493L47.2001 42.4429C47.2001 43.3021 47.8969 43.9908 48.748 43.9908C49.6083 43.9908 50.2971 43.3021 50.2971 42.4429C50.2971 41.5918 49.6083 40.8938 48.748 40.8938C48.3619 40.8938 48.0059 41.0353 47.7346 41.2811H47.7265C47.7242 41.2834 47.7219 41.2857 47.7196 41.2881C47.672 41.2985 47.6245 41.3147 47.5792 41.3367C47.2349 41.4979 47.0772 41.9003 47.2152 42.2493ZM45.5861 42.3408C45.4841 42.3408 45.3809 42.3617 45.2835 42.4081C44.9241 42.5751 44.7698 43.0017 44.9357 43.3612C45.0574 43.6221 45.3159 43.7751 45.5861 43.7751C45.6881 43.7751 45.7913 43.7542 45.8899 43.7079C46.2482 43.5409 46.4047 43.1142 46.2354 42.7548C46.1148 42.4939 45.8563 42.3408 45.5861 42.3408ZM21.3716 36.1875L20.1414 36.7603L23.2059 43.3415L24.4373 42.7675L21.3716 36.1875V36.1875ZM56.1188 39.9315C55.9008 39.9315 55.6793 39.9778 55.4683 40.0741C54.6938 40.4382 54.3541 41.3599 54.7181 42.1333C54.9825 42.698 55.5437 43.0273 56.1269 43.0273C56.3461 43.0273 56.5675 42.9809 56.7774 42.8847C57.5519 42.5206 57.8835 41.5988 57.5287 40.8254C57.2632 40.2608 56.7032 39.9315 56.1188 39.9315V39.9315ZM27.2061 33.7306C27.1585 33.7306 27.111 33.7317 27.0623 33.7329C26.6136 33.748 26.1486 33.8639 25.6767 34.0889C25.1886 34.3138 24.7851 34.6002 24.4686 34.9561C24.152 35.3051 23.912 35.6994 23.7648 36.1249C23.6175 36.5597 23.563 37.0154 23.5932 37.5035C23.6245 37.9835 23.7647 38.4717 23.9874 38.9656C24.2204 39.463 24.4987 39.8735 24.8408 40.2202C25.1805 40.5611 25.5596 40.8173 25.9712 40.9877C26.3527 41.1431 26.7527 41.222 27.1736 41.222C27.2142 41.222 27.2548 41.2208 27.2942 41.2196C27.7673 41.2046 28.2461 41.0805 28.7354 40.8567C29.2757 40.6005 29.7036 40.2909 30.012 39.9338C30.3227 39.5778 30.5303 39.1685 30.6474 38.7186L29.9181 38.4172L29.7036 38.4253L29.6097 38.4949L29.5482 38.6027C29.4856 38.7418 29.423 38.8659 29.3546 38.9749C29.2757 39.0908 29.1923 39.1906 29.0983 39.2845C29.0056 39.3691 28.8896 39.463 28.7656 39.5396C28.6415 39.6254 28.4943 39.7019 28.325 39.7796C28.0456 39.9118 27.7591 39.9813 27.4716 39.9894C27.4542 39.9894 27.438 39.9894 27.4217 39.9894C27.147 39.9894 26.8837 39.9361 26.6275 39.8329C26.3585 39.7181 26.1023 39.5395 25.8611 39.2995C25.6222 39.0595 25.4124 38.7581 25.2431 38.3859C25.0715 38.0148 24.9648 37.6658 24.9335 37.34C24.8929 37.0084 24.9173 36.6988 25.0031 36.4194C25.0865 36.133 25.228 35.8861 25.4205 35.6692C25.6141 35.4524 25.8611 35.2738 26.1567 35.1347C26.326 35.057 26.4895 34.9956 26.6275 34.9561C26.7759 34.926 26.9069 34.9016 27.0229 34.8947C27.0809 34.89 27.1377 34.8889 27.191 34.8889C27.2443 34.8889 27.2942 34.89 27.3406 34.8947L27.6038 34.926L27.8067 34.948L27.969 34.9179L28.1081 34.8089L28.1545 34.6697L28.3018 33.9114C27.9562 33.7874 27.5922 33.7306 27.2061 33.7306V33.7306ZM30.0827 32.1224L28.8583 32.6952L31.9321 39.2763L33.1554 38.7036L31.7999 35.8084L32.1872 35.6298C32.3344 35.5602 32.4516 35.5289 32.5443 35.5289L32.8214 35.6066L35.8187 37.1707L36.083 37.2647C36.0912 37.2647 36.1004 37.2647 36.1097 37.2647C36.1967 37.2647 36.3045 37.2334 36.4378 37.1707L37.515 36.6675L33.7896 34.6547C33.6736 34.584 33.5507 34.5306 33.4429 34.5074C33.3594 34.4842 33.2725 34.4738 33.1832 34.4738C33.1565 34.4738 33.1287 34.475 33.1009 34.4761C33.2087 34.3439 33.2864 34.1584 33.3409 33.9335L34.2789 30.164L33.2261 30.6591C33.1009 30.7136 33 30.7832 32.9397 30.8609C32.869 30.9386 32.8214 31.0464 32.7925 31.1786L32.048 34.3207L31.9251 34.5619C31.8625 34.6315 31.7779 34.6929 31.6608 34.7474L31.3744 34.8796L30.0827 32.1224V32.1224ZM48.748 34.5538C47.8969 34.5538 47.2001 35.2507 47.2001 36.1029C47.2001 36.9609 47.8969 37.6519 48.748 37.6519C49.6083 37.6519 50.2971 36.9609 50.2971 36.1029C50.2971 35.2507 49.6083 34.5538 48.748 34.5538ZM53.4416 34.1828C53.2224 34.1828 53.001 34.2303 52.7899 34.3289C52.0085 34.6929 51.6757 35.6147 52.0386 36.3893C52.3041 36.9528 52.8653 37.2821 53.4497 37.2821C53.6677 37.2821 53.8879 37.2368 54.099 37.1394C54.8735 36.7765 55.2063 35.8547 54.8422 35.0802C54.5825 34.5167 54.0248 34.1828 53.4416 34.1828ZM39.2496 27.8485L35.0986 29.7837L38.1713 36.3661L42.3222 34.4297L41.8654 33.4465L38.9458 34.8089L38.0715 32.9514L40.3789 31.8754L39.9383 30.9386L37.6379 32.0064L36.7857 30.1791L39.7064 28.8167L39.2496 27.8485ZM42.19 27.7013L44.7919 33.2761L46.0151 32.7033L43.4225 27.1297L45.4041 26.1998L44.931 25.1933L39.7365 27.6166L40.2085 28.6231L42.19 27.7013V27.7013ZM49.6234 31.0383C49.9202 31.356 50.3319 31.5345 50.7574 31.5345C50.9765 31.5345 51.1991 31.487 51.4113 31.3873C52.194 31.0313 52.5267 30.1095 52.1638 29.328C51.8995 28.7668 51.3429 28.4364 50.7609 28.4364C50.5406 28.4364 50.3168 28.4839 50.1034 28.5848L49.8866 28.7077C49.6002 28.4063 49.1979 28.2126 48.748 28.2126C47.8969 28.2126 47.2001 28.9095 47.2001 29.7605C47.2001 30.6208 47.8969 31.3096 48.748 31.3096C49.0738 31.3096 49.3753 31.2087 49.6234 31.0383ZM14.0657 28.7228C13.9637 28.7228 13.8605 28.7437 13.7631 28.79C13.4025 28.9582 13.2471 29.3837 13.4153 29.7431C13.537 30.004 13.7956 30.1582 14.0657 30.1582C14.1678 30.1582 14.271 30.1362 14.3683 30.091C14.7278 29.9229 14.8832 29.4962 14.715 29.1367C14.5944 28.8758 14.3359 28.7228 14.0657 28.7228V28.7228ZM16.3615 27.6514C16.2594 27.6514 16.1563 27.6735 16.0577 27.7187C15.7006 27.8868 15.5452 28.3123 15.711 28.6729C15.8339 28.9338 16.0925 29.0869 16.3626 29.0869C16.4635 29.0869 16.5667 29.066 16.6653 29.0196C17.0247 28.8527 17.1789 28.4248 17.012 28.0654C16.8902 27.8045 16.6316 27.6514 16.3615 27.6514ZM18.6596 26.5801C18.5587 26.5801 18.4555 26.6021 18.357 26.6473C17.9964 26.8155 17.841 27.241 18.0091 27.6016C18.1309 27.8625 18.3894 28.0155 18.6607 28.0155C18.7616 28.0155 18.8648 27.9935 18.9634 27.9483C19.3216 27.7813 19.477 27.3535 19.3089 26.9952C19.1883 26.7331 18.9297 26.5801 18.6596 26.5801V26.5801ZM20.9553 25.5087C20.8545 25.5087 20.7513 25.5308 20.6539 25.576C20.2933 25.7429 20.1391 26.1708 20.306 26.5291C20.4278 26.7911 20.6863 26.9442 20.9577 26.9442C21.0585 26.9442 21.1629 26.9233 21.2603 26.8781C21.6186 26.7099 21.7751 26.2821 21.6058 25.9227C21.484 25.6618 21.2255 25.5087 20.9553 25.5087V25.5087ZM23.2534 24.4374C23.1514 24.4374 23.0494 24.4594 22.9508 24.5046C22.5914 24.6727 22.4372 25.0994 22.6041 25.4577C22.7259 25.7186 22.9844 25.8728 23.2546 25.8728C23.3566 25.8728 23.4598 25.8508 23.5584 25.8056C23.9155 25.6386 24.072 25.2107 23.905 24.8525C23.7833 24.5904 23.5236 24.4374 23.2534 24.4374ZM47.2928 22.9011C46.6122 23.3046 46.3398 24.1637 46.6806 24.8919C46.9404 25.4542 47.4981 25.7882 48.0801 25.7882C48.2993 25.7882 48.5219 25.7406 48.7329 25.6421C49.1283 25.4566 49.4147 25.1319 49.5457 24.7446C49.9956 24.4803 50.2971 23.9852 50.2971 23.4205C50.2971 22.5683 49.6083 21.8726 48.748 21.8726C48.0825 21.8726 47.5016 22.3051 47.2928 22.9011ZM25.5515 23.366C25.4506 23.366 25.3474 23.388 25.2489 23.4344C24.8883 23.6014 24.7329 24.0281 24.901 24.3875C25.0216 24.6484 25.2802 24.8026 25.5515 24.8026C25.6524 24.8026 25.7556 24.7806 25.8541 24.7342C26.2147 24.5661 26.3701 24.1406 26.202 23.7811C26.0802 23.5202 25.8217 23.366 25.5515 23.366ZM27.8484 22.2947C27.7476 22.2947 27.6432 22.3167 27.5447 22.3631C27.1864 22.5312 27.031 22.9567 27.198 23.3162C27.3209 23.577 27.5794 23.7312 27.8496 23.7312C27.9505 23.7312 28.0537 23.7092 28.1522 23.664C28.5105 23.497 28.6659 23.068 28.5001 22.7098C28.3772 22.4489 28.1186 22.2947 27.8484 22.2947V22.2947ZM30.1454 21.2245C30.0445 21.2245 29.9413 21.2453 29.8427 21.2917C29.4833 21.4587 29.3268 21.8854 29.496 22.2448C29.6178 22.5057 29.8764 22.6599 30.1454 22.6599C30.2474 22.6599 30.3506 22.6379 30.448 22.5915C30.8086 22.4245 30.9639 21.9978 30.7958 21.6384C30.6741 21.3775 30.4155 21.2245 30.1454 21.2245V21.2245ZM32.4434 20.1531C32.3414 20.1531 32.2382 20.174 32.1397 20.2204C31.7814 20.3885 31.6248 20.8152 31.7918 21.1734C31.9147 21.4343 32.1733 21.5885 32.4434 21.5885C32.5455 21.5885 32.6487 21.5665 32.7472 21.5201C33.1067 21.3532 33.2609 20.9265 33.0927 20.567C32.971 20.305 32.7124 20.1531 32.4434 20.1531V20.1531ZM34.7415 19.0817C34.6395 19.0817 34.5351 19.1038 34.4377 19.149C34.0783 19.3171 33.9229 19.7427 34.0911 20.1021C34.2128 20.363 34.4714 20.5172 34.7415 20.5172C34.8424 20.5172 34.9456 20.4952 35.043 20.4499C35.4024 20.283 35.5578 19.8551 35.3908 19.4957C35.2702 19.2336 35.0117 19.0817 34.7415 19.0817V19.0817ZM37.0373 18.0104C36.9352 18.0104 36.8332 18.0324 36.7347 18.0777C36.3752 18.2458 36.2187 18.6713 36.3868 19.0319C36.5086 19.2928 36.7671 19.4458 37.0373 19.4458C37.1393 19.4458 37.2425 19.425 37.3411 19.3786C37.7005 19.2105 37.8559 18.7838 37.6866 18.4255C37.5649 18.1635 37.3063 18.0104 37.0373 18.0104V18.0104ZM58.527 28.0422L57.5519 24.4733L54.0677 23.257L57.1565 21.2291L57.2342 17.5362L60.1132 19.8505L63.6531 18.7826L62.3521 22.2355L64.4496 25.278L60.7648 25.1006L58.527 28.0422ZM65.3251 17.8991C65.0932 17.6057 64.845 17.3275 64.5818 17.0793H65.3019C65.3019 17.3588 65.31 17.637 65.3251 17.8991Z" fill="#C8C298"/>
<path d="M24.6155 59.5378L24.3372 59.1668C22.3463 56.5893 19.8651 55.2942 16.927 55.2942C16.1385 55.2942 15.3176 55.3869 14.4654 55.5736L14.0086 55.6745L4.78027 35.8776L5.14318 35.5912C8.41058 33.0751 9.6176 29.7532 8.73639 25.7275L8.63553 25.2707L26.2028 17.079H28.9588L9.96661 25.9374C10.718 30.0326 9.43209 33.5702 6.22033 36.2185L14.6741 54.3503C15.4359 54.2089 16.1779 54.1393 16.898 54.1393C20.0541 54.1393 22.802 55.482 24.9645 58.0978L68.3521 37.8591C67.5926 33.7627 68.8866 30.2263 72.0984 27.5699L70.969 25.1385C71.3945 25.2162 71.8363 25.2707 72.3163 25.2939L73.5384 27.9178L73.1674 28.2041C69.9011 30.7214 68.6929 34.0421 69.5823 38.069L69.6762 38.5246L49.9025 47.7471C49.6149 47.4294 49.2056 47.2358 48.7476 47.2358C47.8966 47.2358 47.1997 47.9315 47.1997 48.7849L47.2148 49.0005L24.6155 59.5378" fill="#DD5828"/>
<path d="M59.5103 29.7634C56.7415 29.7634 54.0874 28.1912 52.8444 25.5186C51.4716 22.5758 52.2079 19.1925 54.4376 17.0788H64.5807C64.8439 17.3269 65.092 17.6052 65.3239 17.8985C65.4097 20.1062 65.8967 21.763 66.8417 22.955C66.648 25.5186 65.1152 27.9106 62.6142 29.0712C61.6089 29.5408 60.5527 29.7634 59.5103 29.7634V29.7634ZM57.2331 17.5356L57.1554 21.2285L54.0665 23.2565L57.5508 24.4727L58.5259 28.0416L60.7637 25.1L64.4485 25.2774L62.351 22.235L63.6519 18.782L60.112 19.8499L57.2331 17.5356" fill="#DD5828"/>
<path d="M14.0649 30.1582C13.7948 30.1582 13.5362 30.004 13.4145 29.7431C13.2463 29.3837 13.4017 28.9581 13.7623 28.79C13.8597 28.7436 13.9629 28.7228 14.0649 28.7228C14.3351 28.7228 14.5936 28.8758 14.7142 29.1367C14.8823 29.4961 14.727 29.9228 14.3675 30.0909C14.2701 30.1362 14.167 30.1582 14.0649 30.1582" fill="#DD5828"/>
<path d="M16.3626 29.0867C16.0924 29.0867 15.8339 28.9336 15.7109 28.6727C15.5451 28.3121 15.7005 27.8866 16.0576 27.7185C16.1562 27.6733 16.2594 27.6512 16.3614 27.6512C16.6316 27.6512 16.8901 27.8043 17.0119 28.0652C17.1788 28.4246 17.0246 28.8524 16.6652 29.0194C16.5666 29.0658 16.4634 29.0867 16.3626 29.0867Z" fill="#DD5828"/>
<path d="M18.6608 28.0156C18.3895 28.0156 18.1309 27.8626 18.0092 27.6017C17.8411 27.2411 17.9964 26.8156 18.357 26.6474C18.4556 26.6022 18.5588 26.5802 18.6596 26.5802C18.9298 26.5802 19.1884 26.7332 19.3089 26.9953C19.4771 27.3536 19.3217 27.7814 18.9634 27.9484C18.8649 27.9936 18.7617 28.0156 18.6608 28.0156" fill="#DD5828"/>
<path d="M20.9572 26.9436C20.6859 26.9436 20.4273 26.7905 20.3056 26.5285C20.1386 26.1702 20.2928 25.7424 20.6534 25.5754C20.7508 25.5302 20.854 25.5082 20.9549 25.5082C21.225 25.5082 21.4836 25.6612 21.6053 25.9221C21.7746 26.2815 21.6181 26.7094 21.2598 26.8775C21.1624 26.9227 21.0581 26.9436 20.9572 26.9436" fill="#DD5828"/>
<path d="M23.2559 25.8726C22.9857 25.8726 22.7271 25.7183 22.6054 25.4575C22.4384 25.0992 22.5926 24.6725 22.9521 24.5044C23.0506 24.4592 23.1527 24.4371 23.2547 24.4371C23.5249 24.4371 23.7846 24.5902 23.9063 24.8522C24.0733 25.2105 23.9167 25.6383 23.5596 25.8053C23.4611 25.8505 23.3579 25.8726 23.2559 25.8726Z" fill="#DD5828"/>
<path d="M25.5522 24.8027C25.2809 24.8027 25.0223 24.6485 24.9018 24.3876C24.7336 24.0282 24.889 23.6015 25.2496 23.4345C25.3482 23.3882 25.4513 23.3661 25.5522 23.3661C25.8224 23.3661 26.0809 23.5203 26.2027 23.7812C26.3708 24.1407 26.2154 24.5662 25.8548 24.7343C25.7563 24.7807 25.6531 24.8027 25.5522 24.8027Z" fill="#DD5828"/>
<path d="M27.8486 23.731C27.5784 23.731 27.3199 23.5768 27.197 23.3159C27.03 22.9564 27.1854 22.5309 27.5437 22.3628C27.6422 22.3164 27.7466 22.2944 27.8474 22.2944C28.1176 22.2944 28.3762 22.4486 28.4991 22.7095C28.6649 23.0678 28.5095 23.4968 28.1512 23.6637C28.0527 23.7089 27.9495 23.731 27.8486 23.731" fill="#DD5828"/>
<path d="M30.1454 22.6594C29.8764 22.6594 29.6178 22.5052 29.496 22.2444C29.3267 21.8849 29.4833 21.4582 29.8427 21.2913C29.9413 21.2449 30.0445 21.224 30.1454 21.224C30.4155 21.224 30.6741 21.3771 30.7958 21.6379C30.9639 21.9974 30.8086 22.4241 30.448 22.591C30.3506 22.6374 30.2474 22.6594 30.1454 22.6594" fill="#DD5828"/>
<path d="M32.4422 21.5881C32.172 21.5881 31.9134 21.4339 31.7905 21.1731C31.6236 20.8148 31.7801 20.3881 32.1384 20.22C32.2369 20.1736 32.3401 20.1527 32.4422 20.1527C32.7112 20.1527 32.9697 20.3046 33.0915 20.5667C33.2596 20.9261 33.1054 21.3528 32.7459 21.5197C32.6474 21.5661 32.5442 21.5881 32.4422 21.5881" fill="#DD5828"/>
<path d="M34.7417 20.5166C34.4715 20.5166 34.213 20.3624 34.0912 20.1015C33.9231 19.7421 34.0785 19.3166 34.4379 19.1484C34.5353 19.1032 34.6396 19.0812 34.7417 19.0812C35.0118 19.0812 35.2704 19.2331 35.391 19.4951C35.558 19.8546 35.4026 20.2824 35.0432 20.4494C34.9458 20.4946 34.8426 20.5166 34.7417 20.5166" fill="#DD5828"/>
<path d="M37.0374 19.4458C36.7672 19.4458 36.5087 19.2928 36.3869 19.0319C36.2188 18.6713 36.3753 18.2458 36.7348 18.0776C36.8333 18.0324 36.9353 18.0104 37.0374 18.0104C37.3064 18.0104 37.5649 18.1634 37.6867 18.4255C37.856 18.7838 37.7006 19.2104 37.3412 19.3786C37.2426 19.4249 37.1394 19.4458 37.0374 19.4458" fill="#DD5828"/>
<path d="M24.9109 53.416C24.6396 53.416 24.3822 53.263 24.2605 53.0021C24.0935 52.6427 24.2489 52.216 24.6071 52.0479C24.7045 52.0026 24.8077 51.9806 24.9086 51.9806C25.1799 51.9806 25.4385 52.1348 25.5602 52.3957C25.7284 52.7551 25.573 53.1818 25.2147 53.3488C25.1162 53.3952 25.0118 53.416 24.9109 53.416" fill="#DD5828"/>
<path d="M27.208 52.3457C26.9378 52.3457 26.6793 52.1927 26.5575 51.9306C26.3906 51.5712 26.5448 51.1457 26.9042 50.9775C27.0016 50.9312 27.1048 50.9103 27.2068 50.9103C27.477 50.9103 27.7367 51.0633 27.8585 51.3242C28.0243 51.6848 27.8701 52.1115 27.5106 52.2785C27.4121 52.3237 27.3089 52.3457 27.208 52.3457" fill="#DD5828"/>
<path d="M29.5037 51.2744C29.2347 51.2744 28.9761 51.1214 28.8544 50.8593C28.6874 50.5011 28.8416 50.0732 29.2022 49.9062C29.2996 49.861 29.4028 49.839 29.5037 49.839C29.7739 49.839 30.0336 49.9921 30.1542 50.2529C30.3235 50.6135 30.1669 51.0391 29.8075 51.206C29.7089 51.2524 29.6057 51.2744 29.5037 51.2744" fill="#DD5828"/>
<path d="M31.8006 50.2029C31.5304 50.2029 31.2719 50.0487 31.1501 49.7878C30.9831 49.4284 31.1385 49.0028 31.4968 48.8347C31.5954 48.7895 31.6986 48.7675 31.8006 48.7675C32.0707 48.7675 32.3293 48.9205 32.451 49.1814C32.618 49.5408 32.4626 49.9675 32.1044 50.1345C32.0058 50.1809 31.9026 50.2029 31.8006 50.2029" fill="#DD5828"/>
<path d="M34.1001 49.1311C33.8299 49.1311 33.5714 48.9781 33.4496 48.716C33.2815 48.3566 33.4369 47.931 33.7975 47.7629C33.8948 47.7165 33.998 47.6957 34.0989 47.6957C34.3691 47.6957 34.6288 47.8487 34.7494 48.1096C34.9187 48.4702 34.7621 48.8957 34.4027 49.0639C34.3053 49.1091 34.2021 49.1311 34.1001 49.1311" fill="#DD5828"/>
<path d="M36.3968 48.0605C36.1266 48.0605 35.8681 47.9075 35.7463 47.6466C35.5782 47.2872 35.7347 46.8593 36.0919 46.6924C36.1904 46.6471 36.2936 46.6251 36.3956 46.6251C36.6658 46.6251 36.9255 46.7782 37.0473 47.0402C37.2142 47.3985 37.0589 47.8252 36.7006 47.9933C36.602 48.0385 36.4988 48.0605 36.3968 48.0605" fill="#DD5828"/>
<path d="M38.6938 46.9893C38.4237 46.9893 38.1663 46.8362 38.0434 46.5753C37.8752 46.2159 38.0306 45.7892 38.3912 45.6222C38.4886 45.5759 38.5918 45.5538 38.6938 45.5538C38.964 45.5538 39.2226 45.708 39.3432 45.9689C39.5124 46.3284 39.3559 46.7539 38.9964 46.922C38.899 46.9684 38.7959 46.9893 38.6938 46.9893" fill="#DD5828"/>
<path d="M40.991 45.9177C40.7209 45.9177 40.4635 45.7647 40.3417 45.5026C40.1747 45.1443 40.329 44.7177 40.6884 44.5507C40.7869 44.5043 40.8902 44.4823 40.991 44.4823C41.2612 44.4823 41.5197 44.6365 41.6415 44.8974C41.8096 45.2568 41.6531 45.6835 41.2948 45.8505C41.1962 45.8968 41.0919 45.9177 40.991 45.9177" fill="#DD5828"/>
<path d="M43.289 44.8472C43.0189 44.8472 42.7615 44.6929 42.6386 44.4321C42.4716 44.0726 42.6258 43.6459 42.9853 43.4778C43.0838 43.4326 43.187 43.4106 43.2879 43.4106C43.558 43.4106 43.8166 43.5636 43.9395 43.8257C44.1065 44.1851 43.9511 44.6118 43.5917 44.7787C43.4931 44.8251 43.3899 44.8472 43.289 44.8472" fill="#DD5828"/>
<path d="M45.5852 43.7747C45.315 43.7747 45.0565 43.6216 44.9347 43.3607C44.7689 43.0013 44.9231 42.5746 45.2826 42.4076C45.38 42.3613 45.4832 42.3404 45.5852 42.3404C45.8554 42.3404 46.1139 42.4934 46.2345 42.7543C46.4038 43.1138 46.2473 43.5404 45.889 43.7074C45.7904 43.7538 45.6872 43.7747 45.5852 43.7747Z" fill="#DD5828"/>
<path d="M47.2138 42.2493C47.0759 41.9003 47.2335 41.4979 47.5779 41.3367C47.6231 41.3147 47.6707 41.2985 47.7182 41.2881C47.4504 41.5281 47.2602 41.8655 47.2138 42.2423V42.2493Z" fill="#DD5828"/>
<path d="M19.1344 45.2383L16.5337 39.6635L14.551 40.5922L14.0791 39.587L19.2736 37.1625L19.7478 38.1689L17.757 39.0907L20.3588 44.6724L19.1344 45.2383" fill="#DD5828"/>
<path d="M23.2051 43.3408L20.1406 36.7596L21.3708 36.1869L24.4365 42.7669L23.2051 43.3408" fill="#DD5828"/>
<path d="M27.1724 41.2217C26.7516 41.2217 26.3515 41.1428 25.9701 40.9875C25.5585 40.817 25.1793 40.5608 24.8396 40.2199C24.4975 39.8732 24.2193 39.4628 23.9862 38.9653C23.7636 38.4714 23.6233 37.9833 23.592 37.5032C23.5618 37.0151 23.6163 36.5594 23.7636 36.1246C23.9108 35.6991 24.1509 35.3049 24.4674 34.9559C24.7839 34.5999 25.1874 34.3135 25.6756 34.0886C26.1475 33.8636 26.6124 33.7477 27.0611 33.7326C27.1098 33.7314 27.1574 33.7303 27.2049 33.7303C27.591 33.7303 27.9551 33.7871 28.3006 33.9112L28.1534 34.6695L28.107 34.8086L27.9679 34.9176L27.8055 34.9478L27.6026 34.9257L27.3394 34.8944C27.293 34.8898 27.2432 34.8886 27.1899 34.8886C27.1365 34.8886 27.0797 34.8898 27.0217 34.8944C26.9058 34.9014 26.7747 34.9257 26.6263 34.9559C26.4884 34.9953 26.3249 35.0567 26.1556 35.1344C25.8599 35.2736 25.613 35.4521 25.4193 35.669C25.2269 35.8858 25.0854 36.1327 25.0019 36.4191C24.9161 36.6986 24.8918 37.0081 24.9324 37.3398C24.9637 37.6656 25.0703 38.0146 25.2419 38.3856C25.4112 38.7578 25.6211 39.0592 25.8599 39.2993C26.1011 39.5393 26.3573 39.7178 26.6263 39.8326C26.8826 39.9358 27.1458 39.9892 27.4206 39.9892C27.4368 39.9892 27.453 39.9892 27.4704 39.9892C27.758 39.9811 28.0444 39.9115 28.3238 39.7793C28.4931 39.7016 28.6403 39.6251 28.7644 39.5393C28.8885 39.4628 29.0044 39.3688 29.0972 39.2842C29.1911 39.1903 29.2746 39.0906 29.3534 38.9746C29.4218 38.8656 29.4844 38.7415 29.547 38.6024L29.6085 38.4946L29.7024 38.425L29.9169 38.4169L30.6463 38.7184C30.5292 39.1682 30.3216 39.5776 30.0108 39.9335C29.7024 40.2906 29.2746 40.6002 28.7343 40.8565C28.245 41.0802 27.7661 41.2043 27.293 41.2194C27.2536 41.2205 27.213 41.2217 27.1724 41.2217" fill="#DD5828"/>
<path d="M31.9312 39.2759L28.8574 32.6947L30.0818 32.1219L31.3735 34.8792L31.6599 34.747C31.777 34.6925 31.8616 34.631 31.9242 34.5615L32.0471 34.3203L32.7915 31.1781C32.8205 31.0459 32.868 30.9381 32.9388 30.8604C32.9991 30.7827 33.1 30.7131 33.2252 30.6586L34.278 30.1636L33.34 33.933C33.2855 34.158 33.2078 34.3435 33.1 34.4757C33.1278 34.4745 33.1556 34.4733 33.1823 34.4733C33.2716 34.4733 33.3585 34.4838 33.442 34.507C33.5498 34.5302 33.6727 34.5835 33.7887 34.6542L37.5141 36.6671L36.4369 37.1703C36.3036 37.2329 36.1958 37.2642 36.1088 37.2642C36.0995 37.2642 36.0902 37.2642 36.0821 37.2642L35.8178 37.1703L32.8205 35.6061L32.5434 35.5284C32.4506 35.5284 32.3335 35.5598 32.1863 35.6293L31.799 35.8079L33.1544 38.7031L31.9312 39.2759" fill="#DD5828"/>
<path d="M38.1722 36.366L35.0996 29.7836L39.2505 27.8484L39.7074 28.8166L36.7867 30.179L37.6389 32.0063L39.9393 30.9384L40.3799 31.8753L38.0725 32.9513L38.9467 34.8088L41.8663 33.4464L42.3232 34.4296L38.1722 36.366Z" fill="#DD5828"/>
<path d="M44.7917 33.2761L42.1898 27.7014L40.2082 28.6232L39.7363 27.6167L44.9308 25.1934L45.4038 26.1998L43.4223 27.1297L46.0149 32.7033L44.7917 33.2761" fill="#DD5828"/>
<path d="M47.9772 27.2919C47.1226 27.2919 46.4281 26.5985 46.4281 25.744C46.4281 24.8883 47.1226 24.1949 47.9772 24.1949C48.8329 24.1949 49.5251 24.8883 49.5251 25.744C49.5251 26.5985 48.8329 27.2919 47.9772 27.2919ZM47.9772 33.633C47.1226 33.633 46.4281 32.9397 46.4281 32.084C46.4281 31.2294 47.1226 30.5361 47.9772 30.5361C48.8329 30.5361 49.5251 31.2294 49.5251 32.084C49.5251 32.9397 48.8329 33.633 47.9772 33.633ZM47.9772 39.9742C47.1226 39.9742 46.4281 39.2809 46.4281 38.4263C46.4281 37.5706 47.1226 36.8773 47.9772 36.8773C48.8329 36.8773 49.5251 37.5706 49.5251 38.4263C49.5251 39.2809 48.8329 39.9742 47.9772 39.9742ZM47.9772 46.3165C47.1226 46.3165 46.4281 45.6232 46.4281 44.7675C46.4281 43.913 47.1226 43.2196 47.9772 43.2196C48.8329 43.2196 49.5251 43.913 49.5251 44.7675C49.5251 45.6232 48.8329 46.3165 47.9772 46.3165ZM47.9772 52.6566C47.1226 52.6566 46.4281 51.9644 46.4281 51.1087C46.4281 50.2541 47.1226 49.5608 47.9772 49.5608C48.8329 49.5608 49.5251 50.2541 49.5251 51.1087C49.5251 51.9644 48.8329 52.6566 47.9772 52.6566ZM47.9772 58.9989C47.1226 58.9989 46.4281 58.3055 46.4281 57.451C46.4281 56.5953 47.1226 55.902 47.9772 55.902C48.8329 55.902 49.5251 56.5953 49.5251 57.451C49.5251 58.3055 48.8329 58.9989 47.9772 58.9989ZM64.5264 19.4016H49.5251C49.5251 20.2573 48.8329 20.9507 47.9772 20.9507C47.1226 20.9507 46.4281 20.2573 46.4281 19.4016H8.78221C8.78221 25.2454 6.36702 27.6606 0.524414 27.6606V55.5332C6.36702 55.5332 8.78221 57.9473 8.78221 63.791H46.4281C46.4281 62.9365 47.1226 62.2431 47.9772 62.2431C48.8329 62.2431 49.5251 62.9365 49.5251 63.791H64.5264C64.5264 57.9473 66.9416 55.5332 72.7853 55.5332V27.6606C66.9416 27.6606 64.5264 25.2454 64.5264 19.4016Z" fill="#FAD089"/>
<path d="M12.7158 59.3399H60.5906C61.6387 55.3084 64.302 52.6451 68.3335 51.5981V31.5948C64.302 30.5489 61.6387 27.8856 60.5906 23.8541H12.7158C11.6711 27.8856 9.00659 30.5489 4.97509 31.5948V51.5981C9.00659 52.6451 11.6711 55.3084 12.7158 59.3399ZM61.5135 60.5017H11.794L11.6919 60.0472C10.791 56.0227 8.29237 53.524 4.26667 52.6219L3.81445 52.521V30.673L4.26667 30.5721C8.29237 29.67 10.791 27.1714 11.6919 23.1457L11.794 22.6923H61.5135L61.6155 23.1457C62.5165 27.1714 65.0152 29.67 69.0397 30.5721L69.4953 30.673V52.521L69.0397 52.6219C65.0152 53.524 62.5165 56.0227 61.6155 60.0472L61.5135 60.5017Z" fill="#DD5828"/>
<path d="M62.3743 46.2863L59.1057 44.5656L55.836 46.2863L56.4598 42.6432L53.815 40.0668L57.4709 39.5346L59.1057 36.2209L60.7406 39.5346L64.3976 40.0668L61.7517 42.6444L62.3743 46.2863ZM59.1057 34.2416C55.0441 34.2416 51.75 37.5345 51.75 41.5962C51.75 45.6578 55.0441 48.9519 59.1057 48.9519C63.1685 48.9519 66.4614 45.6578 66.4614 41.5962C66.4614 37.5345 63.1685 34.2416 59.1057 34.2416Z" fill="#DD5828"/>
<path d="M15.6675 28.7645C15.6675 29.1622 15.3463 29.4834 14.9498 29.4834C14.5544 29.4834 14.2344 29.1622 14.2344 28.7645C14.2344 28.368 14.5544 28.048 14.9498 28.048C15.3463 28.048 15.6675 28.368 15.6675 28.7645Z" fill="#DD5828"/>
<path d="M18.2019 28.7645C18.2019 29.1622 17.8807 29.4834 17.4853 29.4834C17.0888 29.4834 16.7676 29.1622 16.7676 28.7645C16.7676 28.368 17.0888 28.048 17.4853 28.048C17.8807 28.048 18.2019 28.368 18.2019 28.7645Z" fill="#DD5828"/>
<path d="M20.7341 28.7645C20.7341 29.1622 20.4129 29.4834 20.0175 29.4834C19.621 29.4834 19.2998 29.1622 19.2998 28.7645C19.2998 28.368 19.621 28.048 20.0175 28.048C20.4129 28.048 20.7341 28.368 20.7341 28.7645Z" fill="#DD5828"/>
<path d="M23.2724 28.7645C23.2724 29.1622 22.9489 29.4834 22.5547 29.4834C22.1581 29.4834 21.8369 29.1622 21.8369 28.7645C21.8369 28.368 22.1581 28.048 22.5547 28.048C22.9489 28.048 23.2724 28.368 23.2724 28.7645Z" fill="#DD5828"/>
<path d="M25.8064 28.7645C25.8064 29.1622 25.4852 29.4834 25.0886 29.4834C24.6921 29.4834 24.3721 29.1622 24.3721 28.7645C24.3721 28.368 24.6921 28.048 25.0886 28.048C25.4852 28.048 25.8064 28.368 25.8064 28.7645Z" fill="#DD5828"/>
<path d="M28.3415 28.7645C28.3415 29.1622 28.0203 29.4834 27.6249 29.4834C27.2272 29.4834 26.9072 29.1622 26.9072 28.7645C26.9072 28.368 27.2272 28.048 27.6249 28.048C28.0203 28.048 28.3415 28.368 28.3415 28.7645Z" fill="#DD5828"/>
<path d="M30.8749 28.7645C30.8749 29.1622 30.5537 29.4834 30.1572 29.4834C29.7606 29.4834 29.4395 29.1622 29.4395 28.7645C29.4395 28.368 29.7606 28.048 30.1572 28.048C30.5537 28.048 30.8749 28.368 30.8749 28.7645Z" fill="#DD5828"/>
<path d="M33.412 28.7645C33.412 29.1622 33.0897 29.4834 32.6931 29.4834C32.2977 29.4834 31.9766 29.1622 31.9766 28.7645C31.9766 28.368 32.2977 28.048 32.6931 28.048C33.0897 28.048 33.412 28.368 33.412 28.7645Z" fill="#DD5828"/>
<path d="M35.9442 28.7645C35.9442 29.1622 35.6231 29.4834 35.2265 29.4834C34.8311 29.4834 34.5088 29.1622 34.5088 28.7645C34.5088 28.368 34.8311 28.048 35.2265 28.048C35.6231 28.048 35.9442 28.368 35.9442 28.7645Z" fill="#DD5828"/>
<path d="M38.4802 28.7645C38.4802 29.1622 38.1578 29.4834 37.7624 29.4834C37.3659 29.4834 37.0459 29.1622 37.0459 28.7645C37.0459 28.368 37.3659 28.048 37.7624 28.048C38.1578 28.048 38.4802 28.368 38.4802 28.7645Z" fill="#DD5828"/>
<path d="M41.0138 28.7645C41.0138 29.1622 40.6926 29.4834 40.296 29.4834C39.9007 29.4834 39.5771 29.1622 39.5771 28.7645C39.5771 28.368 39.9007 28.048 40.296 28.048C40.6926 28.048 41.0138 28.368 41.0138 28.7645Z" fill="#DD5828"/>
<path d="M15.6675 54.4283C15.6675 54.826 15.3463 55.146 14.9498 55.146C14.5544 55.146 14.2344 54.826 14.2344 54.4283C14.2344 54.0317 14.5544 53.7117 14.9498 53.7117C15.3463 53.7117 15.6675 54.0317 15.6675 54.4283Z" fill="#DD5828"/>
<path d="M18.2019 54.4283C18.2019 54.826 17.8807 55.146 17.4853 55.146C17.0888 55.146 16.7676 54.826 16.7676 54.4283C16.7676 54.0317 17.0888 53.7117 17.4853 53.7117C17.8807 53.7117 18.2019 54.0317 18.2019 54.4283Z" fill="#DD5828"/>
<path d="M20.7341 54.4283C20.7341 54.826 20.4129 55.146 20.0175 55.146C19.621 55.146 19.2998 54.826 19.2998 54.4283C19.2998 54.0317 19.621 53.7117 20.0175 53.7117C20.4129 53.7117 20.7341 54.0317 20.7341 54.4283Z" fill="#DD5828"/>
<path d="M23.2724 54.4283C23.2724 54.826 22.9489 55.146 22.5547 55.146C22.1581 55.146 21.8369 54.826 21.8369 54.4283C21.8369 54.0317 22.1581 53.7117 22.5547 53.7117C22.9489 53.7117 23.2724 54.0317 23.2724 54.4283Z" fill="#DD5828"/>
<path d="M25.8064 54.4283C25.8064 54.826 25.4852 55.146 25.0886 55.146C24.6921 55.146 24.3721 54.826 24.3721 54.4283C24.3721 54.0317 24.6921 53.7117 25.0886 53.7117C25.4852 53.7117 25.8064 54.0317 25.8064 54.4283Z" fill="#DD5828"/>
<path d="M28.3415 54.4283C28.3415 54.826 28.0203 55.146 27.6249 55.146C27.2272 55.146 26.9072 54.826 26.9072 54.4283C26.9072 54.0317 27.2272 53.7117 27.6249 53.7117C28.0203 53.7117 28.3415 54.0317 28.3415 54.4283Z" fill="#DD5828"/>
<path d="M30.8749 54.4283C30.8749 54.826 30.5537 55.146 30.1572 55.146C29.7606 55.146 29.4395 54.826 29.4395 54.4283C29.4395 54.0317 29.7606 53.7117 30.1572 53.7117C30.5537 53.7117 30.8749 54.0317 30.8749 54.4283Z" fill="#DD5828"/>
<path d="M33.412 54.4283C33.412 54.826 33.0897 55.146 32.6931 55.146C32.2977 55.146 31.9766 54.826 31.9766 54.4283C31.9766 54.0317 32.2977 53.7117 32.6931 53.7117C33.0897 53.7117 33.412 54.0317 33.412 54.4283Z" fill="#DD5828"/>
<path d="M35.9442 54.4283C35.9442 54.826 35.6231 55.146 35.2265 55.146C34.8311 55.146 34.5088 54.826 34.5088 54.4283C34.5088 54.0317 34.8311 53.7117 35.2265 53.7117C35.6231 53.7117 35.9442 54.0317 35.9442 54.4283Z" fill="#DD5828"/>
<path d="M38.4802 54.4283C38.4802 54.826 38.1578 55.146 37.7624 55.146C37.3659 55.146 37.0459 54.826 37.0459 54.4283C37.0459 54.0317 37.3659 53.7117 37.7624 53.7117C38.1578 53.7117 38.4802 54.0317 38.4802 54.4283Z" fill="#DD5828"/>
<path d="M41.0138 54.4283C41.0138 54.826 40.6926 55.146 40.296 55.146C39.9007 55.146 39.5771 54.826 39.5771 54.4283C39.5771 54.0317 39.9007 53.7117 40.296 53.7117C40.6926 53.7117 41.0138 54.0317 41.0138 54.4283Z" fill="#DD5828"/>
<path d="M16.4081 39.0753H14.2178V45.2275H12.8682V39.0753H10.6768V37.9657H16.4081V39.0753Z" fill="#DD5828"/>
<path d="M18.7158 45.2275H17.3604V37.9657H18.7158V45.2275Z" fill="#DD5828"/>
<path d="M25.3269 43.5163L25.5229 43.6009L26.0551 44.1783C25.7594 44.5436 25.3988 44.8242 24.9686 45.0166C24.5385 45.2114 24.0202 45.3088 23.4196 45.3088C22.8793 45.3088 22.3958 45.2161 21.9644 45.0329C21.5354 44.8485 21.1667 44.5923 20.8618 44.2641C20.558 43.9349 20.3238 43.5441 20.1614 43.0885C19.9991 42.6328 19.918 42.1353 19.918 41.5974C19.918 41.0512 20.0038 40.5504 20.1789 40.0982C20.3528 39.6436 20.5986 39.2529 20.9151 38.9248C21.2316 38.5966 21.6085 38.3416 22.0479 38.1595C22.4862 37.9763 22.9709 37.8859 23.5042 37.8859C24.0329 37.8859 24.5025 37.9717 24.913 38.1456C25.3223 38.3218 25.6724 38.5479 25.96 38.8297L25.5078 39.4581L25.4058 39.5625L25.2318 39.6077L25.0753 39.5648L24.9002 39.4604L24.6788 39.3213C24.5953 39.2715 24.4979 39.2251 24.3889 39.1822C24.2776 39.1427 24.1489 39.1056 24.0051 39.0778C23.8579 39.05 23.6897 39.0361 23.4984 39.0361C23.1738 39.0361 22.8769 39.0929 22.6079 39.2077C22.3378 39.3248 22.1071 39.4906 21.9111 39.7109C21.7175 39.9289 21.5667 40.1967 21.4589 40.5144C21.3522 40.8309 21.2989 41.1904 21.2989 41.5974C21.2989 42.0043 21.3557 42.3673 21.4728 42.6861C21.5888 43.005 21.743 43.2716 21.9413 43.4908C22.1395 43.7076 22.3726 43.8746 22.6404 43.9894C22.9071 44.1065 23.1958 44.1633 23.5042 44.1633C23.6886 44.1633 23.8544 44.1529 24.0051 44.132C24.1524 44.1123 24.2904 44.0798 24.4144 44.0369C24.5408 43.994 24.6591 43.9372 24.7727 43.8688C24.8828 43.8004 24.9953 43.7157 25.1066 43.616L25.2121 43.5418L25.3269 43.5163" fill="#DD5828"/>
<path d="M28.3361 41.0093H28.6527C28.7802 41.0093 28.8857 40.992 28.9692 40.9572L29.1837 40.7879L31.1896 38.2521C31.2719 38.1443 31.3589 38.0701 31.4517 38.0283C31.5444 37.9866 31.6604 37.9657 31.8018 37.9657H32.9659L30.5206 40.9838C30.3768 41.1682 30.2272 41.2992 30.073 41.3758C30.1843 41.4152 30.2841 41.472 30.3722 41.5439C30.4603 41.6158 30.5449 41.7108 30.6273 41.8268L33.1468 45.2275H31.9572C31.796 45.2275 31.6766 45.2067 31.5978 45.1591L31.4006 44.962L29.346 42.2802L29.1246 42.0888C29.0399 42.0506 28.9194 42.0332 28.7628 42.0332H28.3361V45.2275H26.9854V37.9657H28.3361V41.0093" fill="#DD5828"/>
<path d="M35.2265 39.0394V41.0534H37.7681V42.0935H35.2265V44.1481H38.451V45.2275H33.8711V37.9657H38.451V39.0394H35.2265" fill="#DD5828"/>
<path d="M44.7196 39.0753H42.5293V45.2275H41.1774V39.0753H38.9883V37.9657H44.7196V39.0753Z" fill="#DD5828"/>
</svg>
