<svg width="18" height="18" viewBox="0 0 18 18" fill="none" xmlns="http://www.w3.org/2000/svg">
<path d="M2.91585 1.94689C2.87851 2.2435 2.76856 2.54408 2.6689 2.77465C2.62029 2.89012 2.57122 2.98682 2.53824 3.05718C2.50443 3.12646 2.48116 3.16724 2.48116 3.16724C2.48116 3.16724 2.38052 3.09326 2.27959 2.94316C2.17784 2.79197 2.07818 2.56356 2.09578 2.2518C2.11159 1.93931 2.25495 1.61132 2.39968 1.36631C2.43663 1.30569 2.47271 1.2494 2.50609 1.19997C2.53965 1.15017 2.57292 1.10831 2.59969 1.07295C2.65468 1.00259 2.68961 0.962173 2.68961 0.962173C2.68961 0.962173 2.76885 1.0596 2.83409 1.23208C2.86736 1.31868 2.89554 1.42296 2.91261 1.54276C2.93079 1.66364 2.93303 1.79751 2.91585 1.94689" fill="#FFD700"/>
<path d="M1.67906 4.13107C1.72965 4.45654 1.69721 4.80763 1.65932 5.08151C1.65044 5.15079 1.64041 5.21429 1.6297 5.27167C1.62053 5.32868 1.6118 5.37956 1.60364 5.42069C1.5873 5.50477 1.57431 5.5542 1.57431 5.5542C1.57431 5.5542 1.44563 5.50549 1.29383 5.37487C1.21871 5.30992 1.13651 5.22368 1.06477 5.11074C0.995133 4.9996 0.93058 4.86031 0.896048 4.69253C0.822329 4.35515 0.877031 3.96617 0.957389 3.66812C0.995998 3.51837 1.04294 3.39208 1.07802 3.30295C1.11255 3.21311 1.13864 3.16151 1.13864 3.16151C1.13864 3.16151 1.16711 3.18099 1.21066 3.22069C1.25421 3.26002 1.31328 3.32064 1.37531 3.40146C1.43661 3.48229 1.50045 3.58332 1.55443 3.70492C1.60844 3.82616 1.6551 3.96869 1.67906 4.13107" fill="#FFD700"/>
<path d="M1.04817 6.56447C1.19575 6.89716 1.26723 7.27712 1.32247 7.57625C1.33615 7.65131 1.34434 7.72203 1.35448 7.78445C1.36534 7.84688 1.37321 7.90281 1.37927 7.94935C1.39139 8.04173 1.39536 8.09766 1.39536 8.09766C1.39536 8.09766 1.35758 8.09621 1.29473 8.08467C1.23158 8.07312 1.14332 8.05183 1.042 8.00998C0.940783 7.9674 0.826616 7.90569 0.711437 7.81079C0.599398 7.71481 0.491003 7.58744 0.395454 7.41568C0.210671 7.07253 0.150484 6.62726 0.152577 6.27978C0.151169 6.19245 0.156401 6.11199 0.161164 6.0391C0.166974 5.96657 0.172314 5.90126 0.179098 5.84749C0.193748 5.74141 0.206161 5.67863 0.206161 5.67863C0.206161 5.67863 0.349051 5.73058 0.521746 5.86986C0.607444 5.93915 0.704834 6.03044 0.795872 6.14554C0.885792 6.25957 0.976001 6.39885 1.04817 6.56447" fill="#FFD700"/>
<path d="M1.17693 9.10255C1.44741 9.39302 1.65547 9.7553 1.82135 10.0414C1.84051 10.0782 1.8597 10.1132 1.87775 10.1464C1.89618 10.18 1.91397 10.2118 1.93061 10.2424C1.96344 10.3023 1.9909 10.3564 2.01346 10.4019C2.0587 10.4928 2.08577 10.5473 2.08577 10.5473C2.08577 10.5473 2.04658 10.5592 1.97766 10.5704C1.90845 10.582 1.80883 10.5928 1.68928 10.587C1.45488 10.5733 1.12689 10.4972 0.814691 10.2132C0.503183 9.92958 0.274992 9.49225 0.15404 9.12347C0.120771 9.03182 0.0997704 8.94342 0.0783368 8.86404C0.0580579 8.78393 0.0411351 8.71357 0.0291554 8.65439C0.00844348 8.53531 0 8.46207 0 8.46207C0 8.46207 0.0411351 8.46423 0.110343 8.47722C0.179984 8.49093 0.277806 8.51583 0.390711 8.55913C0.501632 8.60351 0.635826 8.6663 0.76901 8.7547C0.835981 8.79909 0.903493 8.84996 0.970572 8.9077C1.0405 8.96471 1.10971 9.02894 1.17693 9.10255" fill="#FFD700"/>
<path d="M2.11023 11.4654C2.15732 11.491 2.2016 11.5196 2.24811 11.5474C2.29448 11.5758 2.33973 11.605 2.38396 11.6362C2.47248 11.6975 2.55651 11.7625 2.64091 11.8266C2.68237 11.8591 2.72282 11.8916 2.76186 11.9244C2.78117 11.9406 2.80047 11.958 2.81938 11.9746C2.83937 11.9901 2.85857 12.0067 2.87802 12.0222C2.95383 12.0857 3.02459 12.1492 3.08957 12.2098C3.22532 12.3257 3.33076 12.4353 3.41292 12.5089C3.49212 12.5837 3.53683 12.6317 3.53683 12.6317C3.53683 12.6317 3.501 12.6579 3.43504 12.6944C3.36864 12.7305 3.27198 12.7752 3.14763 12.811C3.0239 12.8467 2.86997 12.8744 2.69843 12.8669C2.52592 12.86 2.32717 12.8244 2.1194 12.7305C1.69953 12.5454 1.31586 12.1694 1.06749 11.8303C1.00323 11.7465 0.951198 11.6635 0.902593 11.5892C0.855071 11.5141 0.812638 11.4477 0.782761 11.39C0.720625 11.2742 0.6875 11.2027 0.6875 11.2027C0.6875 11.2027 0.730187 11.1908 0.806178 11.1807C0.882278 11.1713 0.991251 11.1638 1.12176 11.1713C1.18744 11.175 1.25737 11.1829 1.33375 11.1944C1.41014 11.2063 1.49104 11.2229 1.5749 11.2457C1.65836 11.2684 1.74561 11.2976 1.83344 11.3348C1.9239 11.3705 2.01707 11.4135 2.11023 11.4654" fill="#FFD700"/>
<path d="M3.74076 13.4263C3.96924 13.4685 4.19335 13.5378 4.4087 13.6103C4.5137 13.6489 4.62 13.6854 4.71923 13.7233C4.76899 13.743 4.81705 13.7626 4.86425 13.781C4.91206 13.7983 4.95857 13.8159 5.00267 13.8337C5.17818 13.908 5.33279 13.9657 5.4392 14.0152C5.49207 14.04 5.53659 14.0548 5.56578 14.0689C5.59537 14.0816 5.61143 14.0877 5.61143 14.0877C5.61143 14.0877 5.58664 14.1288 5.53378 14.1906C5.48121 14.2526 5.40128 14.3363 5.28949 14.4211C5.17886 14.5026 5.03691 14.5845 4.85693 14.6444C4.76618 14.6759 4.66861 14.6967 4.56151 14.7098C4.45496 14.7217 4.33599 14.7281 4.21179 14.7166C4.08763 14.7051 3.95906 14.6827 3.83136 14.6502C3.70623 14.6146 3.58047 14.5704 3.45729 14.5207C3.33662 14.467 3.22007 14.4071 3.108 14.3458C2.99765 14.2826 2.89601 14.2144 2.80003 14.1483C2.77607 14.1321 2.75297 14.1154 2.73013 14.0999C2.70787 14.083 2.68615 14.0661 2.665 14.0495C2.62286 14.0166 2.58298 13.9845 2.5456 13.9538C2.47048 13.8915 2.40426 13.8358 2.35349 13.7849C2.25004 13.6861 2.19141 13.6232 2.19141 13.6232C2.19141 13.6232 2.23171 13.597 2.30684 13.5619C2.38142 13.5277 2.49093 13.4855 2.62809 13.4509C2.69657 13.4328 2.77141 13.4176 2.85318 13.4058C2.93563 13.3928 3.02414 13.3833 3.11774 13.379C3.21174 13.375 3.3097 13.3773 3.41344 13.3848C3.51834 13.3912 3.628 13.4043 3.74076 13.4263" fill="#FFD700"/>
<path d="M5.95476 14.7375C6.07849 14.7133 6.20309 14.6975 6.32656 14.6873C6.4513 14.6721 6.57521 14.6638 6.69602 14.6596C6.81806 14.6494 6.93648 14.6458 7.04993 14.6443C7.16467 14.6376 7.27361 14.6339 7.37554 14.6339C7.57949 14.6242 7.75457 14.6267 7.88014 14.6195C8.00502 14.6166 8.07957 14.6187 8.07957 14.6187C8.07957 14.6187 8.07282 14.6696 8.04929 14.7523C8.02559 14.8352 7.9846 14.9501 7.91214 15.0799C7.8762 15.1449 7.8315 15.2133 7.77751 15.2834C7.7506 15.3181 7.72043 15.3535 7.68846 15.3884C7.65602 15.422 7.62091 15.4559 7.58328 15.4888C7.50674 15.5555 7.41823 15.6193 7.31575 15.6799C7.21342 15.7398 7.09785 15.7872 6.96636 15.8309C6.83444 15.8763 6.69602 15.9008 6.55183 15.9192C6.40678 15.9401 6.2606 15.9415 6.11345 15.9373C5.96573 15.9362 5.82226 15.9181 5.68157 15.8964C5.54063 15.8777 5.40828 15.8448 5.28339 15.8124C5.22126 15.7969 5.16064 15.7803 5.10312 15.7629C5.0469 15.7439 4.99288 15.725 4.94215 15.7067C4.84054 15.6695 4.74961 15.6366 4.6773 15.6038C4.53213 15.5374 4.44727 15.4934 4.44727 15.4934C4.44727 15.4934 4.47859 15.4527 4.54299 15.3921C4.60668 15.3306 4.70339 15.2492 4.8304 15.1666C4.9568 15.085 5.11777 14.9952 5.30511 14.9201C5.49116 14.8483 5.71047 14.7771 5.95476 14.7375" fill="#FFD700"/>
<path d="M3.39143 2.30672C3.12391 2.40487 2.89063 2.62137 2.72909 2.81189C2.6506 2.90824 2.58576 2.9952 2.54542 3.06123C2.504 3.12654 2.48145 3.16732 2.48145 3.16732C2.48145 3.1666 2.59901 3.2117 2.77729 3.22361C2.95547 3.23587 3.19521 3.21927 3.44357 3.10958C3.69067 2.99736 3.91013 2.82272 4.07024 2.67622C4.11068 2.63977 4.14691 2.6055 4.17877 2.57338C4.21092 2.54199 4.23983 2.51493 4.26263 2.49075C4.30875 2.44348 4.33411 2.41353 4.33411 2.41353C4.33411 2.41353 4.23232 2.34173 4.06432 2.2894C3.98046 2.26379 3.87784 2.24214 3.7641 2.24069C3.65203 2.23997 3.52364 2.25585 3.39143 2.30672" fill="#FFD700"/>
<path d="M2.29138 4.37267C2.03739 4.55777 1.8495 4.85474 1.73465 5.10408C1.70603 5.16686 1.68178 5.22604 1.66064 5.27944C1.64032 5.33393 1.62495 5.38228 1.61214 5.42305C1.58634 5.50424 1.57422 5.5544 1.57422 5.5544C1.57422 5.5544 1.71235 5.56631 1.90658 5.52806C2.00397 5.50857 2.11421 5.47718 2.22949 5.42631C2.34705 5.37651 2.46432 5.30651 2.58203 5.21341C2.81347 5.02325 2.99472 4.77067 3.12411 4.56427C3.18783 4.46107 3.24026 4.37014 3.27523 4.30447C3.30864 4.23807 3.32906 4.19875 3.32906 4.19875C3.32906 4.19875 3.29637 4.18756 3.23914 4.17601C3.18163 4.16374 3.10001 4.15112 3.00305 4.1504C2.90591 4.14859 2.79164 4.15906 2.66971 4.19117C2.54721 4.22365 2.4198 4.28174 2.29138 4.37267" fill="#FFD700"/>
<path d="M1.76554 6.64241C1.55185 6.90763 1.44191 7.2764 1.40864 7.57517C1.40019 7.6495 1.39186 7.71986 1.38977 7.78301C1.38836 7.84579 1.38836 7.90209 1.38948 7.94827C1.39117 8.04173 1.39583 8.09766 1.39583 8.09766C1.39583 8.09766 1.4326 8.089 1.49279 8.06626C1.55369 8.04389 1.63755 8.00781 1.73155 7.95404C1.82587 7.90136 1.93044 7.83064 2.0318 7.74116C2.13554 7.65203 2.24054 7.5445 2.32833 7.41424C2.51059 7.15516 2.62209 6.85278 2.69988 6.60814C2.71764 6.54715 2.73553 6.49014 2.74979 6.43854C2.76404 6.38694 2.77447 6.34111 2.78403 6.30251C2.80406 6.22601 2.81265 6.17874 2.81265 6.17874C2.81265 6.17874 2.66196 6.16611 2.45394 6.21446C2.34879 6.23864 2.23307 6.27978 2.1131 6.34725C1.99175 6.41473 1.87404 6.50927 1.76554 6.64241" fill="#FFD700"/>
<path d="M1.94045 8.92806C1.81427 9.27373 1.83289 9.69194 1.90787 10.0088C1.91649 10.0488 1.92422 10.0871 1.93396 10.1235C1.94507 10.1603 1.95539 10.1942 1.96495 10.2271C1.98541 10.2927 2.00526 10.3497 2.02204 10.3977C2.03853 10.4464 2.05632 10.4825 2.06743 10.5074C2.07872 10.5334 2.08518 10.5471 2.08518 10.5471C2.08518 10.5471 2.11972 10.5247 2.17301 10.4796C2.22616 10.4349 2.2979 10.3678 2.37443 10.2801C2.53172 10.1008 2.69947 9.84241 2.79332 9.51044C2.88775 9.17884 2.89114 8.8346 2.88775 8.56722C2.88468 8.50047 2.88634 8.43768 2.88256 8.38284C2.88003 8.32691 2.87494 8.27855 2.87141 8.23778C2.86791 8.15659 2.86141 8.10788 2.86141 8.10788C2.86141 8.10788 2.82154 8.11726 2.75655 8.14072C2.69157 8.16417 2.60136 8.20242 2.50141 8.26087C2.39951 8.32005 2.29577 8.39943 2.19484 8.50841C2.14483 8.56253 2.09604 8.62423 2.05166 8.69387C2.00977 8.76388 1.97213 8.84073 1.94045 8.92806" fill="#FFD700"/>
<path d="M2.83628 11.0294C2.83487 11.0792 2.83361 11.1297 2.83798 11.1792C2.8422 11.229 2.84812 11.2791 2.85685 11.3293C2.87251 11.4289 2.89549 11.5288 2.92862 11.6236C2.94424 11.6717 2.96145 11.7189 2.97892 11.7652C2.98866 11.7879 2.99739 11.8117 3.00685 11.8344C3.01713 11.8565 3.02742 11.8778 3.03784 11.9C3.07956 11.9863 3.12383 12.0693 3.16767 12.1454C3.26196 12.2927 3.34892 12.4197 3.42152 12.5012C3.49213 12.5842 3.53753 12.6316 3.53753 12.6316C3.53753 12.6316 3.56484 12.5965 3.60349 12.5319C3.64267 12.4674 3.69269 12.3724 3.74006 12.2555C3.78798 12.1387 3.83081 12.0008 3.86394 11.8431C3.89623 11.6858 3.91074 11.5158 3.90453 11.3307C3.88862 10.9627 3.77968 10.613 3.68803 10.3413C3.66339 10.2749 3.64336 10.2107 3.62138 10.1558C3.60024 10.1003 3.57783 10.053 3.56318 10.0111C3.53132 9.92995 3.50862 9.88305 3.50862 9.88305C3.50862 9.88305 3.4707 9.90578 3.41178 9.95124C3.353 9.99707 3.27336 10.0656 3.19048 10.1594C3.14949 10.2056 3.10633 10.259 3.06675 10.3182C3.0277 10.3767 2.99075 10.4427 2.95734 10.5145C2.92422 10.5867 2.89549 10.6668 2.87294 10.753C2.85292 10.8378 2.84007 10.9298 2.83628 11.0294" fill="#FFD700"/>
<path d="M4.33084 12.7352C4.39102 12.9367 4.49617 13.1328 4.62741 13.3028C4.69084 13.3912 4.76369 13.4685 4.83615 13.542C4.87238 13.579 4.9086 13.6146 4.94566 13.6486C4.98301 13.6803 5.0205 13.711 5.05702 13.7402C5.20193 13.8614 5.34384 13.9437 5.44448 14.0036C5.49453 14.0349 5.53808 14.053 5.56655 14.0675C5.59545 14.0809 5.61151 14.0876 5.61151 14.0876C5.61151 14.0876 5.62504 14.0423 5.63832 13.9632C5.65225 13.8838 5.66578 13.7701 5.66834 13.6359C5.67227 13.4988 5.66621 13.3415 5.63998 13.1751C5.62645 13.0935 5.61082 13.0059 5.58813 12.9171C5.56626 12.828 5.53624 12.7426 5.50185 12.6512C5.36105 12.2951 5.14582 11.9851 4.96922 11.7477C4.95779 11.7332 4.94638 11.7191 4.93523 11.7047C4.92495 11.6904 4.91409 11.677 4.90438 11.6629C4.88353 11.6354 4.86364 11.6099 4.8442 11.5856C4.80584 11.5377 4.76907 11.498 4.74157 11.4612C4.68449 11.3908 4.64657 11.3518 4.64657 11.3518C4.64657 11.3518 4.61514 11.3879 4.56946 11.4529C4.5241 11.5181 4.46445 11.6141 4.40964 11.7362C4.38244 11.7968 4.35591 11.8646 4.33394 11.9379C4.31323 12.0103 4.29602 12.0887 4.28573 12.1731C4.27588 12.2571 4.27065 12.3485 4.27758 12.4419C4.28505 12.5349 4.30193 12.6332 4.33084 12.7352" fill="#FFD700"/>
<path d="M3.89465 0.769874C3.58596 1.03942 3.40976 1.37716 3.31901 1.63263C3.29661 1.69758 3.27755 1.75639 3.26363 1.8098C3.25009 1.8632 3.24021 1.91011 3.23259 1.94908C3.21838 2.02594 3.21387 2.07104 3.21387 2.07104C3.21387 2.07104 3.25699 2.05481 3.32832 2.02161C3.36397 2.00465 3.40641 1.98444 3.45462 1.95954C3.50308 1.93609 3.55778 1.90795 3.61515 1.87655C3.84756 1.75135 4.13876 1.5749 4.40812 1.33999C4.67651 1.10365 4.88496 0.844566 5.04564 0.63853C5.0857 0.587652 5.1212 0.538579 5.15321 0.494918C5.18547 0.452701 5.2134 0.415897 5.23609 0.383783C5.28188 0.319915 5.30656 0.280224 5.30656 0.280224C5.30656 0.280224 5.26117 0.276613 5.18056 0.277334C5.14022 0.278056 5.09089 0.2795 5.03424 0.283109C4.97856 0.289243 4.91542 0.297904 4.84578 0.310894C4.77588 0.32244 4.70231 0.341565 4.62448 0.365741C4.58529 0.37801 4.54527 0.390637 4.50425 0.40471C4.46466 0.421308 4.42393 0.438627 4.38247 0.457029C4.34104 0.475792 4.29933 0.49564 4.25718 0.516929C4.21659 0.540383 4.17571 0.564921 4.13425 0.59054C4.09355 0.616881 4.0514 0.643581 4.01178 0.673891C3.97245 0.70384 3.93312 0.735956 3.89465 0.769874" fill="#FFD700"/>
<path d="M6.27781 13.8216C6.34518 13.9078 6.4234 13.9909 6.50939 14.0681C6.5965 14.1391 6.69035 14.2062 6.78774 14.2668C6.88672 14.3228 6.98833 14.3734 7.08969 14.4174C7.19187 14.4564 7.2928 14.4907 7.38878 14.5199C7.58201 14.5675 7.75568 14.5996 7.87984 14.6068C8.00473 14.6172 8.07927 14.6187 8.07927 14.6187C8.07927 14.6187 8.07224 14.5682 8.05041 14.4838C8.02854 14.4 7.99192 14.2825 7.93692 14.1493C7.90903 14.0822 7.87703 14.0114 7.83982 13.9386C7.82135 13.9032 7.80161 13.8664 7.78061 13.8292C7.75947 13.791 7.73778 13.7524 7.71422 13.7138C7.66785 13.6365 7.616 13.5593 7.55891 13.4854C7.50179 13.411 7.44034 13.3312 7.37254 13.2599C7.10138 12.9687 6.7938 12.7561 6.54786 12.5933C6.51686 12.5732 6.48655 12.5551 6.45794 12.5374C6.42976 12.5183 6.40226 12.5006 6.3766 12.4848C6.32472 12.4513 6.27738 12.427 6.23877 12.4025C6.1618 12.3548 6.11359 12.331 6.11359 12.331C6.11359 12.331 6.09429 12.3775 6.07073 12.4599C6.04734 12.541 6.0197 12.6572 6.00588 12.7994C5.99167 12.9423 5.99477 13.1029 6.03212 13.2796C6.06863 13.459 6.14571 13.6386 6.27781 13.8216" fill="#FFD700"/>
<path d="M8.57332 16.5941C8.8176 16.2705 8.92401 15.8367 8.96374 15.4889C8.98139 15.3157 8.98842 15.1631 8.98377 15.0552C8.9811 14.9466 8.97489 14.8823 8.97489 14.8823C8.97489 14.8823 8.79534 14.9239 8.56697 15.0501C8.33935 15.1764 8.05999 15.3849 7.84699 15.7061C7.63684 16.0286 7.51492 16.401 7.44091 16.6941C7.42132 16.7666 7.40638 16.8356 7.39426 16.8965C7.38145 16.9578 7.36932 17.0116 7.36113 17.0574C7.34424 17.1472 7.33887 17.2013 7.33887 17.2013C7.33887 17.2013 7.5217 17.2064 7.76978 17.1372C7.89296 17.1021 8.03488 17.0477 8.17442 16.9615C8.31117 16.8745 8.45421 16.7561 8.57332 16.5941" fill="#FFD700"/>
<path d="M9.37761 16.5941C9.13376 16.2705 9.02721 15.8367 8.9869 15.4889C8.9694 15.3157 8.96251 15.1631 8.96731 15.0552C8.97012 14.9466 8.97575 14.8823 8.97575 14.8823C8.97575 14.8823 9.15534 14.9239 9.38396 15.0501C9.61172 15.1764 9.89122 15.3849 10.1039 15.7061C10.3137 16.0286 10.4362 16.401 10.51 16.6941C10.5292 16.7666 10.5446 16.8356 10.5567 16.8965C10.5692 16.9578 10.582 17.0116 10.5899 17.0574C10.6064 17.1472 10.6121 17.2013 10.6121 17.2013C10.6121 17.2013 10.429 17.2064 10.1812 17.1372C10.0583 17.1021 9.91605 17.0477 9.77648 16.9615C9.6399 16.8745 9.49672 16.7561 9.37761 16.5941" fill="#FFD700"/>
<path d="M14.561 2.4016C14.8256 2.49614 15.0558 2.70759 15.2146 2.89414C15.2924 2.98832 15.3559 3.07456 15.3955 3.13879C15.4365 3.20302 15.4582 3.24307 15.4582 3.24307C15.4582 3.24307 15.3412 3.28745 15.1635 3.3008C14.9863 3.31524 14.7474 3.30008 14.5015 3.19364C14.2566 3.08575 14.0408 2.91507 13.8838 2.77326C13.8441 2.73826 13.8083 2.70471 13.7773 2.67367C13.7461 2.643 13.7178 2.6163 13.6953 2.59357C13.6506 2.54702 13.626 2.51779 13.626 2.51779C13.626 2.51779 13.727 2.44598 13.8943 2.39222C13.9779 2.36588 14.0794 2.34279 14.1922 2.34098C14.3035 2.33882 14.4305 2.35289 14.561 2.4016" fill="#FFD700"/>
<path d="M15.6642 4.42137C15.9162 4.60287 16.1032 4.89478 16.2167 5.14087C16.2449 5.20221 16.269 5.26067 16.2901 5.31371C16.3101 5.36711 16.3251 5.4151 16.3379 5.45515C16.363 5.53562 16.3751 5.58433 16.3751 5.58433C16.3751 5.58433 16.2373 5.59696 16.0432 5.56016C15.9461 5.54139 15.8361 5.51 15.7213 5.46057C15.604 5.41221 15.4867 5.34365 15.3694 5.25164C15.1397 5.06581 14.9597 4.81684 14.8317 4.61477C14.7691 4.51302 14.717 4.42353 14.6827 4.35858C14.6496 4.29399 14.6299 4.2543 14.6299 4.2543C14.6299 4.2543 14.6624 4.24384 14.7197 4.23157C14.777 4.21966 14.8579 4.20703 14.955 4.20522C15.0522 4.20306 15.1652 4.21244 15.2877 4.24383C15.4093 4.27523 15.5365 4.33152 15.6642 4.42137" fill="#FFD700"/>
<path d="M16.2092 6.65345C16.4222 6.91541 16.5319 7.27877 16.5651 7.57213C16.5739 7.64574 16.5819 7.71466 16.5843 7.77672C16.5853 7.83915 16.5853 7.89399 16.5847 7.94018C16.5833 8.03255 16.5787 8.0874 16.5787 8.0874C16.5787 8.0874 16.5419 8.07874 16.4813 8.05601C16.4208 8.034 16.3367 7.99791 16.2425 7.94523C16.1482 7.89327 16.0436 7.82399 15.9423 7.73631C15.8381 7.64863 15.7331 7.54218 15.6454 7.41336C15.4633 7.15933 15.352 6.86273 15.2749 6.62133C15.2571 6.56143 15.2392 6.50514 15.2254 6.45427C15.211 6.40339 15.2007 6.35792 15.1913 6.32004C15.1714 6.24462 15.1631 6.19879 15.1631 6.19879C15.1631 6.19879 15.3135 6.1858 15.5215 6.23307C15.6267 6.25653 15.7426 6.29658 15.8619 6.36297C15.983 6.42937 16.1007 6.52246 16.2092 6.65345" fill="#FFD700"/>
<path d="M16.061 8.91036C16.1874 9.25279 16.1698 9.66739 16.0966 9.98059C16.0879 10.0203 16.0801 10.0585 16.0706 10.0943C16.0599 10.1307 16.0496 10.165 16.0398 10.1971C16.02 10.262 16.0002 10.3183 15.9835 10.3663C15.9674 10.4136 15.9501 10.4497 15.9389 10.4749C15.9275 10.4998 15.9209 10.5132 15.9209 10.5132C15.9209 10.5132 15.8868 10.4915 15.8332 10.4464C15.7796 10.4017 15.7083 10.3357 15.6314 10.2472C15.4735 10.0694 15.3051 9.81316 15.2106 9.48444C15.1145 9.155 15.1101 8.81618 15.1128 8.55133C15.1159 8.48566 15.1138 8.42359 15.1177 8.36947C15.1201 8.31426 15.1249 8.26663 15.1282 8.22622C15.132 8.14611 15.1383 8.09884 15.1383 8.09884C15.1383 8.09884 15.1783 8.10786 15.2433 8.13095C15.3083 8.15441 15.3982 8.19121 15.4984 8.24931C15.6002 8.30849 15.7041 8.38642 15.8053 8.49467C15.8555 8.54844 15.9042 8.60978 15.9488 8.67906C15.9905 8.74762 16.0287 8.82448 16.061 8.91036" fill="#FFD700"/>
<path d="M15.1972 11.0029C15.1986 11.0516 15.1996 11.1029 15.1954 11.1523C15.1913 11.2014 15.1854 11.2508 15.1771 11.301C15.1617 11.3998 15.1394 11.4998 15.1065 11.5932C15.0908 11.6412 15.0743 11.6881 15.0565 11.7339C15.0472 11.7574 15.0382 11.7806 15.0295 11.8021C15.0191 11.8245 15.0086 11.8465 14.9986 11.8682C14.9569 11.9544 14.9133 12.0367 14.8698 12.1125C14.7765 12.2587 14.6895 12.385 14.6179 12.4653C14.5478 12.5483 14.503 12.5957 14.503 12.5957C14.503 12.5957 14.4755 12.5606 14.4369 12.4953C14.3976 12.4311 14.3471 12.3373 14.2995 12.22C14.2515 12.1028 14.2082 11.9657 14.1742 11.8083C14.1422 11.6517 14.1268 11.4828 14.1318 11.2977C14.1464 10.9322 14.2535 10.5854 14.3443 10.3155C14.3687 10.2495 14.3884 10.186 14.4102 10.1315C14.4309 10.0759 14.4533 10.0294 14.4677 9.98824C14.4991 9.90741 14.5219 9.86087 14.5219 9.86087C14.5219 9.86087 14.5597 9.88396 14.6186 9.9287C14.6774 9.97453 14.7575 10.0431 14.8402 10.1358C14.8816 10.182 14.9245 10.2358 14.9644 10.2942C15.0037 10.3538 15.0408 10.4184 15.0743 10.4909C15.1074 10.5627 15.1368 10.6414 15.1593 10.7276C15.1796 10.8124 15.1924 10.9037 15.1972 11.0029" fill="#FFD700"/>
<path d="M13.7304 12.7153C13.6711 12.9163 13.5662 13.1119 13.4357 13.2812C13.3724 13.3699 13.3004 13.4468 13.2279 13.5197C13.1919 13.5561 13.1559 13.5926 13.1191 13.6261C13.0817 13.6583 13.0446 13.6888 13.0082 13.7182C12.864 13.838 12.7222 13.9199 12.6223 13.9798C12.5728 14.0108 12.5297 14.0284 12.5006 14.0436C12.4722 14.057 12.456 14.0642 12.456 14.0642C12.456 14.0642 12.4424 14.0187 12.4289 13.9393C12.4149 13.8595 12.4013 13.7466 12.3986 13.6124C12.3947 13.4753 12.4003 13.318 12.4257 13.1524C12.4389 13.0708 12.455 12.9824 12.4771 12.8947C12.4988 12.8052 12.5286 12.7201 12.5619 12.6288C12.7019 12.2733 12.9156 11.9652 13.0917 11.7274C13.1031 11.713 13.1146 11.6996 13.1252 11.6852C13.1359 11.6711 13.1459 11.6575 13.1563 11.6434C13.1766 11.6163 13.1965 11.5902 13.2158 11.5668C13.2542 11.5181 13.2908 11.4792 13.3179 11.4427C13.375 11.3727 13.4129 11.3341 13.4129 11.3341C13.4129 11.3341 13.4442 11.3698 13.4894 11.4348C13.5354 11.5004 13.5948 11.596 13.6498 11.7174C13.6773 11.7783 13.7038 11.8458 13.7254 11.9198C13.7469 11.9915 13.764 12.0702 13.7744 12.1543C13.7849 12.2383 13.7898 12.329 13.7832 12.4227C13.7761 12.5154 13.7591 12.6133 13.7304 12.7153" fill="#FFD700"/>
<path d="M11.7995 13.8216C11.7321 13.9078 11.6539 13.9909 11.5684 14.0681C11.4813 14.1391 11.3871 14.2062 11.2896 14.2668C11.1907 14.3228 11.0887 14.3734 10.9879 14.4174C10.886 14.4564 10.7847 14.4907 10.6885 14.5199C10.4952 14.5675 10.3218 14.5996 10.1972 14.6068C10.073 14.6172 9.99805 14.6187 9.99805 14.6187C9.99805 14.6187 10.0052 14.5682 10.0268 14.4838C10.0488 14.4 10.0855 14.2825 10.1405 14.1493C10.1683 14.0822 10.2004 14.0114 10.2375 13.9386C10.2561 13.9032 10.2757 13.8664 10.2969 13.8292C10.3177 13.791 10.34 13.7524 10.3632 13.7138C10.4099 13.6365 10.4616 13.5593 10.5184 13.4854C10.5755 13.411 10.6368 13.3312 10.7046 13.2599C10.9758 12.9687 11.2838 12.7561 11.5298 12.5933C11.5603 12.5732 11.5903 12.5551 11.6194 12.5374C11.6476 12.5183 11.6749 12.5006 11.7006 12.4848C11.7525 12.4513 11.7998 12.427 11.8384 12.4025C11.9152 12.3548 11.9637 12.331 11.9637 12.331C11.9637 12.331 11.983 12.3775 12.0066 12.4599C12.0301 12.541 12.0579 12.6572 12.0715 12.7994C12.0858 12.9423 12.083 13.1029 12.0455 13.2796C12.0085 13.459 11.932 13.6386 11.7995 13.8216" fill="#FFD700"/>
<path d="M15.035 2.0417C15.0698 2.33434 15.176 2.63022 15.2738 2.85646C15.321 2.97085 15.369 3.06575 15.4015 3.13503C15.4349 3.20359 15.4572 3.24292 15.4572 3.24292C15.4572 3.24292 15.5584 3.16931 15.6604 3.01992C15.762 2.87018 15.8634 2.64393 15.848 2.3365C15.8348 2.02727 15.6941 1.70396 15.5524 1.46328C15.5169 1.40338 15.4816 1.34854 15.4491 1.29983C15.4157 1.25148 15.3837 1.20926 15.357 1.17498C15.3034 1.10606 15.2693 1.06564 15.2693 1.06564C15.2693 1.06564 15.1896 1.16379 15.1231 1.33519C15.0897 1.42071 15.0604 1.52318 15.0423 1.64262C15.0229 1.76242 15.0198 1.89448 15.035 2.0417" fill="#FFD700"/>
<path d="M16.2765 4.17878C16.2247 4.50136 16.2555 4.84776 16.2922 5.11875C16.3011 5.18659 16.3111 5.24937 16.3211 5.30494C16.3305 5.36232 16.3389 5.41211 16.3468 5.45288C16.3629 5.53552 16.3754 5.58423 16.3754 5.58423C16.3754 5.58423 16.5045 5.53624 16.6566 5.40742C16.732 5.34211 16.8143 5.25659 16.8865 5.14509C16.9564 5.03504 17.0212 4.89684 17.0563 4.73122C17.1309 4.39708 17.0776 4.01315 16.9993 3.71835C16.9613 3.57077 16.9147 3.44556 16.88 3.35716C16.8462 3.26875 16.8204 3.21715 16.8204 3.21715C16.8204 3.21715 16.7915 3.23736 16.7481 3.27633C16.7045 3.31602 16.6455 3.37592 16.5834 3.45638C16.5214 3.53649 16.4571 3.63681 16.4032 3.75732C16.3482 3.87748 16.3011 4.01893 16.2765 4.17878" fill="#FFD700"/>
<path d="M16.9253 6.57551C16.7771 6.90386 16.7055 7.27877 16.6501 7.57429C16.6369 7.64862 16.6283 7.71682 16.6183 7.77889C16.6077 7.84059 16.5998 7.89544 16.5937 7.9409C16.5816 8.03255 16.5781 8.0874 16.5781 8.0874C16.5781 8.0874 16.6159 8.08596 16.6788 8.07441C16.7418 8.06395 16.83 8.0423 16.9311 8.0008C17.0324 7.96039 17.1466 7.89832 17.2616 7.80451C17.3737 7.71105 17.4816 7.58512 17.5773 7.41553C17.7621 7.07671 17.8226 6.63721 17.8212 6.29297C17.8226 6.20673 17.8178 6.12663 17.8126 6.05482C17.8076 5.98229 17.8021 5.91842 17.7954 5.8661C17.7809 5.76038 17.7686 5.6976 17.7686 5.6976C17.7686 5.6976 17.626 5.75064 17.4527 5.88848C17.3667 5.95667 17.2693 6.04724 17.178 6.16127C17.0883 6.27385 16.9975 6.41169 16.9253 6.57551" fill="#FFD700"/>
<path d="M16.8247 9.08419C16.5552 9.37213 16.3483 9.7308 16.1837 10.0133C16.1645 10.0494 16.1456 10.0844 16.1277 10.1169C16.1091 10.1497 16.0918 10.1811 16.0754 10.2114C16.0424 10.2713 16.0149 10.3251 15.9932 10.3698C15.9481 10.4597 15.9209 10.5131 15.9209 10.5131C15.9209 10.5131 15.9602 10.5261 16.0296 10.5373C16.0984 10.5492 16.198 10.5604 16.3173 10.5546C16.5514 10.5416 16.8783 10.4676 17.1893 10.1865C17.5 9.90653 17.7269 9.47244 17.8474 9.10728C17.8804 9.01671 17.901 8.92867 17.9226 8.85037C17.9424 8.7717 17.9595 8.70206 17.9709 8.64216C17.9921 8.52381 18.0002 8.45273 18.0002 8.45273C18.0002 8.45273 17.9588 8.45417 17.8896 8.4668C17.8204 8.48051 17.7227 8.50468 17.6098 8.54834C17.4987 8.592 17.3651 8.65335 17.2317 8.74103C17.1649 8.78433 17.0974 8.83449 17.0306 8.8915C16.961 8.94851 16.8918 9.01238 16.8247 9.08419" fill="#FFD700"/>
<path d="M15.9223 11.4384C15.8751 11.464 15.8308 11.4926 15.7849 11.5203C15.7384 11.5481 15.6931 11.5773 15.6492 11.6076C15.561 11.6682 15.4776 11.7332 15.3933 11.796C15.3519 11.828 15.312 11.8609 15.2731 11.893C15.2535 11.9101 15.2345 11.9266 15.2156 11.9425C15.1964 11.9587 15.177 11.9746 15.1578 11.9901C15.0817 12.0529 15.0118 12.1164 14.9472 12.1763C14.8123 12.2915 14.707 12.4007 14.626 12.4736C14.5472 12.5483 14.5029 12.5957 14.5029 12.5957C14.5029 12.5957 14.5386 12.6219 14.6046 12.658C14.6707 12.6937 14.7673 12.7389 14.8915 12.7752C15.0152 12.811 15.1682 12.8388 15.3391 12.8323C15.511 12.8258 15.7095 12.7912 15.9161 12.6977C16.3347 12.5155 16.7171 12.1417 16.9642 11.8046C17.0279 11.7213 17.0799 11.6383 17.1281 11.5647C17.1752 11.4904 17.2177 11.424 17.2478 11.3662C17.3091 11.2515 17.3423 11.1808 17.3423 11.1808C17.3423 11.1808 17.2994 11.1685 17.2234 11.1584C17.1476 11.1487 17.0389 11.1414 16.9083 11.1479C16.8427 11.1515 16.7723 11.1591 16.697 11.1707C16.6203 11.1822 16.5397 11.1984 16.4561 11.2215C16.3727 11.2436 16.286 11.2731 16.198 11.3092C16.1078 11.3442 16.0149 11.3872 15.9223 11.4384" fill="#FFD700"/>
<path d="M14.3206 13.4071C14.0925 13.4476 13.8691 13.5168 13.6546 13.5889C13.5497 13.6275 13.444 13.6633 13.345 13.7008C13.296 13.721 13.2474 13.7395 13.2007 13.7589C13.1526 13.7758 13.1067 13.7939 13.0624 13.8109C12.8875 13.8852 12.7337 13.943 12.6279 13.9916C12.575 14.0166 12.5307 14.0314 12.5016 14.0443C12.4723 14.057 12.4561 14.0642 12.4561 14.0642C12.4561 14.0642 12.4814 14.105 12.5336 14.1669C12.586 14.2291 12.6655 14.3124 12.7773 14.3969C12.8875 14.4795 13.0296 14.5618 13.2092 14.6217C13.2995 14.6527 13.3969 14.6737 13.5039 14.6867C13.6103 14.6989 13.7288 14.7057 13.8529 14.6946C13.9764 14.6834 14.1045 14.661 14.232 14.6282C14.3568 14.5932 14.4821 14.5491 14.6051 14.4991C14.7252 14.4459 14.8418 14.386 14.9531 14.3254C15.0638 14.263 15.1651 14.194 15.2608 14.1295C15.2844 14.1128 15.3081 14.0966 15.3308 14.0809C15.353 14.0635 15.3743 14.0471 15.3954 14.0307C15.4376 13.9971 15.4772 13.9657 15.5146 13.935C15.5893 13.8734 15.6556 13.8174 15.7058 13.7668C15.809 13.668 15.8676 13.6051 15.8676 13.6051C15.8676 13.6051 15.8276 13.5789 15.7525 13.5445C15.6776 13.51 15.5684 13.467 15.4317 13.432C15.3633 13.4147 15.2883 13.3992 15.2066 13.3869C15.1241 13.3743 15.036 13.3638 14.9424 13.3606C14.8487 13.3562 14.7509 13.3583 14.647 13.3652C14.5421 13.3715 14.4333 13.3847 14.3206 13.4071" fill="#FFD700"/>
<path d="M13.5804 1.47033C13.8462 1.69368 14.1346 1.85678 14.3648 1.97333C14.4214 2.00255 14.4761 2.02709 14.5239 2.04874C14.5714 2.07184 14.6138 2.09024 14.649 2.10503C14.7197 2.13498 14.7628 2.14941 14.7628 2.14941C14.7628 2.14941 14.7573 2.10503 14.7408 2.02817C14.7329 1.98956 14.7224 1.94338 14.7081 1.8907C14.6923 1.83766 14.673 1.77992 14.6495 1.71533C14.5546 1.46347 14.3738 1.13403 14.0665 0.87675C14.0286 0.845358 13.9896 0.814687 13.9507 0.786181C13.9109 0.758396 13.8702 0.73278 13.8294 0.708244C13.7891 0.684789 13.7491 0.661335 13.7084 0.640768C13.6671 0.621283 13.626 0.60288 13.5856 0.586281C13.5453 0.568961 13.5062 0.553083 13.4669 0.539732C13.4269 0.527103 13.388 0.515558 13.3498 0.505816C13.312 0.494991 13.2755 0.485609 13.2398 0.478031C13.2044 0.470093 13.1684 0.465041 13.1352 0.459989C13.0686 0.450608 13.008 0.443751 12.954 0.440864C12.8993 0.439421 12.8523 0.440142 12.8133 0.440864C12.7362 0.443751 12.6934 0.449162 12.6934 0.449162C12.6934 0.449162 12.7178 0.487774 12.7626 0.550198C12.7851 0.580869 12.813 0.616952 12.845 0.658087C12.8762 0.700665 12.9116 0.747933 12.9509 0.795924C13.1092 0.996187 13.3148 1.24589 13.5804 1.47033" fill="#FFD700"/>
<path d="M12.123 14.7375C11.9991 14.7133 11.8745 14.6975 11.7511 14.6873C11.6262 14.6721 11.5023 14.6638 11.3816 14.6596C11.26 14.6494 11.141 14.6458 11.0277 14.6443C10.9131 14.6376 10.8039 14.6339 10.7022 14.6339C10.498 14.6242 10.3232 14.6267 10.1979 14.6195C10.0727 14.6166 9.99805 14.6187 9.99805 14.6187C9.99805 14.6187 10.0045 14.6696 10.0285 14.7523C10.0522 14.8352 10.0929 14.9501 10.1653 15.0799C10.2014 15.1449 10.2457 15.2133 10.3 15.2834C10.3272 15.3181 10.357 15.3535 10.389 15.3884C10.4217 15.422 10.4566 15.4559 10.4947 15.4888C10.5711 15.5555 10.6594 15.6193 10.7617 15.6799C10.864 15.7398 10.9795 15.7872 11.1111 15.8309C11.2429 15.8763 11.3816 15.9008 11.5258 15.9192C11.6707 15.9401 11.8172 15.9415 11.964 15.9373C12.1119 15.9362 12.2556 15.9181 12.3956 15.8964C12.5368 15.8777 12.6698 15.8448 12.7946 15.8124C12.8566 15.7969 12.9168 15.7803 12.9745 15.7629C13.0309 15.7439 13.0846 15.725 13.1353 15.7067C13.2369 15.6695 13.3282 15.6366 13.4005 15.6038C13.5453 15.5374 13.6304 15.4934 13.6304 15.4934C13.6304 15.4934 13.5989 15.4527 13.5348 15.3921C13.4708 15.3306 13.3741 15.2492 13.2471 15.1666C13.1208 15.085 12.9597 14.9952 12.7724 14.9201C12.5862 14.8483 12.367 14.7771 12.123 14.7375" fill="#FFD700"/>
</svg>
