<svg width="70" height="65" viewBox="0 0 70 65" fill="none" xmlns="http://www.w3.org/2000/svg">
<path d="M11.1994 6.41262C11.056 7.5518 10.6337 8.70623 10.251 9.59179C10.0643 10.0353 9.87581 10.4067 9.74915 10.6769C9.61929 10.943 9.5299 11.0996 9.5299 11.0996C9.5299 11.0996 9.14339 10.8155 8.75576 10.239C8.36495 9.6583 7.98218 8.78105 8.04981 7.58367C8.11051 6.38351 8.66111 5.12378 9.21698 4.18278C9.35889 3.94995 9.49748 3.73376 9.62567 3.5439C9.75455 3.35265 9.88233 3.19189 9.98516 3.05607C10.1964 2.78583 10.3305 2.6306 10.3305 2.6306C10.3305 2.6306 10.6349 3.0048 10.8854 3.66724C11.0132 3.99985 11.1214 4.40036 11.187 4.86047C11.2568 5.32473 11.2654 5.83888 11.1994 6.41262" fill="#FBC935"/>
<path d="M6.44925 14.801C6.64355 16.0511 6.51896 17.3995 6.37345 18.4514C6.33936 18.7175 6.30083 18.9614 6.25967 19.1817C6.22447 19.4007 6.19093 19.5961 6.15961 19.7541C6.09683 20.077 6.04694 20.2668 6.04694 20.2668C6.04694 20.2668 5.55274 20.0798 4.96971 19.5781C4.68118 19.3286 4.36548 18.9974 4.08997 18.5636C3.8225 18.1368 3.57457 17.6018 3.44194 16.9574C3.15881 15.6616 3.3689 14.1677 3.67754 13.023C3.82582 12.4478 4.00613 11.9628 4.14083 11.6205C4.27346 11.2754 4.37365 11.0772 4.37365 11.0772C4.37365 11.0772 4.483 11.1521 4.65027 11.3045C4.81755 11.4556 5.04441 11.6884 5.28264 11.9988C5.5181 12.3093 5.76326 12.6973 5.97058 13.1643C6.17804 13.63 6.35723 14.1774 6.44925 14.801" fill="#FBC935"/>
<path d="M4.02556 24.1462C4.59238 25.4239 4.86692 26.8832 5.07909 28.0321C5.13161 28.3204 5.16307 28.592 5.20202 28.8318C5.24373 29.0715 5.27394 29.2863 5.29723 29.4651C5.34379 29.8199 5.35903 30.0347 5.35903 30.0347C5.35903 30.0347 5.21393 30.0291 4.97252 29.9848C4.72999 29.9404 4.39101 29.8587 4.00186 29.6979C3.61313 29.5344 3.17464 29.2974 2.73228 28.9329C2.30197 28.5643 1.88565 28.0751 1.51868 27.4154C0.808978 26.0975 0.577818 24.3873 0.585856 23.0527C0.580451 22.7173 0.600545 22.4083 0.618838 22.1283C0.64115 21.8498 0.661662 21.5989 0.687717 21.3924C0.743982 20.985 0.791656 20.7439 0.791656 20.7439C0.791656 20.7439 1.34045 20.9434 2.00373 21.4784C2.33287 21.7445 2.70691 22.0951 3.05657 22.5372C3.40192 22.9751 3.74839 23.51 4.02556 24.1462" fill="#FBC935"/>
<path d="M4.52026 33.8942C5.5591 35.0098 6.35819 36.4012 6.99527 37.5002C7.06886 37.6416 7.14258 37.776 7.21187 37.9035C7.28269 38.0324 7.35101 38.1544 7.4149 38.2722C7.54102 38.5022 7.64648 38.7101 7.7331 38.8847C7.90689 39.2339 8.01083 39.4432 8.01083 39.4432C8.01083 39.4432 7.86032 39.4889 7.59562 39.5319C7.32981 39.5762 6.94718 39.6178 6.48804 39.5957C5.58779 39.543 4.32804 39.2506 3.12899 38.1599C1.93258 37.0706 1.05616 35.3909 0.591623 33.9746C0.463847 33.6226 0.383189 33.2831 0.300869 32.9782C0.222983 32.6705 0.157988 32.4003 0.111977 32.173C0.0324289 31.7156 0 31.4343 0 31.4343C0 31.4343 0.157988 31.4426 0.423796 31.4925C0.691267 31.5452 1.06697 31.6408 1.50061 31.8071C1.92662 31.9776 2.44202 32.2187 2.95354 32.5583C3.21076 32.7287 3.47005 32.9241 3.72769 33.1459C3.99627 33.3648 4.26207 33.6115 4.52026 33.8942" fill="#FBC935"/>
<path d="M8.10689 42.9702C8.28774 43.0686 8.45778 43.1782 8.63642 43.2849C8.8145 43.3942 8.98829 43.5062 9.1582 43.6259C9.49815 43.8614 9.82092 44.111 10.1451 44.3573C10.3043 44.4823 10.4597 44.6069 10.6096 44.733C10.6838 44.7952 10.7579 44.8619 10.8305 44.9257C10.9073 44.9852 10.981 45.0491 11.0557 45.1087C11.3469 45.3523 11.6187 45.5964 11.8682 45.8292C12.3896 46.2742 12.7946 46.6953 13.1101 46.9779C13.4143 47.2649 13.586 47.4495 13.586 47.4495C13.586 47.4495 13.4484 47.5501 13.1951 47.6904C12.9401 47.829 12.5688 48.0006 12.0912 48.138C11.616 48.2751 11.0248 48.3817 10.366 48.353C9.7034 48.3265 8.94007 48.1894 8.14209 47.829C6.5295 47.1182 5.05592 45.6738 4.10203 44.3714C3.85521 44.0497 3.65536 43.731 3.46869 43.4456C3.28617 43.1571 3.1232 42.9022 3.00845 42.6805C2.7698 42.2357 2.64258 41.9612 2.64258 41.9612C2.64258 41.9612 2.80653 41.9155 3.09839 41.8767C3.39067 41.8407 3.8092 41.8116 4.31046 41.8407C4.56269 41.8545 4.83127 41.885 5.12465 41.9294C5.41804 41.9751 5.72875 42.0389 6.05083 42.1262C6.37138 42.2135 6.70647 42.3257 7.04379 42.4685C7.39123 42.6057 7.74906 42.7706 8.10689 42.9702" fill="#FBC935"/>
<path d="M14.3666 50.5011C15.2441 50.663 16.1049 50.9294 16.932 51.2077C17.3353 51.3559 17.7435 51.4962 18.1247 51.6418C18.3158 51.7175 18.5004 51.7928 18.6816 51.8632C18.8653 51.9298 19.0439 51.9975 19.2132 52.0656C19.8873 52.351 20.4812 52.5729 20.8899 52.7629C21.0929 52.8582 21.2639 52.915 21.376 52.9692C21.4897 53.0179 21.5513 53.0411 21.5513 53.0411C21.5513 53.0411 21.4561 53.1993 21.2531 53.4364C21.0512 53.6746 20.7442 53.9961 20.3149 54.322C19.89 54.6349 19.3448 54.9495 18.6535 55.1795C18.305 55.3002 17.9302 55.3803 17.5189 55.4306C17.1097 55.4762 16.6527 55.5011 16.1757 55.4567C15.6988 55.4124 15.2051 55.3267 14.7146 55.2017C14.234 55.0648 13.751 54.8953 13.2779 54.7042C12.8145 54.498 12.3668 54.2679 11.9364 54.0325C11.5126 53.7899 11.1222 53.5279 10.7535 53.274C10.6615 53.2118 10.5728 53.1479 10.4851 53.0883C10.3996 53.0233 10.3162 52.9584 10.235 52.8945C10.0731 52.7683 9.91995 52.6449 9.77638 52.5269C9.48784 52.2877 9.23353 52.0738 9.03854 51.8784C8.64122 51.4988 8.41602 51.2574 8.41602 51.2574C8.41602 51.2574 8.57082 51.1568 8.85935 51.022C9.14581 50.8904 9.56642 50.7286 10.0932 50.5954C10.3562 50.5261 10.6436 50.4676 10.9577 50.4222C11.2744 50.3723 11.6143 50.3361 11.9738 50.3193C12.3348 50.3041 12.7111 50.3128 13.1095 50.3415C13.5124 50.3663 13.9335 50.4167 14.3666 50.5011" fill="#FBC935"/>
<path d="M22.8719 55.5372C23.3471 55.4441 23.8256 55.3835 24.2999 55.3445C24.779 55.286 25.2549 55.2541 25.7188 55.2379C26.1875 55.1989 26.6424 55.1848 27.0781 55.1794C27.5188 55.1534 27.9372 55.1394 28.3287 55.1394C29.112 55.1019 29.7844 55.1118 30.2667 55.0841C30.7463 55.0727 31.0327 55.0809 31.0327 55.0809C31.0327 55.0809 31.0067 55.2763 30.9164 55.5941C30.8253 55.9124 30.6679 56.3536 30.3896 56.8521C30.2516 57.1017 30.0799 57.3648 29.8725 57.6339C29.7692 57.7671 29.6533 57.9029 29.5305 58.0372C29.4059 58.1661 29.2711 58.2965 29.1265 58.4226C28.8326 58.6787 28.4926 58.9239 28.0991 59.1567C27.706 59.3867 27.2621 59.5687 26.7571 59.7365C26.2505 59.9109 25.7188 60.005 25.1651 60.0759C24.6079 60.156 24.0465 60.1614 23.4814 60.1452C22.914 60.1409 22.363 60.0716 21.8226 59.9882C21.2813 59.9163 20.773 59.79 20.2933 59.6656C20.0547 59.606 19.8219 59.5421 19.601 59.4756C19.3851 59.4025 19.1776 59.3299 18.9827 59.2595C18.5925 59.1166 18.2432 58.9905 17.9655 58.8644C17.408 58.6094 17.082 58.4405 17.082 58.4405C17.082 58.4405 17.2023 58.284 17.4497 58.0513C17.6943 57.8152 18.0657 57.5024 18.5535 57.1852C19.039 56.8717 19.6572 56.5269 20.3768 56.2383C21.0913 55.9627 21.9336 55.6894 22.8719 55.5372" fill="#FBC935"/>
<path d="M13.0253 7.79439C11.9978 8.17135 11.1018 9.00286 10.4814 9.7346C10.18 10.1046 9.93093 10.4386 9.77599 10.6922C9.61689 10.9431 9.53027 11.0997 9.53027 11.0997C9.53027 11.0969 9.98179 11.2701 10.6665 11.3159C11.3509 11.363 12.2716 11.2992 13.2255 10.8779C14.1746 10.4469 15.0174 9.77617 15.6324 9.21351C15.7877 9.07354 15.9268 8.94189 16.0492 8.81855C16.1727 8.69798 16.2837 8.59405 16.3713 8.5012C16.5484 8.31965 16.6458 8.20462 16.6458 8.20462C16.6458 8.20462 16.2549 7.92883 15.6096 7.72788C15.2876 7.62948 14.8934 7.54633 14.4566 7.54079C14.0261 7.53802 13.5331 7.59899 13.0253 7.79439" fill="#FBC935"/>
<path d="M8.80225 15.7287C7.82674 16.4397 7.10512 17.5803 6.664 18.5379C6.5541 18.779 6.46097 19.0063 6.37976 19.2114C6.30174 19.4207 6.2427 19.6064 6.1935 19.763C6.09442 20.0748 6.04785 20.2674 6.04785 20.2674C6.04785 20.2674 6.57836 20.3132 7.32437 20.1663C7.69841 20.0914 8.12179 19.9709 8.56457 19.7755C9.01609 19.5842 9.46649 19.3154 9.91856 18.9578C10.8074 18.2275 11.5036 17.2574 12.0005 16.4646C12.2453 16.0683 12.4466 15.719 12.5809 15.4668C12.7093 15.2118 12.7877 15.0608 12.7877 15.0608C12.7877 15.0608 12.6621 15.0178 12.4423 14.9735C12.2214 14.9263 11.908 14.8778 11.5356 14.8751C11.1625 14.8681 10.7236 14.9083 10.2553 15.0317C9.78482 15.1564 9.29548 15.3795 8.80225 15.7287" fill="#FBC935"/>
<path d="M6.77849 24.4455C5.95779 25.4641 5.53552 26.8805 5.40774 28.0279C5.37531 28.3134 5.3433 28.5837 5.33526 28.8262C5.32985 29.0673 5.32985 29.2835 5.33415 29.4609C5.34066 29.8199 5.35854 30.0347 5.35854 30.0347C5.35854 30.0347 5.49976 30.0014 5.73092 29.9141C5.96486 29.8282 6.28693 29.6896 6.64795 29.4831C7.01021 29.2808 7.41183 29.0091 7.80112 28.6655C8.19955 28.3231 8.60284 27.9102 8.94002 27.4099C9.64002 26.4148 10.0682 25.2535 10.367 24.3139C10.4352 24.0796 10.504 23.8607 10.5587 23.6625C10.6134 23.4643 10.6535 23.2883 10.6902 23.14C10.7671 22.8462 10.8001 22.6647 10.8001 22.6647C10.8001 22.6647 10.2214 22.6162 9.42244 22.8019C9.0186 22.8947 8.57415 23.0527 8.11336 23.3119C7.64729 23.571 7.19522 23.9341 6.77849 24.4455" fill="#FBC935"/>
<path d="M7.45422 33.2248C6.96958 34.5524 7.04109 36.1586 7.32907 37.3754C7.3622 37.5293 7.39185 37.6761 7.42927 37.8161C7.47196 37.9575 7.51159 38.0877 7.54832 38.2139C7.6269 38.4661 7.70312 38.685 7.76756 38.8694C7.83089 39.0565 7.89922 39.195 7.9419 39.2907C7.98528 39.3905 8.01009 39.4431 8.01009 39.4431C8.01009 39.4431 8.14271 39.3572 8.3474 39.184C8.55154 39.0121 8.82705 38.7544 9.12099 38.4176C9.72509 37.7288 10.3694 36.7365 10.7298 35.4615C11.0925 34.1879 11.1055 32.8658 11.0925 31.8389C11.0807 31.5825 11.0871 31.3414 11.0726 31.1307C11.0629 30.9159 11.0433 30.7302 11.0297 30.5736C11.0163 30.2618 10.9913 30.0747 10.9913 30.0747C10.9913 30.0747 10.8382 30.1107 10.5886 30.2008C10.339 30.2909 9.99256 30.4378 9.60868 30.6623C9.21731 30.8896 8.81887 31.1945 8.43125 31.613C8.23917 31.8209 8.0518 32.0579 7.88134 32.3253C7.72044 32.5942 7.57589 32.8894 7.45422 33.2248" fill="#FBC935"/>
<path d="M10.8937 41.2962C10.8883 41.4875 10.8835 41.6815 10.9003 41.8713C10.9165 42.0626 10.9392 42.2552 10.9727 42.4479C11.0329 42.8304 11.1212 43.2141 11.2484 43.5785C11.3084 43.763 11.3745 43.9445 11.4416 44.122C11.479 44.2092 11.5125 44.3006 11.5488 44.3878C11.5883 44.4727 11.6278 44.5545 11.6679 44.64C11.8281 44.9714 11.9981 45.2903 12.1665 45.5825C12.5286 46.1483 12.8626 46.6359 13.1415 46.9489C13.4127 47.2677 13.587 47.4497 13.587 47.4497C13.587 47.4497 13.6919 47.3149 13.8404 47.0669C13.9909 46.819 14.1829 46.4541 14.3649 46.0054C14.5489 45.5565 14.7135 45.0271 14.8407 44.4213C14.9647 43.8172 15.0204 43.1644 14.9966 42.4534C14.9355 41.0398 14.5171 39.6969 14.1651 38.6534C14.0704 38.3984 13.9935 38.1517 13.9091 37.941C13.8279 37.7276 13.7418 37.5461 13.6856 37.3853C13.5632 37.0735 13.476 36.8933 13.476 36.8933C13.476 36.8933 13.3304 36.9806 13.1041 37.1553C12.8783 37.3313 12.5724 37.5946 12.2541 37.9549C12.0967 38.1323 11.9309 38.3374 11.7789 38.5647C11.6289 38.7892 11.487 39.0428 11.3587 39.3186C11.2315 39.5958 11.1212 39.9034 11.0345 40.2346C10.9576 40.5603 10.9083 40.9137 10.8937 41.2962" fill="#FBC935"/>
<path d="M16.6337 47.8473C16.8649 48.6209 17.2687 49.3744 17.7727 50.0273C18.0164 50.3667 18.2962 50.6634 18.5745 50.9459C18.7136 51.0879 18.8527 51.2248 18.9951 51.3552C19.1385 51.477 19.2825 51.5951 19.4227 51.7071C19.9793 52.1727 20.5244 52.4888 20.9109 52.7189C21.1031 52.839 21.2704 52.9083 21.3797 52.9642C21.4907 53.0156 21.5524 53.0415 21.5524 53.0415C21.5524 53.0415 21.6044 52.8672 21.6554 52.5635C21.7088 52.2588 21.7608 51.8218 21.7707 51.3065C21.7858 50.7798 21.7625 50.1757 21.6617 49.5368C21.6098 49.2233 21.5498 48.8867 21.4626 48.5456C21.3786 48.2035 21.2633 47.8754 21.1312 47.5247C20.5905 46.1567 19.7638 44.9662 19.0856 44.0546C19.0416 43.9988 18.9978 43.9447 18.955 43.8894C18.9155 43.8343 18.8738 43.7829 18.8365 43.7287C18.7564 43.6231 18.6801 43.5251 18.6054 43.432C18.458 43.2479 18.3168 43.0953 18.2112 42.954C17.992 42.6837 17.8463 42.5341 17.8463 42.5341C17.8463 42.5341 17.7256 42.6726 17.5502 42.9221C17.376 43.1727 17.1469 43.5413 16.9364 44.0101C16.8319 44.243 16.73 44.5034 16.6456 44.7848C16.5661 45.0631 16.5 45.3641 16.4605 45.6884C16.4226 46.011 16.4025 46.3618 16.4291 46.7207C16.4578 47.078 16.5227 47.4554 16.6337 47.8473" fill="#FBC935"/>
<path d="M14.9594 1.89223C13.7738 2.92747 13.0971 4.22464 12.7486 5.20583C12.6625 5.45528 12.5893 5.68116 12.5358 5.88627C12.4839 6.09138 12.4459 6.27155 12.4167 6.42123C12.3621 6.71642 12.3447 6.88965 12.3447 6.88965C12.3447 6.88965 12.5103 6.82729 12.7843 6.69979C12.9212 6.63465 13.0842 6.55703 13.2694 6.46141C13.4555 6.37132 13.6656 6.26324 13.8859 6.14267C14.7786 5.66177 15.897 4.98409 16.9315 4.0819C17.9623 3.17416 18.7629 2.1791 19.38 1.38778C19.5339 1.19237 19.6702 1.00389 19.7932 0.836206C19.9171 0.67406 20.0243 0.532709 20.1115 0.409367C20.2874 0.16407 20.3822 0.0116261 20.3822 0.0116261C20.3822 0.0116261 20.2078 -0.00224334 19.8982 0.000528375C19.7433 0.00330009 19.5538 0.00884827 19.3363 0.0227069C19.1224 0.0462665 18.8799 0.0795298 18.6124 0.129421C18.344 0.173768 18.0614 0.247222 17.7625 0.340074C17.612 0.387193 17.4583 0.435692 17.3007 0.489741C17.1487 0.55349 16.9922 0.620005 16.833 0.690684C16.6739 0.762748 16.5137 0.838976 16.3518 0.920741C16.1959 1.01082 16.0389 1.10507 15.8796 1.20346C15.7233 1.30463 15.5614 1.40717 15.4093 1.52359C15.2582 1.63861 15.1072 1.76196 14.9594 1.89223" fill="#FBC935"/>
<path d="M24.1145 52.0194C24.3733 52.3508 24.6737 52.6697 25.004 52.9663C25.3385 53.2391 25.699 53.4968 26.073 53.7296C26.4532 53.9445 26.8434 54.1388 27.2327 54.3078C27.6252 54.4577 28.0128 54.5892 28.3814 54.7014C29.1236 54.8843 29.7906 55.0078 30.2675 55.0354C30.7471 55.0754 31.0334 55.0808 31.0334 55.0808C31.0334 55.0808 31.0064 54.8871 30.9226 54.5628C30.8386 54.2411 30.6979 53.7897 30.4867 53.2781C30.3796 53.0204 30.2567 52.7487 30.1138 52.4687C30.0428 52.3329 29.967 52.1916 29.8864 52.0487C29.8051 51.9019 29.7218 51.7536 29.6314 51.6054C29.4533 51.3086 29.2541 51.0121 29.0349 50.7284C28.8155 50.4425 28.5795 50.1361 28.3191 49.8622C27.2776 48.7437 26.0963 47.9274 25.1517 47.3021C25.0327 47.2246 24.9162 47.1553 24.8063 47.0872C24.6981 47.0141 24.5925 46.9459 24.494 46.8852C24.2947 46.7565 24.1129 46.6634 23.9646 46.5691C23.669 46.3862 23.4838 46.2947 23.4838 46.2947C23.4838 46.2947 23.4097 46.4734 23.3192 46.7895C23.2294 47.1013 23.1232 47.5474 23.0701 48.0936C23.0155 48.6425 23.0275 49.2591 23.1709 49.938C23.3111 50.6271 23.6072 51.3168 24.1145 52.0194" fill="#FBC935"/>
<path d="M32.9277 62.6676C33.8659 61.4246 34.2746 59.7584 34.4272 58.4228C34.495 57.7575 34.522 57.1712 34.5041 56.7571C34.4938 56.3397 34.47 56.0929 34.47 56.0929C34.47 56.0929 33.7804 56.2525 32.9033 56.7376C32.0291 57.2226 30.9562 58.0233 30.1381 59.2571C29.331 60.4956 28.8627 61.926 28.5784 63.0514C28.5032 63.3301 28.4458 63.595 28.3993 63.8288C28.3501 64.0642 28.3035 64.271 28.272 64.447C28.2072 64.7918 28.1865 64.9997 28.1865 64.9997C28.1865 64.9997 28.8887 65.0192 29.8415 64.7534C30.3146 64.6186 30.8597 64.4096 31.3956 64.0784C31.9209 63.7444 32.4702 63.2895 32.9277 62.6676" fill="#FBC935"/>
<path d="M36.0132 62.6676C35.0766 61.4246 34.6674 59.7584 34.5126 58.4228C34.4454 57.7575 34.4189 57.1712 34.4374 56.7571C34.4482 56.3397 34.4698 56.0929 34.4698 56.0929C34.4698 56.0929 35.1595 56.2525 36.0376 56.7376C36.9124 57.2226 37.9858 58.0233 38.8028 59.2571C39.6083 60.4956 40.0788 61.926 40.3625 63.0514C40.4361 63.3301 40.4951 63.595 40.5416 63.8288C40.5897 64.0642 40.6391 64.271 40.6693 64.447C40.7326 64.7918 40.7544 64.9997 40.7544 64.9997C40.7544 64.9997 40.0512 65.0192 39.0994 64.7534C38.6274 64.6186 38.0812 64.4096 37.5451 64.0784C37.0206 63.7444 36.4707 63.2895 36.0132 62.6676" fill="#FBC935"/>
<path d="M55.9243 8.15883C56.9404 8.52192 57.8245 9.33404 58.4345 10.0505C58.7333 10.4122 58.977 10.7435 59.1291 10.9901C59.2866 11.2368 59.37 11.3907 59.37 11.3907C59.37 11.3907 58.9207 11.5611 58.238 11.6124C57.5576 11.6678 56.64 11.6096 55.6958 11.2008C54.7549 10.7864 53.9262 10.1309 53.3231 9.58627C53.1709 9.45184 53.0334 9.32296 52.9144 9.20377C52.7942 9.08597 52.6859 8.98342 52.5992 8.89612C52.4277 8.71734 52.333 8.60509 52.333 8.60509C52.333 8.60509 52.7211 8.32929 53.3637 8.12279C53.6846 8.02163 54.0745 7.93294 54.5076 7.92601C54.9352 7.9177 55.4229 7.97174 55.9243 8.15883" fill="#FBC935"/>
<path d="M60.1629 15.9155C61.1307 16.6126 61.8492 17.7337 62.2849 18.6789C62.3931 18.9145 62.4857 19.139 62.5669 19.3427C62.6438 19.5478 62.7012 19.7321 62.7504 19.886C62.8468 20.195 62.8934 20.3821 62.8934 20.3821C62.8934 20.3821 62.3639 20.4306 61.6186 20.2892C61.2455 20.2172 60.8232 20.0966 60.3821 19.9067C59.9317 19.721 59.4813 19.4577 59.0309 19.1043C58.1484 18.3906 57.4571 17.4344 56.9655 16.6583C56.7252 16.2675 56.525 15.9238 56.3933 15.6743C56.2661 15.4263 56.1904 15.2738 56.1904 15.2738C56.1904 15.2738 56.3154 15.2336 56.5352 15.1865C56.7556 15.1408 57.0663 15.0923 57.4392 15.0853C57.8123 15.077 58.2464 15.1131 58.7168 15.2336C59.184 15.3542 59.6724 15.5704 60.1629 15.9155" fill="#FBC935"/>
<path d="M62.2542 24.4887C63.0723 25.4948 63.4935 26.8904 63.6212 28.0171C63.6548 28.2998 63.6855 28.5645 63.6948 28.8029C63.6986 29.0426 63.6986 29.2533 63.6965 29.4307C63.6911 29.7854 63.6732 29.9961 63.6732 29.9961C63.6732 29.9961 63.5318 29.9628 63.299 29.8755C63.0669 29.791 62.7437 29.6524 62.382 29.4501C62.0199 29.2505 61.6182 28.9844 61.229 28.6477C60.8289 28.3109 60.4256 27.9021 60.0888 27.4073C59.3894 26.4317 58.9618 25.2925 58.6657 24.3653C58.5975 24.1353 58.5288 23.9191 58.4757 23.7237C58.4204 23.5283 58.3809 23.3537 58.3446 23.2082C58.2683 22.9185 58.2363 22.7425 58.2363 22.7425C58.2363 22.7425 58.814 22.6926 59.613 22.8742C60.0169 22.9642 60.4619 23.1181 60.9203 23.3731C61.3854 23.6281 61.8375 23.9856 62.2542 24.4887" fill="#FBC935"/>
<path d="M61.6856 33.157C62.1712 34.4722 62.1036 36.0645 61.8225 37.2675C61.789 37.4199 61.7592 37.5668 61.7224 37.704C61.6813 37.844 61.6418 37.9756 61.6044 38.099C61.528 38.3484 61.4522 38.5646 61.3879 38.7489C61.3261 38.9305 61.2596 39.0691 61.2167 39.1661C61.173 39.2617 61.1475 39.313 61.1475 39.313C61.1475 39.313 61.0165 39.2298 60.8108 39.0566C60.605 38.8848 60.3312 38.6311 60.0356 38.2916C59.4293 37.6084 58.7823 36.6244 58.4197 35.3619C58.0505 34.0966 58.0337 32.7953 58.044 31.7781C58.0559 31.5258 58.0477 31.2875 58.0628 31.0796C58.0721 30.8676 58.0905 30.6846 58.103 30.5294C58.1175 30.2217 58.1419 30.0402 58.1419 30.0402C58.1419 30.0402 58.2956 30.0748 58.5452 30.1635C58.7948 30.2536 59.1402 30.395 59.525 30.6181C59.916 30.8454 60.3148 31.1447 60.7036 31.5605C60.8963 31.767 61.0836 32.0026 61.2547 32.2687C61.4149 32.532 61.5617 32.8272 61.6856 33.157" fill="#FBC935"/>
<path d="M58.369 41.1936C58.3745 41.3807 58.3782 41.5775 58.362 41.7673C58.3462 41.9558 58.3235 42.1457 58.2916 42.3383C58.2326 42.718 58.1471 43.1019 58.0204 43.4608C57.9603 43.6449 57.8969 43.8252 57.8287 44.0012C57.793 44.0915 57.7583 44.1804 57.7248 44.2631C57.6848 44.3492 57.6447 44.4337 57.6063 44.517C57.446 44.8478 57.2787 45.1639 57.1114 45.4552C56.753 46.0166 56.4191 46.5017 56.1441 46.8102C55.875 47.1291 55.7028 47.311 55.7028 47.311C55.7028 47.311 55.5972 47.1762 55.4489 46.9255C55.2979 46.6787 55.1041 46.3186 54.9212 45.8682C54.7366 45.4178 54.5703 44.8912 54.4399 44.287C54.317 43.6855 54.2579 43.0368 54.2769 42.3258C54.3332 40.9219 54.7447 39.5901 55.0933 38.5535C55.187 38.2999 55.2627 38.056 55.3461 37.8467C55.4257 37.6333 55.5117 37.4545 55.567 37.2965C55.6877 36.9861 55.7755 36.8073 55.7755 36.8073C55.7755 36.8073 55.9206 36.896 56.1467 37.0679C56.3725 37.2439 56.68 37.5072 56.9978 37.8634C57.1569 38.0408 57.3215 38.2472 57.4747 38.4717C57.6257 38.7004 57.7682 38.9485 57.8969 39.227C58.0242 39.5028 58.1368 39.8049 58.2234 40.1362C58.3013 40.4618 58.3507 40.8125 58.369 41.1936" fill="#FBC935"/>
<path d="M52.7338 47.7704C52.506 48.5423 52.1031 49.2937 51.6019 49.944C51.3588 50.2845 51.0822 50.58 50.8039 50.8599C50.6653 50.9996 50.5273 51.1397 50.386 51.2686C50.2421 51.3921 50.0996 51.5095 49.96 51.6221C49.4061 52.0822 48.8616 52.3968 48.4777 52.6269C48.2877 52.7459 48.1221 52.8137 48.0105 52.872C47.9012 52.9236 47.839 52.9512 47.839 52.9512C47.839 52.9512 47.787 52.7763 47.735 52.4715C47.6814 52.1651 47.6289 51.7315 47.6186 51.2161C47.6035 50.6893 47.6251 50.0852 47.7226 49.4491C47.7734 49.1358 47.8351 48.7962 47.9202 48.4596C48.0035 48.1158 48.1178 47.7888 48.246 47.4381C48.7836 46.0727 49.6043 44.8893 50.2804 43.9761C50.3242 43.9209 50.3687 43.8695 50.4093 43.8142C50.4505 43.76 50.4889 43.7076 50.5289 43.6534C50.6068 43.5495 50.6832 43.4493 50.7573 43.3595C50.9046 43.1721 51.0454 43.0227 51.1494 42.8828C51.3686 42.6139 51.5141 42.4656 51.5141 42.4656C51.5141 42.4656 51.6344 42.6028 51.8081 42.8523C51.9846 43.1045 52.213 43.4715 52.4242 43.9377C52.5297 44.1715 52.6316 44.4308 52.7144 44.715C52.7972 44.9905 52.8627 45.2926 52.9028 45.6158C52.9428 45.9384 52.9618 46.2866 52.9363 46.6466C52.9093 47.0028 52.8437 47.3785 52.7338 47.7704" fill="#FBC935"/>
<path d="M45.3193 52.0194C45.0606 52.3508 44.7601 52.6697 44.4315 52.9663C44.097 53.2391 43.7354 53.4968 43.3608 53.7296C42.9812 53.9445 42.5893 54.1388 42.2022 54.3078C41.8109 54.4577 41.4216 54.5892 41.0524 54.7014C40.3097 54.8843 39.6438 55.0078 39.1652 55.0354C38.6884 55.0754 38.4004 55.0808 38.4004 55.0808C38.4004 55.0808 38.428 54.8871 38.5107 54.5628C38.5952 54.2411 38.7365 53.7897 38.9477 53.2781C39.0542 53.0204 39.1777 52.7487 39.32 52.4687C39.3916 52.3329 39.4668 52.1916 39.548 52.0487C39.6281 51.9019 39.7136 51.7536 39.803 51.6054C39.9822 51.3086 40.1808 51.0121 40.3989 50.7284C40.6182 50.4425 40.8538 50.1361 41.1142 49.8622C42.1557 48.7437 43.3385 47.9274 44.2832 47.3021C44.4006 47.2246 44.5159 47.1553 44.6275 47.0872C44.7357 47.0141 44.8408 46.9459 44.9393 46.8852C45.1386 46.7565 45.3204 46.6634 45.4687 46.5691C45.7637 46.3862 45.95 46.2947 45.95 46.2947C45.95 46.2947 46.0241 46.4734 46.1146 46.7895C46.205 47.1013 46.3116 47.5474 46.3641 48.0936C46.4188 48.6425 46.408 49.2591 46.264 49.938C46.1221 50.6271 45.8282 51.3168 45.3193 52.0194" fill="#FBC935"/>
<path d="M57.7479 6.77709C57.8815 7.90102 58.2893 9.03742 58.665 9.90636C58.8462 10.3457 59.0308 10.7102 59.1554 10.9763C59.2838 11.2396 59.3693 11.3906 59.3693 11.3906C59.3693 11.3906 59.758 11.1079 60.1499 10.5342C60.5402 9.95902 60.9295 9.0901 60.8704 7.90935C60.8196 6.72166 60.2792 5.47992 59.7351 4.55555C59.5988 4.3255 59.4629 4.11486 59.3384 3.92777C59.21 3.74207 59.0872 3.57991 58.9844 3.44825C58.7786 3.18355 58.6476 3.02833 58.6476 3.02833C58.6476 3.02833 58.3418 3.4053 58.0862 4.06358C57.9579 4.39203 57.8454 4.78562 57.7761 5.24434C57.7014 5.70444 57.6895 6.21166 57.7479 6.77709" fill="#FBC935"/>
<path d="M62.5136 14.9841C62.3149 16.2231 62.433 17.5535 62.5742 18.5943C62.6083 18.8549 62.6467 19.096 62.6852 19.3094C62.721 19.5298 62.7534 19.721 62.7837 19.8776C62.8454 20.195 62.8936 20.3821 62.8936 20.3821C62.8936 20.3821 63.3895 20.1978 63.9736 19.703C64.2633 19.4522 64.5794 19.1237 64.8566 18.6955C65.125 18.2728 65.374 17.742 65.5089 17.1059C65.7952 15.8226 65.5907 14.348 65.2896 13.2158C65.144 12.649 64.9648 12.1681 64.8316 11.8285C64.7018 11.489 64.6027 11.2908 64.6027 11.2908C64.6027 11.2908 64.4917 11.3684 64.325 11.5181C64.1577 11.6706 63.9308 11.9006 63.6926 12.2097C63.4545 12.5173 63.2075 12.9026 63.0002 13.3655C62.7891 13.827 62.6083 14.3702 62.5136 14.9841" fill="#FBC935"/>
<path d="M65.0072 24.1893C64.4381 25.4505 64.1632 26.8904 63.9505 28.0254C63.8996 28.3109 63.8665 28.5728 63.8281 28.8112C63.7875 29.0482 63.7571 29.2588 63.7338 29.4334C63.6873 29.7854 63.6738 29.9961 63.6738 29.9961C63.6738 29.9961 63.8189 29.9906 64.0603 29.9462C64.3023 29.906 64.6412 29.8229 65.0293 29.6635C65.4185 29.5083 65.8571 29.2699 66.2988 28.9096C66.7292 28.5506 67.1439 28.067 67.5114 27.4156C68.2211 26.1143 68.4534 24.4263 68.448 23.1042C68.4534 22.773 68.4349 22.4653 68.415 22.1895C68.396 21.911 68.3749 21.6657 68.3489 21.4647C68.2932 21.0587 68.2461 20.8175 68.2461 20.8175C68.2461 20.8175 67.6982 21.0213 67.0329 21.5507C66.7026 21.8126 66.3286 22.1604 65.9778 22.5984C65.6334 23.0308 65.2843 23.5602 65.0072 24.1893" fill="#FBC935"/>
<path d="M64.6176 33.8251C63.5825 34.931 62.7879 36.3086 62.1557 37.3937C62.0819 37.5323 62.0095 37.6667 61.9407 37.7915C61.8692 37.9176 61.8027 38.0381 61.7399 38.1545C61.6131 38.3846 61.5076 38.5911 61.4242 38.7629C61.251 39.108 61.1465 39.3131 61.1465 39.3131C61.1465 39.3131 61.2975 39.363 61.5639 39.406C61.8281 39.4517 62.2108 39.4947 62.6688 39.4725C63.568 39.4226 64.8234 39.1385 66.0182 38.0589C67.2113 36.9835 68.0829 35.3163 68.5457 33.9138C68.6724 33.566 68.7514 33.2278 68.8343 32.9271C68.9106 32.625 68.976 32.3575 69.02 32.1274C69.1012 31.6729 69.1325 31.3999 69.1325 31.3999C69.1325 31.3999 68.9734 31.4054 68.7076 31.4539C68.4418 31.5066 68.0666 31.5994 67.633 31.7671C67.2064 31.9348 66.6933 32.1704 66.181 32.5072C65.9245 32.6735 65.6652 32.8661 65.4086 33.0851C65.1411 33.304 64.8754 33.5493 64.6176 33.8251" fill="#FBC935"/>
<path d="M61.1536 42.8662C60.9723 42.9646 60.8023 43.0742 60.6258 43.1809C60.4471 43.2875 60.2734 43.3996 60.1045 43.516C59.766 43.7487 59.4456 43.9983 59.1219 44.2397C58.9628 44.3626 58.8095 44.4887 58.6601 44.6122C58.5849 44.6778 58.5118 44.7411 58.4392 44.8022C58.3656 44.8645 58.2909 44.9257 58.2173 44.9852C57.9249 45.2262 57.6565 45.4702 57.4086 45.7003C56.8904 46.1426 56.486 46.5621 56.1747 46.8421C55.8722 47.1289 55.7021 47.3109 55.7021 47.3109C55.7021 47.3109 55.8391 47.4115 56.0925 47.5501C56.3464 47.6876 56.7177 47.8608 57.1947 48.0005C57.6695 48.138 58.2574 48.2447 58.9135 48.2198C59.574 48.1948 60.3362 48.0618 61.1297 47.7028C62.7376 47.0028 64.2062 45.5672 65.1552 44.2728C65.4 43.9528 65.5997 43.6339 65.7848 43.3514C65.9657 43.0657 66.1287 42.8108 66.2445 42.589C66.48 42.1483 66.6072 41.8767 66.6072 41.8767C66.6072 41.8767 66.4426 41.8296 66.1508 41.7908C65.8595 41.7533 65.4421 41.7256 64.9403 41.7506C64.6886 41.7644 64.418 41.7935 64.1289 41.8379C63.8344 41.8822 63.5248 41.9446 63.2037 42.0333C62.8833 42.1178 62.5502 42.2315 62.2125 42.37C61.866 42.5045 61.5093 42.6694 61.1536 42.8662" fill="#FBC935"/>
<path d="M55.0009 50.4274C54.1249 50.5828 53.2669 50.8486 52.443 51.1257C52.0401 51.274 51.6342 51.4115 51.2542 51.5555C51.0657 51.633 50.879 51.7039 50.6998 51.7786C50.5152 51.8436 50.3387 51.9129 50.1688 51.9783C49.4969 52.2637 48.9063 52.4855 48.4998 52.6724C48.2968 52.7681 48.1267 52.8251 48.0147 52.8748C47.9021 52.9236 47.8398 52.9512 47.8398 52.9512C47.8398 52.9512 47.9373 53.1077 48.1375 53.3457C48.3389 53.5845 48.6443 53.9045 49.0735 54.2288C49.4969 54.546 50.0425 54.8622 50.7323 55.0922C51.0793 55.2113 51.4533 55.2919 51.8642 55.3418C52.2729 55.3889 52.7282 55.4148 53.2046 55.3722C53.6789 55.3293 54.1709 55.2433 54.6609 55.1172C55.14 54.9829 55.6212 54.8134 56.0937 54.6213C56.5551 54.4172 57.0027 54.1871 57.4304 53.9543C57.8553 53.7145 58.2446 53.4497 58.6121 53.2018C58.7026 53.1379 58.7935 53.0756 58.8807 53.0151C58.9662 52.9484 59.048 52.8856 59.1292 52.8223C59.2911 52.6934 59.4431 52.5727 59.5867 52.4548C59.8735 52.2182 60.1285 52.0033 60.3212 51.809C60.7175 51.4294 60.9427 51.188 60.9427 51.188C60.9427 51.188 60.7889 51.0874 60.5004 50.9551C60.2129 50.8225 59.7934 50.6575 59.2683 50.5232C59.0057 50.4566 58.7177 50.3971 58.4037 50.3499C58.087 50.3013 57.7487 50.2612 57.3893 50.2488C57.0292 50.232 56.6535 50.24 56.2546 50.2666C55.8518 50.2905 55.4339 50.3413 55.0009 50.4274" fill="#FBC935"/>
<path d="M52.1567 4.582C53.1777 5.43985 54.2854 6.06625 55.1694 6.51389C55.387 6.62614 55.597 6.72039 55.7806 6.80354C55.963 6.89224 56.126 6.96291 56.2612 7.01973C56.5324 7.13475 56.6982 7.19019 56.6982 7.19019C56.6982 7.19019 56.677 7.01973 56.6136 6.72454C56.5834 6.57625 56.5428 6.39887 56.4881 6.19653C56.4275 5.99281 56.3534 5.77106 56.2629 5.52299C55.8985 4.55566 55.2041 3.29037 54.0239 2.30226C53.8782 2.18169 53.7283 2.06389 53.5789 1.9544C53.4262 1.84769 53.2699 1.74931 53.1134 1.65507C52.9584 1.56499 52.8048 1.47491 52.6483 1.39591C52.4897 1.32108 52.3322 1.2504 52.1768 1.18665C52.022 1.12013 51.8721 1.05914 51.721 1.00787C51.5672 0.959362 51.4178 0.915022 51.2712 0.877604C51.1261 0.836028 50.9858 0.799993 50.8489 0.77089C50.7129 0.740401 50.5744 0.720999 50.4471 0.701597C50.1912 0.665565 49.9583 0.639229 49.751 0.628143C49.5409 0.622599 49.3606 0.625371 49.2107 0.628143C48.9146 0.639229 48.75 0.660015 48.75 0.660015C48.75 0.660015 48.8437 0.808308 49.0158 1.04806C49.1024 1.16586 49.2097 1.30444 49.3325 1.46243C49.4522 1.62596 49.588 1.8075 49.7391 1.99182C50.3471 2.76098 51.1369 3.72 52.1567 4.582" fill="#FBC935"/>
<path d="M46.5617 55.5372C46.0859 55.4441 45.6073 55.3835 45.1332 55.3445C44.6535 55.286 44.1776 55.2541 43.7142 55.2379C43.247 55.1989 42.7901 55.1848 42.3549 55.1794C41.9148 55.1534 41.4953 55.1394 41.1049 55.1394C40.3205 55.1019 39.6492 55.1118 39.168 55.0841C38.6873 55.0727 38.4004 55.0809 38.4004 55.0809C38.4004 55.0809 38.4252 55.2763 38.5172 55.5941C38.6083 55.9124 38.7646 56.3536 39.0429 56.8521C39.1815 57.1017 39.3515 57.3648 39.5599 57.6339C39.6644 57.7671 39.7792 57.9029 39.902 58.0372C40.0277 58.1661 40.1614 58.2965 40.308 58.4226C40.6014 58.6787 40.9404 58.9239 41.3334 59.1567C41.7265 59.3867 42.1698 59.5687 42.6754 59.7365C43.1816 59.9109 43.7142 60.005 44.268 60.0759C44.8245 60.156 45.3871 60.1614 45.9511 60.1452C46.519 60.1409 47.0712 60.0716 47.6087 59.9882C48.1512 59.9163 48.6617 59.79 49.1412 59.6656C49.3794 59.606 49.6106 59.5421 49.8321 59.4756C50.0485 59.4025 50.2549 59.3299 50.4498 59.2595C50.84 59.1166 51.1903 58.9905 51.4681 58.8644C52.0245 58.6094 52.351 58.4405 52.351 58.4405C52.351 58.4405 52.2303 58.284 51.9839 58.0513C51.7382 57.8152 51.3668 57.5024 50.8791 57.1852C50.394 56.8717 49.7753 56.5269 49.0557 56.2383C48.3406 55.9627 47.4988 55.6894 46.5617 55.5372" fill="#FBC935"/>
</svg>
